<svg width="28" height="20" viewBox="0 0 28 20" fill="none" xmlns="http://www.w3.org/2000/svg">
<path d="M14 15.5556C15.5129 15.5556 16.7968 15.0163 17.8516 13.9379C18.9064 12.8595 19.4338 11.5468 19.4338 10C19.4338 8.45316 18.9064 7.14052 17.8516 6.06209C16.7968 4.98366 15.5129 4.44444 14 4.44444C12.4871 4.44444 11.2032 4.98366 10.1484 6.06209C9.09361 7.14052 8.56621 8.45316 8.56621 10C8.56621 11.5468 9.09361 12.8595 10.1484 13.9379C11.2032 15.0163 12.4871 15.5556 14 15.5556ZM14 13.5294C13.0411 13.5294 12.226 13.1863 11.5548 12.5C10.8836 11.8137 10.5479 10.9804 10.5479 10C10.5479 9.01961 10.8836 8.18627 11.5548 7.5C12.226 6.81373 13.0411 6.47059 14 6.47059C14.9589 6.47059 15.774 6.81373 16.4452 7.5C17.1164 8.18627 17.4521 9.01961 17.4521 10C17.4521 10.9804 17.1164 11.8137 16.4452 12.5C15.774 13.1863 14.9589 13.5294 14 13.5294ZM14 20C11.0381 20 8.33181 19.1721 5.88128 17.5163C3.43075 15.8606 1.5449 13.671 0.223744 10.9477C0.138508 10.8388 0.0799087 10.6972 0.0479452 10.5229C0.0159818 10.3486 0 10.1743 0 10C0 9.82571 0.0159818 9.65142 0.0479452 9.47713C0.0799087 9.30283 0.138508 9.15033 0.223744 9.01961C1.5449 6.31808 3.43075 4.13943 5.88128 2.48366C8.33181 0.827887 11.0381 0 14 0C16.9619 0 19.6682 0.827887 22.1187 2.48366C24.5693 4.13943 26.4551 6.31808 27.7763 9.01961C27.8615 9.15033 27.9201 9.30283 27.9521 9.47713C27.984 9.65142 28 9.82571 28 10C28 10.1743 27.984 10.3486 27.9521 10.5229C27.9201 10.6972 27.8615 10.8388 27.7763 10.9477C26.4551 13.671 24.5693 15.8606 22.1187 17.5163C19.6682 19.1721 16.9619 20 14 20ZM14 17.8431C16.5784 17.8431 18.949 17.1296 21.1119 15.7026C23.2747 14.2756 24.9209 12.3747 26.0502 10C24.9209 7.62527 23.2747 5.7244 21.1119 4.29739C18.949 2.87037 16.5784 2.15686 14 2.15686C11.4216 2.15686 9.05099 2.87037 6.88813 4.29739C4.72527 5.7244 3.06849 7.62527 1.91781 10C3.06849 12.3747 4.72527 14.2756 6.88813 15.7026C9.05099 17.1296 11.4216 17.8431 14 17.8431Z" fill="#1F1F1F"/>
</svg>
