<svg version="1.0" xmlns="http://www.w3.org/2000/svg" width="622.000000pt" height="622.000000pt" viewBox="0 0 622.000000 622.000000" preserveAspectRatio="xMidYMid meet">
	<g transform="translate(0.000000,622.000000) scale(0.100000,-0.100000)" stroke="none">
		<path d="M2875 6209 c-1203 -86 -2261 -885 -2689 -2032 -211 -564 -243 -1242 -89 -1842 103 -401 303 -804 573 -1155 114 -148 402 -429 560 -547 458 -341 926 -533 1485 -609 182 -25 608 -25 790 0 362 49 662 140 970 293 632 314 1117 800 1425 1428 261 533 360 1092 299 1700 -89 897 -601 1738 -1369 2250 -589 392 -1245 565 -1955 514z m605 -674 c258 -39 479 -108 705 -220 296 -145 565 -356 788 -615 317 -368 494 -757 564 -1235 21 -149 24 -535 5 -670 -64 -443 -202 -791 -444 -1113 l-69 -93 -27 17 c-478 316 -958 489 -1526 549 -187 19 -556 20 -741 0 -543 -58 -1022 -223 -1447 -501 l-97 -63 -49 62 c-80 100 -189 274 -247 392 -99 204 -161 400 -205 655 -28 160 -38 492 -21 665 57 559 277 1032 671 1438 224 232 436 390 685 512 266 130 511 199 830 235 119 13 502 4 625 -15z" />
		<path d="M2895 4815 c-430 -78 -796 -414 -904 -830 -182 -694 276 -1374 980 -1456 226 -26 466 15 659 111 295 149 516 423 601 745 22 81 24 110 24 295 -1 190 -3 212 -27 303 -116 425 -479 758 -907 831 -113 19 -325 20 -426 1z" />
	</g>
</svg>
