<svg width="57" height="57" viewBox="0 0 57 57" fill="none" xmlns="http://www.w3.org/2000/svg">
<circle cx="28.5" cy="28.5" r="28.5" fill="#367BCF"/>
<path d="M28.5 40C28.0951 40 27.7644 39.865 27.5079 39.5951C27.2515 39.3251 27.1232 39.0012 27.1232 38.6232V29.8768H18.3768C17.9988 29.8768 17.6749 29.7418 17.4049 29.4718C17.135 29.2019 17 28.8779 17 28.5C17 28.0951 17.135 27.7644 17.4049 27.5079C17.6749 27.2515 17.9988 27.1232 18.3768 27.1232H27.1232V18.3768C27.1232 17.9988 27.2582 17.6749 27.5282 17.4049C27.7981 17.135 28.1221 17 28.5 17C28.9049 17 29.2356 17.135 29.4921 17.4049C29.7485 17.6749 29.8768 17.9988 29.8768 18.3768V27.1232H38.6232C39.0012 27.1232 39.3251 27.2582 39.5951 27.5282C39.865 27.7981 40 28.1221 40 28.5C40 28.9049 39.865 29.2356 39.5951 29.4921C39.3251 29.7485 39.0012 29.8768 38.6232 29.8768H29.8768V38.6232C29.8768 39.0012 29.7418 39.3251 29.4718 39.5951C29.2019 39.865 28.8779 40 28.5 40Z" fill="white"/>
</svg>
