<svg width="23" height="23" viewBox="0 0 23 23" fill="none" xmlns="http://www.w3.org/2000/svg">
<path d="M11.5 23C11.0951 23 10.7644 22.865 10.5079 22.5951C10.2515 22.3251 10.1232 22.0012 10.1232 21.6232V12.8768H1.37676C0.998826 12.8768 0.674883 12.7418 0.40493 12.4718C0.134977 12.2019 0 11.8779 0 11.5C0 11.0951 0.134977 10.7644 0.40493 10.5079C0.674883 10.2515 0.998826 10.1232 1.37676 10.1232H10.1232V1.37676C10.1232 0.998826 10.2582 0.674883 10.5282 0.40493C10.7981 0.134977 11.1221 0 11.5 0C11.9049 0 12.2356 0.134977 12.4921 0.40493C12.7485 0.674883 12.8768 0.998826 12.8768 1.37676V10.1232H21.6232C22.0012 10.1232 22.3251 10.2582 22.5951 10.5282C22.865 10.7981 23 11.1221 23 11.5C23 11.9049 22.865 12.2356 22.5951 12.4921C22.3251 12.7485 22.0012 12.8768 21.6232 12.8768H12.8768V21.6232C12.8768 22.0012 12.7418 22.3251 12.4718 22.5951C12.2019 22.865 11.8779 23 11.5 23Z" fill="white"/>
</svg>
