<svg width="12" height="21" viewBox="0 0 12 21" fill="none" xmlns="http://www.w3.org/2000/svg">
<path d="M0.437454 20.5613C0.161592 20.2243 0.016161 19.8501 0.00116044 19.4385C-0.0138402 19.027 0.131591 18.6678 0.437454 18.3609L8.22867 10.5451L0.392452 2.68412C0.11659 2.40735 -0.0138402 2.04063 0.00116044 1.58395C0.016161 1.12727 0.161592 0.760549 0.437454 0.483784C0.773347 0.146857 1.13891 -0.0140831 1.53415 0.000965033C1.92938 0.0160131 2.27995 0.176953 2.58584 0.483784L11.5412 9.46751C11.7056 9.6324 11.8231 9.80269 11.8939 9.97836C11.9646 10.154 12 10.3429 12 10.5451C12 10.7473 11.9646 10.9362 11.8939 11.1118C11.8231 11.2875 11.7056 11.4578 11.5412 11.6227L2.63084 20.5613C2.32495 20.8681 1.96689 21.014 1.55665 20.9989C1.14641 20.9839 0.773347 20.838 0.437454 20.5613Z" fill="#4694D9"/>
</svg>
