<svg width="20" height="11" viewBox="0 0 20 11" fill="none" xmlns="http://www.w3.org/2000/svg">
<path d="M0.417837 0.400999C0.738749 0.148126 1.09517 0.0148143 1.48711 0.00106373C1.87905 -0.0126868 2.22115 0.120625 2.51339 0.400999L9.95705 7.54294L17.4437 0.359747C17.7073 0.106875 18.0565 -0.0126868 18.4915 0.00106373C18.9264 0.0148143 19.2757 0.148126 19.5393 0.400999C19.8601 0.708902 20.0134 1.044 19.9991 1.4063C19.9847 1.7686 19.8315 2.08995 19.5393 2.37035L10.9833 10.5794C10.8263 10.7301 10.6641 10.8379 10.4968 10.9027C10.3295 10.9676 10.1496 11 9.95705 11C9.76452 11 9.5846 10.9676 9.41729 10.9027C9.24999 10.8379 9.08781 10.7301 8.93077 10.5794L0.417837 2.41161C0.125618 2.1312 -0.0133266 1.80298 0.00100517 1.42693C0.015337 1.05088 0.154282 0.708902 0.417837 0.400999Z" fill="#4694D9"/>
</svg>
