<svg width="24" height="25" viewBox="0 0 24 25" xmlns="http://www.w3.org/2000/svg">
<path d="M5.8558 22C5.55434 22 5.30191 21.9004 5.09852 21.7011C4.89513 21.5018 4.79343 21.2545 4.79343 20.9591C4.79343 20.6638 4.89513 20.4164 5.09852 20.2172C5.30191 20.0179 5.55434 19.9183 5.8558 19.9183H14.9598C16.438 19.9183 17.7102 19.4401 18.7762 18.4837C19.8423 17.5273 20.3753 16.3463 20.3753 14.9407C20.3753 13.5351 19.8423 12.3563 18.7762 11.4044C17.7102 10.4525 16.438 9.9765 14.9598 9.9765H5.01399L8.2094 13.1072C8.41461 13.3082 8.51721 13.552 8.51721 13.8385C8.51721 14.1249 8.41461 14.3687 8.2094 14.5697C8.00419 14.7708 7.75312 14.8691 7.45619 14.8647C7.15929 14.8602 6.91277 14.7619 6.71662 14.5697L1.86231 9.81371C1.72975 9.68383 1.63622 9.54683 1.58173 9.4027C1.52724 9.2586 1.5 9.10292 1.5 8.93566C1.5 8.7684 1.52724 8.61271 1.58173 8.46858C1.63622 8.32448 1.72975 8.18747 1.86231 8.05757L6.71662 3.30158C6.92185 3.10053 7.17066 3 7.46303 3C7.7554 3 8.00419 3.10053 8.2094 3.30158C8.41461 3.50263 8.51494 3.74861 8.51041 4.03953C8.50588 4.33042 8.40554 4.57195 8.2094 4.76412L5.01399 7.89481H14.9598C17.0319 7.89481 18.8066 8.57226 20.284 9.92717C21.7613 11.2821 22.5 12.9533 22.5 14.9407C22.5 16.9282 21.7613 18.6016 20.284 19.9609C18.8066 21.3203 17.0319 22 14.9598 22H5.8558Z" fill="white"/>
</svg>