<svg width="20" height="21" viewBox="0 0 20 21" fill="none" xmlns="http://www.w3.org/2000/svg">
<path fill-rule="evenodd" clip-rule="evenodd" d="M16.9683 10.3621C15.9385 11.3867 14.7221 11.8882 13.2433 11.8882C12.8524 11.8882 12.4894 11.8456 12.1511 11.7648C11.7725 11.6742 11.3941 11.5529 11.0154 11.3999L10.233 11.095L3.04107 18.3064C2.82259 18.5267 2.59953 18.6126 2.31325 18.6144C2.09194 18.6157 1.84912 18.5046 1.7193 18.3748C1.58948 18.2449 1.47801 18.0349 1.47801 17.7791C1.47615 17.4686 1.576 17.293 1.78619 17.0864L1.79333 17.0793L8.98641 9.89926L8.6355 9.08841C8.48313 8.73904 8.36524 8.38234 8.28104 8.0175C8.20288 7.67885 8.16078 7.30534 8.16078 6.89299C8.16078 5.40152 8.67042 4.17045 9.71577 3.12509C10.7604 2.08049 11.9936 1.5701 13.4911 1.5701C13.7238 1.5701 13.7032 1.56064 13.904 1.59487L10.44 5.07137L15.009 9.64031L18.4329 6.24126C18.4661 6.35654 18.4994 6.46978 18.4994 6.64401C18.4994 8.12651 17.9957 9.33982 16.9683 10.3621ZM19.6412 4.95853C19.7511 5.25694 19.8294 5.55644 19.8761 5.85705C19.9229 6.15767 19.9463 6.46757 19.9463 6.78674C19.9463 8.61125 19.3078 10.1588 18.0308 11.4293C16.7539 12.6998 15.2056 13.3351 13.386 13.3351C12.8996 13.3351 12.4344 13.282 11.9906 13.1759C11.5467 13.0697 11.1063 12.9283 10.6693 12.7516L4.08674 19.352C3.62999 19.8127 3.08269 20.0451 2.44485 20.049C1.807 20.053 1.25968 19.837 0.747454 19.3466C0.298291 18.9184 0.0575488 18.3607 0.0535911 17.702C0.0496335 17.0434 0.279984 16.4857 0.744629 16.029L7.30792 9.47758C7.12383 9.05547 6.98056 8.62247 6.87812 8.17859C6.77568 7.73471 6.72446 7.26212 6.72446 6.76082C6.72446 4.92542 7.37013 3.36207 8.66143 2.07076C9.95275 0.779445 11.5186 0.133788 13.3589 0.133788C13.6781 0.133789 13.9842 0.160384 14.2771 0.213573C14.5701 0.266762 14.8657 0.349525 15.1641 0.461866C15.3141 0.520247 15.5612 0.733686 15.6448 0.841568C15.7284 0.949451 15.7871 1.07243 15.8207 1.21049C15.8593 1.34854 15.8596 1.48759 15.8214 1.62765C15.7833 1.76768 15.7062 1.89585 15.5899 2.01215L12.4947 5.11841L14.9894 7.61306L18.0874 4.53737C18.2036 4.42108 18.3312 4.34388 18.47 4.30578C18.6088 4.26769 18.7472 4.26794 18.8853 4.30654C19.0234 4.34017 19.1946 4.42325 19.3064 4.50317C19.4182 4.58309 19.5828 4.80117 19.6412 4.95853Z" fill="#A1A6AB"/>
</svg>
