<svg xmlns="http://www.w3.org/2000/svg" width="279" height="219" viewBox="0 0 279 219" version="1.1"><path d="M 52.326 0.750 C 78.630 0.898, 121.380 0.898, 147.326 0.750 C 173.272 0.601, 151.750 0.480, 99.500 0.480 C 47.250 0.480, 26.022 0.601, 52.326 0.750 M 0.474 74 C 0.474 112.775, 0.598 128.638, 0.750 109.250 C 0.901 89.863, 0.901 58.138, 0.750 38.750 C 0.598 19.363, 0.474 35.225, 0.474 74 M 96.300 16 C 96.300 19.025, 96.487 20.263, 96.716 18.750 C 96.945 17.238, 96.945 14.763, 96.716 13.250 C 96.487 11.738, 96.300 12.975, 96.300 16 M 107 16 L 107 21 124.500 21 L 142 21 142 16 L 142 11 124.500 11 L 107 11 107 16 M 152 16 L 152 21 170 21 L 188 21 188 16 L 188 11 170 11 L 152 11 152 16 M 31.872 32.750 C 30.629 34.336, 30.664 34.371, 32.250 33.128 C 33.212 32.373, 34 31.585, 34 31.378 C 34 30.555, 33.179 31.084, 31.872 32.750 M 225 31.378 C 225 31.585, 225.787 32.373, 226.750 33.128 C 228.336 34.371, 228.371 34.336, 227.128 32.750 C 225.821 31.084, 225 30.555, 225 31.378 M 228.409 51.500 C 228.408 60.850, 228.558 64.810, 228.743 60.299 C 228.928 55.789, 228.929 48.139, 228.745 43.299 C 228.562 38.460, 228.410 42.150, 228.409 51.500 M 30.473 104.500 C 30.473 142.450, 30.598 157.830, 30.750 138.677 C 30.902 119.524, 30.902 88.474, 30.749 69.677 C 30.597 50.880, 30.473 66.550, 30.473 104.500 M 62.250 41.749 C 74.213 41.908, 93.788 41.908, 105.750 41.749 C 117.713 41.589, 107.925 41.459, 84 41.459 C 60.075 41.459, 50.288 41.589, 62.250 41.749 M 137.227 58.750 L 137.500 76.500 154.766 77 C 164.263 77.275, 172.363 77.388, 172.766 77.251 C 173.170 77.115, 173.368 68.902, 173.206 59.001 L 172.913 41 154.933 41 L 136.954 41 137.227 58.750 M 183 56.500 C 183 67.643, 182.672 72, 181.833 72 C 181.192 72, 180.956 72.289, 181.309 72.643 C 181.663 72.996, 182.556 72.784, 183.294 72.171 C 185.851 70.049, 201.399 67.014, 209.750 67.007 L 218 67 218 54 L 218 41 200.500 41 L 183 41 183 56.500 M 11 74 L 11 92 16 92 L 21 92 21 74 L 21 56 16 56 L 11 56 11 74 M 223.750 67.662 C 224.438 67.940, 225.563 67.940, 226.250 67.662 C 226.938 67.385, 226.375 67.158, 225 67.158 C 223.625 67.158, 223.063 67.385, 223.750 67.662 M 62.250 76.749 C 74.213 76.908, 93.788 76.908, 105.750 76.749 C 117.713 76.589, 107.925 76.459, 84 76.459 C 60.075 76.459, 50.288 76.589, 62.250 76.749 M 162.872 82.750 C 161.629 84.336, 161.664 84.371, 163.250 83.128 C 164.213 82.373, 165 81.585, 165 81.378 C 165 80.555, 164.179 81.084, 162.872 82.750 M 158.872 85.750 C 157.629 87.336, 157.664 87.371, 159.250 86.128 C 160.213 85.373, 161 84.585, 161 84.378 C 161 83.555, 160.179 84.084, 158.872 85.750 M 210.750 86.706 C 211.988 86.944, 214.012 86.944, 215.250 86.706 C 216.488 86.467, 215.475 86.272, 213 86.272 C 210.525 86.272, 209.512 86.467, 210.750 86.706 M 41 104.500 L 41 122 84 122 L 127 122 127 104.500 L 127 87 84 87 L 41 87 41 104.500 M 137.389 99.500 C 137.390 106.650, 137.550 109.444, 137.742 105.708 C 137.935 101.973, 137.934 96.123, 137.739 92.708 C 137.545 89.294, 137.387 92.350, 137.389 99.500 M 201.813 87.683 C 202.534 87.972, 203.397 87.936, 203.729 87.604 C 204.061 87.272, 203.471 87.036, 202.417 87.079 C 201.252 87.127, 201.015 87.364, 201.813 87.683 M 222.813 87.683 C 223.534 87.972, 224.397 87.936, 224.729 87.604 C 225.061 87.272, 224.471 87.036, 223.417 87.079 C 222.252 87.127, 222.015 87.364, 222.813 87.683 M 204.750 98.662 C 205.438 98.940, 206.563 98.940, 207.250 98.662 C 207.938 98.385, 207.375 98.158, 206 98.158 C 204.625 98.158, 204.063 98.385, 204.750 98.662 M 219.269 98.693 C 220.242 98.947, 221.592 98.930, 222.269 98.656 C 222.946 98.382, 222.150 98.175, 220.500 98.195 C 218.850 98.215, 218.296 98.439, 219.269 98.693 M 252 99.378 C 252 99.585, 252.787 100.373, 253.750 101.128 C 255.336 102.371, 255.371 102.336, 254.128 100.750 C 252.821 99.084, 252 98.555, 252 99.378 M 170.872 101.750 C 169.629 103.336, 169.664 103.371, 171.250 102.128 C 172.213 101.373, 173 100.585, 173 100.378 C 173 99.555, 172.179 100.084, 170.872 101.750 M 11 119.403 L 11 136.807 16.001 137.153 L 21.001 137.500 21.001 119.750 L 21 102 16 102 L 11 102 11 119.403 M 259 105.500 C 260.866 107.425, 262.617 109, 262.892 109 C 263.167 109, 261.866 107.425, 260 105.500 C 258.134 103.575, 256.383 102, 256.108 102 C 255.833 102, 257.134 103.575, 259 105.500 M 244 107.378 C 244 107.585, 244.787 108.373, 245.750 109.128 C 247.336 110.371, 247.371 110.336, 246.128 108.750 C 244.821 107.084, 244 106.555, 244 107.378 M 178.872 109.750 C 177.629 111.336, 177.664 111.371, 179.250 110.128 C 180.213 109.373, 181 108.585, 181 108.378 C 181 107.555, 180.179 108.084, 178.872 109.750 M 161.405 111.250 L 159.500 113.500 161.750 111.595 C 162.988 110.547, 164 109.535, 164 109.345 C 164 108.545, 163.195 109.136, 161.405 111.250 M 251 113.500 C 252.866 115.425, 254.617 117, 254.892 117 C 255.167 117, 253.866 115.425, 252 113.500 C 250.134 111.575, 248.383 110, 248.108 110 C 247.833 110, 249.134 111.575, 251 113.500 M 264 111.378 C 264 111.585, 264.788 112.373, 265.750 113.128 C 267.336 114.371, 267.371 114.336, 266.128 112.750 C 264.821 111.084, 264 110.555, 264 111.378 M 157.872 115.750 C 156.629 117.336, 156.664 117.371, 158.250 116.128 C 159.213 115.373, 160 114.585, 160 114.378 C 160 113.555, 159.179 114.084, 157.872 115.750 M 168.872 119.750 C 167.629 121.336, 167.664 121.371, 169.250 120.128 C 170.213 119.373, 171 118.585, 171 118.378 C 171 117.555, 170.179 118.084, 168.872 119.750 M 256 119.378 C 256 119.585, 256.788 120.373, 257.750 121.128 C 259.336 122.371, 259.371 122.336, 258.128 120.750 C 256.821 119.084, 256 118.555, 256 119.378 M 208.389 135.500 C 208.390 142.650, 208.550 145.444, 208.742 141.708 C 208.935 137.973, 208.934 132.123, 208.739 128.708 C 208.545 125.294, 208.387 128.350, 208.389 135.500 M 41 150 L 41 168 83.872 168 L 126.744 168 127.165 164.250 C 127.553 160.790, 127.551 150.100, 127.160 137.250 L 127 132 84 132 L 41 132 41 150 M 128.079 137.583 C 128.127 138.748, 128.364 138.985, 128.683 138.188 C 128.972 137.466, 128.936 136.603, 128.604 136.271 C 128.272 135.939, 128.036 136.529, 128.079 137.583 M 159.079 141.583 C 159.127 142.748, 159.364 142.985, 159.683 142.188 C 159.972 141.466, 159.936 140.603, 159.604 140.271 C 159.272 139.939, 159.036 140.529, 159.079 141.583 M 278.158 144 C 278.158 145.375, 278.385 145.938, 278.662 145.250 C 278.940 144.563, 278.940 143.438, 278.662 142.750 C 278.385 142.063, 278.158 142.625, 278.158 144 M 147.195 146.500 C 147.215 148.150, 147.439 148.704, 147.693 147.731 C 147.947 146.758, 147.930 145.408, 147.656 144.731 C 147.382 144.054, 147.175 144.850, 147.195 146.500 M 1.872 146.250 C 3.024 147.719, 4.711 147.967, 12.372 147.794 L 21.500 147.589 12.552 147.253 C 7.605 147.067, 2.910 146.376, 2.052 145.708 C 0.688 144.647, 0.666 144.712, 1.872 146.250 M 267.336 153 C 267.336 157.125, 267.513 158.813, 267.728 156.750 C 267.944 154.688, 267.944 151.313, 267.728 149.250 C 267.513 147.188, 267.336 148.875, 267.336 153 M 158.310 152.500 C 158.315 155.800, 158.502 157.029, 158.725 155.232 C 158.947 153.435, 158.943 150.735, 158.715 149.232 C 158.486 147.729, 158.304 149.200, 158.310 152.500 M 242 148.393 C 242 148.609, 242.698 149.054, 243.552 149.382 C 244.442 149.723, 244.843 149.555, 244.493 148.989 C 243.906 148.038, 242 147.583, 242 148.393 M 180.158 153 C 180.158 154.375, 180.385 154.938, 180.662 154.250 C 180.940 153.563, 180.940 152.438, 180.662 151.750 C 180.385 151.063, 180.158 151.625, 180.158 153 M 244.100 156.295 C 242.835 158.402, 242.857 158.423, 244.579 156.774 C 245.570 155.824, 246.166 154.832, 245.903 154.569 C 245.640 154.306, 244.829 155.083, 244.100 156.295 M 147.195 159.500 C 147.215 161.150, 147.439 161.704, 147.693 160.731 C 147.947 159.758, 147.930 158.408, 147.656 157.731 C 147.382 157.054, 147.175 157.850, 147.195 159.500 M 195.967 158.732 L 207.937 159.061 208.268 170.532 L 208.600 182.003 208.550 170.252 L 208.500 158.500 196.248 158.452 L 183.997 158.404 195.967 158.732 M 224.789 158.741 C 228.248 158.937, 233.648 158.936, 236.789 158.738 C 239.930 158.540, 237.100 158.380, 230.500 158.382 C 223.900 158.384, 221.330 158.546, 224.789 158.741 M 278.158 161 C 278.158 162.375, 278.385 162.938, 278.662 162.250 C 278.940 161.563, 278.940 160.438, 278.662 159.750 C 278.385 159.063, 278.158 159.625, 278.158 161 M 159.079 163.583 C 159.127 164.748, 159.364 164.985, 159.683 164.188 C 159.972 163.466, 159.936 162.603, 159.604 162.271 C 159.272 161.939, 159.036 162.529, 159.079 163.583 M 128.079 167.583 C 128.127 168.748, 128.364 168.985, 128.683 168.188 C 128.972 167.466, 128.936 166.603, 128.604 166.271 C 128.272 165.939, 128.036 166.529, 128.079 167.583 M 129.079 172.583 C 129.127 173.748, 129.364 173.985, 129.683 173.188 C 129.972 172.466, 129.936 171.603, 129.604 171.271 C 129.272 170.939, 129.036 171.529, 129.079 172.583 M 31 175.378 C 31 175.585, 31.788 176.373, 32.750 177.128 C 34.336 178.371, 34.371 178.336, 33.128 176.750 C 31.821 175.084, 31 174.555, 31 175.378 M 261.144 177.750 C 260.053 180.300, 260.078 180.359, 261.484 178.559 C 262.318 177.491, 263 176.254, 263 175.809 C 263 174.289, 262.322 174.999, 261.144 177.750 M 217.100 183.295 C 215.835 185.402, 215.857 185.423, 217.579 183.774 C 218.570 182.824, 219.166 181.832, 218.903 181.569 C 218.640 181.306, 217.829 182.083, 217.100 183.295 M 256.872 184.750 C 255.629 186.336, 255.664 186.371, 257.250 185.128 C 258.212 184.373, 259 183.585, 259 183.378 C 259 182.555, 258.179 183.084, 256.872 184.750 M 168 184.378 C 168 184.585, 168.787 185.373, 169.750 186.128 C 171.336 187.371, 171.371 187.336, 170.128 185.750 C 168.821 184.084, 168 183.555, 168 184.378 M 251.453 191.250 L 247.500 195.500 251.750 191.547 C 255.702 187.871, 256.460 187, 255.703 187 C 255.540 187, 253.627 188.912, 251.453 191.250 M 174 191.500 C 175.292 192.875, 176.574 194, 176.849 194 C 177.124 194, 176.292 192.875, 175 191.500 C 173.708 190.125, 172.426 189, 172.151 189 C 171.876 189, 172.708 190.125, 174 191.500 M 264.872 192.750 C 263.629 194.336, 263.664 194.371, 265.250 193.128 C 266.212 192.373, 267 191.585, 267 191.378 C 267 190.555, 266.179 191.084, 264.872 192.750 M 160 192.378 C 160 192.585, 160.787 193.373, 161.750 194.128 C 163.336 195.371, 163.371 195.336, 162.128 193.750 C 160.821 192.084, 160 191.555, 160 192.378 M 179 195.378 C 179 195.585, 179.787 196.373, 180.750 197.128 C 182.336 198.371, 182.371 198.336, 181.128 196.750 C 179.821 195.084, 179 194.555, 179 195.378 M 258.946 199.750 L 255.500 203.500 259.250 200.054 C 262.740 196.846, 263.460 196, 262.696 196 C 262.529 196, 260.842 197.688, 258.946 199.750 M 165.500 199 C 166.495 200.100, 167.535 201, 167.810 201 C 168.085 201, 167.495 200.100, 166.500 199 C 165.505 197.900, 164.465 197, 164.190 197 C 163.915 197, 164.505 197.900, 165.500 199 M 183 198.430 C 183 198.705, 183.900 199.411, 185 200 C 186.100 200.589, 187 200.845, 187 200.570 C 187 200.295, 186.100 199.589, 185 199 C 183.900 198.411, 183 198.155, 183 198.430 M 171.500 204 C 172.495 205.100, 173.535 206, 173.810 206 C 174.085 206, 173.495 205.100, 172.500 204 C 171.505 202.900, 170.465 202, 170.190 202 C 169.915 202, 170.505 202.900, 171.500 204 M 203.813 206.683 C 204.534 206.972, 205.397 206.936, 205.729 206.604 C 206.061 206.272, 205.471 206.036, 204.417 206.079 C 203.252 206.127, 203.015 206.364, 203.813 206.683 M 220.750 206.662 C 221.438 206.940, 222.563 206.940, 223.250 206.662 C 223.938 206.385, 223.375 206.158, 222 206.158 C 220.625 206.158, 220.063 206.385, 220.750 206.662 M 200.813 217.683 C 201.534 217.972, 202.397 217.936, 202.729 217.604 C 203.061 217.272, 202.471 217.036, 201.417 217.079 C 200.252 217.127, 200.015 217.364, 200.813 217.683 M 223.813 217.683 C 224.534 217.972, 225.397 217.936, 225.729 217.604 C 226.061 217.272, 225.471 217.036, 224.417 217.079 C 223.252 217.127, 223.015 217.364, 223.813 217.683 M 209.750 218.723 C 211.537 218.945, 214.463 218.945, 216.250 218.723 C 218.037 218.502, 216.575 218.320, 213 218.320 C 209.425 218.320, 207.963 218.502, 209.750 218.723" stroke="none" fill="#e8e8e8" fill-rule="evenodd"/><path d="M -0 2.191 C -0 4.118, 0.151 4.192, 1.250 2.806 C 1.938 1.939, 3.175 0.989, 4 0.694 C 4.829 0.398, 4.270 0.123, 2.750 0.079 C 0.563 0.016, -0 0.448, -0 2.191 M 195.777 1.557 C 197.792 2.968, 198 3.949, 198 12.057 L 198 21 147 21 L 96 21 96 16 L 96 11 53.500 11 L 11 11 11 28.500 L 11 46 16 46 L 21 46 21 97 L 21 148 12.057 148 C 3.949 148, 2.968 147.792, 1.557 145.777 C 0.136 143.749, 0 146.851, 0 181.277 L 0 219 103.750 218.884 C 160.813 218.820, 206.600 218.591, 205.500 218.374 C 204.400 218.158, 201.025 217.496, 198 216.905 C 190.369 215.413, 177.608 209.046, 170.751 203.310 C 141.934 179.201, 139.024 135.153, 164.467 108.183 C 172.412 99.760, 179.826 94.629, 189.444 90.898 C 213.163 81.695, 240.725 87.282, 259.026 105.004 C 267.996 113.690, 273.883 124.035, 277.518 137.500 C 278.687 141.830, 278.877 132.948, 278.934 71.250 L 279 0 236.277 0 C 197.325 0, 193.751 0.137, 195.777 1.557 M 31.872 32.653 C 29.909 35.019, 29.345 171.202, 31.283 175 L 32.559 177.500 81.779 177.759 C 108.851 177.902, 131 177.818, 131 177.571 C 131 177.325, 130.257 174.059, 129.348 170.312 C 125.656 155.084, 127.700 134.982, 134.607 118.606 C 137.817 110.995, 138 109.925, 138 98.780 L 138 87 148.106 87 C 157.925 87, 158.325 86.911, 162.173 83.863 C 169.001 78.455, 184.585 71.062, 193.823 68.849 C 201.112 67.102, 204.619 66.848, 215.750 67.258 L 229 67.747 229 51.596 C 229 38.597, 228.696 35.011, 227.443 33.223 L 225.887 31 129.566 31 C 41.199 31, 33.132 31.137, 31.872 32.653 M 41 59 L 41 76 84 76 L 127 76 127 59 L 127 42 84 42 L 41 42 41 59 M 205.500 98.637 C 193.382 100.490, 183.334 105.621, 174.535 114.446 C 164.111 124.903, 159 137.422, 159 152.500 C 159 200.812, 216.953 225.073, 251.115 191.062 C 258.091 184.117, 263.261 175.373, 265.637 166.500 C 267.395 159.938, 267.347 144.893, 265.547 138.131 C 261.037 121.186, 246.710 106.079, 230.359 101.029 C 223.864 99.023, 211.042 97.789, 205.500 98.637 M 209.035 121.934 C 208.466 122.998, 208 129.298, 208 135.934 L 208 148 195.571 148 C 185.606 148, 182.831 148.311, 181.571 149.571 C 179.431 151.712, 179.598 154.598, 182 157 C 183.778 158.778, 185.333 159, 196 159 L 208 159 208 169.918 C 208 175.923, 208.286 181.583, 208.636 182.495 C 209.690 185.242, 213.896 186.298, 216.635 184.504 C 218.904 183.017, 219 182.467, 219 170.977 L 219 159 230.277 159 C 238.866 159, 242.085 158.629, 243.777 157.443 C 246.177 155.763, 246.612 153.012, 244.965 149.934 C 244.026 148.181, 242.765 148, 231.465 148 L 219 148 219 135.934 C 219 129.298, 218.534 122.998, 217.965 121.934 C 217.250 120.599, 215.867 120, 213.500 120 C 211.133 120, 209.750 120.599, 209.035 121.934 M 277.246 168.563 C 273.432 186.747, 258.455 204.503, 239.846 212.903 C 234.339 215.388, 231.307 216.246, 220.500 218.374 C 219.400 218.591, 232.113 218.820, 248.750 218.884 L 279 219 279 191 C 279 175.600, 278.868 163, 278.706 163 C 278.545 163, 277.888 165.503, 277.246 168.563" stroke="none" fill="#ffffff" fill-rule="evenodd"/><path d="M 2.200 2.200 C 0.464 3.936, 0.464 144.064, 2.200 145.800 C 2.953 146.553, 6.701 147, 12.255 147 L 21.110 147 20.805 142.250 L 20.500 137.500 15.750 137.195 L 11 136.890 11 119.445 L 11 102 16 102 L 21 102 21 97 L 21 92 16 92 L 11 92 11 74 L 11 56 16.055 56 L 21.110 56 20.805 51.250 L 20.500 46.500 15.750 46.195 L 11 45.890 11 28.445 L 11 11 54 11 L 97 11 97 16 L 97 21 102 21 L 107 21 107 16 L 107 11 124.500 11 L 142 11 142 16 L 142 21 147 21 L 152 21 152 16 L 152 11 170 11 L 188 11 188 16 L 188 21 193 21 L 198 21 198 12.571 C 198 6.242, 197.609 3.751, 196.429 2.571 C 195.022 1.165, 184.821 1, 99.129 1 C 26.006 1, 3.117 1.283, 2.200 2.200 M 32.655 32.829 C 31.148 34.494, 31 40.926, 31 104.674 C 31 171.234, 31.090 174.772, 32.829 176.345 C 34.477 177.837, 39.412 178, 82.888 178 C 115.085 178, 130.911 177.664, 130.494 176.991 C 130.151 176.435, 129.267 172.948, 128.529 169.241 C 127.791 165.533, 127.146 163.738, 127.094 165.250 L 127 168 84 168 L 41 168 41 150 L 41 132 84 132 L 127 132 127.082 137.250 L 127.163 142.500 128.648 135.500 C 129.464 131.650, 131.678 124.619, 133.566 119.876 C 136.815 111.717, 137 110.599, 137 99.126 L 137 87 147.106 87 C 156.683 87, 157.403 86.851, 160.856 84.163 C 162.860 82.603, 165.991 80.466, 167.814 79.413 L 171.128 77.500 154.314 77 L 137.500 76.500 137.227 58.750 L 136.954 41 154.977 41 L 173 41 173 58.500 C 173 68.125, 173.213 76, 173.473 76 C 173.734 76, 175.984 75.010, 178.473 73.801 L 183 71.601 183 56.301 L 183 41 200.500 41 L 218 41 218 53.903 L 218 66.807 223.001 67.153 L 228.001 67.500 228.001 50.905 C 228 36.098, 227.803 34.132, 226.171 32.655 C 224.497 31.139, 216.337 31, 129.326 31 C 38.546 31, 34.236 31.082, 32.655 32.829 M 41 59 L 41 77 84 77 L 127 77 127 59 L 127 41 84 41 L 41 41 41 59 M 41 104.500 L 41 122 84 122 L 127 122 127 104.500 L 127 87 84 87 L 41 87 41 104.500 M 200.500 87.954 C 194.343 89.286, 183.732 93.514, 178.877 96.570 C 164.244 105.782, 153.706 119.931, 149.451 136.080 C 147.372 143.971, 147.110 159.511, 148.930 167 C 154.717 190.814, 173.481 210.113, 196.596 216.025 C 230.018 224.572, 264.893 205.461, 275.628 172.715 C 277.933 165.685, 278.327 162.770, 278.357 152.500 C 278.388 141.651, 278.101 139.673, 275.360 131.882 C 268.337 111.912, 252.267 95.970, 233.015 89.872 C 225.742 87.568, 207.312 86.481, 200.500 87.954 M 199.348 99.420 C 188.783 101.982, 178.142 108.854, 170.416 118.101 C 152.874 139.098, 154.622 171.511, 174.362 191.251 C 185.304 202.193, 197.259 207, 213.529 207 C 228.995 207, 240.978 202.017, 252.007 191 C 281.693 161.345, 267.728 110.326, 226.955 99.475 C 220.386 97.727, 206.441 97.699, 199.348 99.420 M 210.200 121.200 C 209.392 122.008, 209 126.578, 209 135.200 L 209 148 196.934 148 C 190.298 148, 183.998 148.466, 182.934 149.035 C 180.685 150.239, 180.293 155.169, 182.314 156.845 C 183.061 157.465, 188.989 158.057, 196.064 158.218 L 208.500 158.500 208.783 170.438 C 208.942 177.140, 209.544 182.951, 210.156 183.688 C 211.844 185.722, 215.720 185.238, 217.443 182.777 C 218.629 181.085, 219 177.866, 219 169.277 L 219 158 230.943 158 C 242.152 158, 242.982 157.863, 244.443 155.777 C 246.447 152.917, 246.408 152.408, 244 150 C 242.232 148.232, 240.667 148, 230.500 148 L 219 148 219 136.223 C 219 127.181, 218.638 123.929, 217.443 122.223 C 215.750 119.805, 212.109 119.291, 210.200 121.200" stroke="none" fill="#4795da" fill-rule="evenodd"/></svg>