<svg width="18" height="18" viewBox="0 0 18 18" xmlns="http://www.w3.org/2000/svg">
	<path d="M9.00016 16.0712C8.02199 17.0493 6.84348 17.5384 5.46462 17.5384C4.08576 17.5384 2.90725 17.0493 1.92909 16.0712C0.950924 15.093 0.461842 13.9145 0.461842 12.5356C0.461842 11.1568 0.950924 9.97827 1.92909 9.00011L4.05041 6.87879C4.25076 6.67844 4.48646 6.57827 4.75752 6.57827C5.02857 6.57827 5.26428 6.67844 5.46462 6.87879C5.66497 7.07914 5.76514 7.31484 5.76514 7.5859C5.76514 7.85695 5.66497 8.09266 5.46462 8.293L3.3433 10.4143C2.75405 11.0036 2.45942 11.7107 2.45942 12.5356C2.45942 13.3606 2.75405 14.0677 3.3433 14.657C3.93256 15.2462 4.63966 15.5408 5.46462 15.5408C6.28958 15.5408 6.99669 15.2462 7.58594 14.657L9.70726 12.5356C9.90761 12.3353 10.1433 12.2351 10.4144 12.2351C10.6854 12.2351 10.9211 12.3353 11.1215 12.5356C11.3218 12.736 11.422 12.9717 11.422 13.2428C11.422 13.5138 11.3218 13.7495 11.1215 13.9499L9.00016 16.0712ZM7.58594 11.8285C7.3856 12.0289 7.14989 12.1291 6.87884 12.1291C6.60778 12.1291 6.37208 12.0289 6.17173 11.8285C5.97138 11.6282 5.87121 11.3925 5.87121 11.1214C5.87121 10.8504 5.97138 10.6147 6.17173 10.4143L10.4144 6.17168C10.6147 5.97134 10.8504 5.87116 11.1215 5.87116C11.3925 5.87116 11.6282 5.97134 11.8286 6.17168C12.0289 6.37203 12.1291 6.60773 12.1291 6.87879C12.1291 7.14985 12.0289 7.38555 11.8286 7.5859L7.58594 11.8285ZM13.9499 11.1214C13.7496 11.3218 13.5139 11.422 13.2428 11.422C12.9717 11.422 12.736 11.3218 12.5357 11.1214C12.3353 10.9211 12.2352 10.6854 12.2352 10.4143C12.2352 10.1433 12.3353 9.90756 12.5357 9.70722L14.657 7.5859C15.2463 6.99664 15.5409 6.28953 15.5409 5.46458C15.5409 4.63962 15.2463 3.93251 14.657 3.34326C14.0678 2.754 13.3606 2.45937 12.5357 2.45937C11.7107 2.45937 11.0036 2.754 10.4144 3.34326L8.29305 5.46458C8.0927 5.66492 7.857 5.7651 7.58594 5.7651C7.31489 5.7651 7.07918 5.66492 6.87884 5.46458C6.67849 5.26423 6.57832 5.02853 6.57832 4.75747C6.57832 4.48641 6.67849 4.25071 6.87884 4.05036L9.00016 1.92904C9.97832 0.950878 11.1568 0.461796 12.5357 0.461796C13.9145 0.461796 15.0931 0.950878 16.0712 1.92904C17.0494 2.90721 17.5385 4.08572 17.5385 5.46458C17.5385 6.84343 17.0494 8.02195 16.0712 9.00011L13.9499 11.1214Z" />
</svg>