<svg width="18" height="13" viewBox="0 0 18 13" fill="none" xmlns="http://www.w3.org/2000/svg">
<path d="M6.46069 9.30024L14.9692 0.808493C15.2344 0.547493 15.5492 0.416992 15.9137 0.416992C16.2784 0.416992 16.5913 0.547826 16.8524 0.809492C17.1136 1.07116 17.2442 1.38391 17.2442 1.74774C17.2442 2.11158 17.1136 2.42633 16.8524 2.69199L7.40244 12.1252C7.13728 12.3864 6.82236 12.517 6.45769 12.517C6.09303 12.517 5.78019 12.3864 5.51919 12.1252L1.10244 7.70849C0.841277 7.44233 0.710693 7.12716 0.710693 6.76299C0.710693 6.39899 0.84161 6.08641 1.10344 5.82524C1.36511 5.56408 1.67786 5.43349 2.04169 5.43349C2.40553 5.43349 2.72019 5.56408 2.98569 5.82524L6.46069 9.30024Z" fill="#0085F4"/>
</svg>
