<svg version="1.0" xmlns="http://www.w3.org/2000/svg" width="828.000000pt" height="696.000000pt" viewBox="0 0 828.000000 696.000000" preserveAspectRatio="xMidYMid meet">
	<g transform="translate(0.000000,696.000000) scale(0.100000,-0.100000)" stroke="none">
		<path d="M1800 6953 c-147 -12 -313 -59 -452 -129 -132 -66 -202 -116 -309 -223 -181 -182 -283 -374 -325 -612 -23 -136 -15 -341 19 -471 98 -372 382 -674 759 -807 360 -126 779 -75 1092 133 615 410 703 1237 186 1756 -200 201 -453 319 -749 349 -101 11 -129 11 -221 4z" />
		<path d="M6290 6954 c-188 -21 -326 -61 -474 -137 -270 -138 -478 -373 -574 -647 -106 -303 -74 -652 84 -925 60 -102 99 -154 182 -239 330 -337 820 -450 1287 -295 315 105 596 370 714 674 63 162 76 235 75 425 -1 145 -4 177 -28 265 -53 201 -185 420 -333 555 -169 154 -394 267 -608 305 -86 15 -268 25 -325 19z" />
		<path d="M3934 4955 c-179 -32 -390 -122 -530 -227 -207 -155 -365 -387 -431 -635 -24 -88 -27 -116 -27 -278 -1 -167 1 -187 27 -279 118 -426 436 -732 877 -844 97 -25 120 -27 300 -26 177 0 204 3 290 26 330 89 576 266 741 532 200 324 222 732 59 1070 -56 117 -114 199 -205 295 -170 179 -378 298 -615 352 -114 27 -373 34 -486 14z" />
		<path d="M472 4295 c-215 -47 -408 -237 -451 -443 -7 -33 -11 -198 -11 -441 0 -388 0 -389 26 -477 127 -441 483 -730 1056 -858 209 -47 396 -69 691 -82 130 -6 157 -4 157 7 0 8 15 49 34 91 131 301 426 516 761 557 50 6 166 11 258 11 l168 0 -75 65 c-179 156 -341 399 -416 623 -55 165 -73 280 -74 462 0 175 11 259 58 418 l24 82 -1072 -1 c-869 0 -1083 -3 -1134 -14z" />
		<path d="M5614 4293 c70 -181 98 -510 62 -713 -60 -333 -230 -638 -478 -856 l-67 -59 217 -6 c317 -9 448 -45 637 -172 158 -107 300 -291 355 -461 l12 -39 182 7 c307 11 508 35 721 86 578 138 914 434 1010 891 22 102 21 796 0 887 -39 164 -154 308 -312 387 -128 64 -41 59 -1247 62 -1049 3 -1098 3 -1092 -14z" />
		<path d="M2775 2320 c-192 -22 -372 -144 -459 -309 -64 -122 -66 -141 -66 -576 0 -457 2 -471 100 -670 148 -304 412 -508 818 -631 262 -79 514 -113 897 -121 401 -8 713 21 989 92 521 134 827 390 953 800 l27 90 4 401 c4 445 0 478 -60 603 -43 89 -168 214 -258 258 -148 73 -34 67 -1535 69 -742 1 -1377 -2 -1410 -6z" />
	</g>
</svg>
