<svg width="20" height="20" viewBox="0 0 20 20" fill="none" xmlns="http://www.w3.org/2000/svg">
<path d="M10 11.801L2.18569 19.6154C1.92925 19.8718 1.62907 20 1.28516 20C0.941241 20 0.641063 19.8718 0.384623 19.6154C0.128208 19.3589 0 19.0588 0 18.7148C0 18.3709 0.128208 18.0708 0.384623 17.8143L8.19897 10L0.384623 2.18569C0.128208 1.92925 0 1.62907 0 1.28516C0 0.941241 0.128208 0.641063 0.384623 0.384623C0.641063 0.128208 0.941241 0 1.28516 0C1.62907 0 1.92925 0.128208 2.18569 0.384623L10 8.19897L17.8143 0.384623C18.0708 0.128208 18.3709 0 18.7148 0C19.0588 0 19.3589 0.128208 19.6154 0.384623C19.8718 0.641063 20 0.941241 20 1.28516C20 1.62907 19.8718 1.92925 19.6154 2.18569L11.801 10L19.6154 17.8143C19.8718 18.0708 20 18.3709 20 18.7148C20 19.0588 19.8718 19.3589 19.6154 19.6154C19.3589 19.8718 19.0588 20 18.7148 20C18.3709 20 18.0708 19.8718 17.8143 19.6154L10 11.801Z" fill="#367BCF"/>
</svg>
