<svg width="19" height="18" viewBox="0 0 19 18" fill="none" xmlns="http://www.w3.org/2000/svg">
<path d="M9.61427 10.8512L16.2426 17.4795C16.4903 17.7271 16.7813 17.8513 17.1157 17.852C17.4501 17.8527 17.7407 17.7298 17.9873 17.4831C18.234 17.2364 18.3562 16.9466 18.3541 16.6137C18.3519 16.2807 18.227 15.9904 17.9793 15.7427L11.351 9.11441L18.0995 2.36588C18.3456 2.11984 18.4678 1.82961 18.4663 1.4952C18.4648 1.16079 18.2866 0.816164 18.0383 0.56785C17.79 0.319536 17.444 0.140025 17.1111 0.139949C16.7781 0.139873 16.4886 0.26285 16.2426 0.50889L9.49403 7.25742L2.75716 0.520542C2.50947 0.272852 2.21842 0.148657 1.88401 0.147955C1.5496 0.147252 1.25907 0.270229 1.01241 0.516889C0.765748 0.763549 0.643493 1.05336 0.645643 1.38632C0.647793 1.71928 0.772713 2.0096 1.0204 2.2573L7.75728 8.99417L1.00875 15.7427C0.762712 15.9887 0.64046 16.279 0.641993 16.6134C0.643525 16.9478 0.823766 17.2945 1.07208 17.5428C1.32039 17.7911 1.66429 17.9686 1.99725 17.9686C2.3302 17.9687 2.6197 17.8457 2.86574 17.5997L9.61427 10.8512Z" fill="#A1A6AB"/>
</svg>
