<svg width="18" height="19" viewBox="0 0 18 19" fill="none" xmlns="http://www.w3.org/2000/svg">
<path d="M8.99964 11.0361L1.86048 18.1754C1.64765 18.3882 1.39079 18.4946 1.08987 18.4946C0.788979 18.4946 0.53211 18.3882 0.319266 18.1754C0.106422 17.9625 0 17.7056 0 17.4048C0 17.1038 0.106422 16.847 0.319266 16.6342L7.45843 9.49491L0.322742 2.36048C0.109898 2.14765 0.00347534 1.89079 0.00347534 1.58987C0.00347534 1.28898 0.109898 1.03211 0.322742 0.819266C0.535586 0.606422 0.792454 0.5 1.09335 0.5C1.39426 0.5 1.65113 0.606422 1.86395 0.819266L8.99964 7.9537L16.1369 0.820273C16.3497 0.607429 16.6066 0.501007 16.9075 0.501007C17.2084 0.501007 17.4653 0.607429 17.6781 0.820273C17.891 1.03312 17.9974 1.28999 17.9974 1.59088C17.9974 1.89179 17.891 2.14866 17.6781 2.36148L10.5408 9.49491L17.6807 16.6348C17.8936 16.8476 18 17.1045 18 17.4054C18 17.7063 17.8936 17.9632 17.6807 18.176C17.4679 18.3889 17.211 18.4953 16.9101 18.4953C16.6092 18.4953 16.3523 18.3889 16.1395 18.176L8.99964 11.0361Z" fill="#2D2F30"/>
</svg>
