<svg width="20" height="24" viewBox="0 0 20 24" xmlns="http://www.w3.org/2000/svg">
<path clip-rule="evenodd" d="M9.25479 14.6604L9.25816 20.8352H5.93543C5.74772 20.8352 5.59048 20.8972 5.46372 21.0214C5.33696 21.1455 5.27358 21.3022 5.27358 21.4915C5.27358 21.6808 5.33696 21.8393 5.46372 21.9671C5.59048 22.095 5.74772 22.1589 5.93543 22.1589H13.9046C14.0923 22.1589 14.2495 22.0968 14.3763 21.9726C14.5031 21.8485 14.5664 21.6918 14.5664 21.5025C14.5664 21.3133 14.5031 21.1547 14.3763 21.0269C14.2495 20.8991 14.0923 20.8352 13.9046 20.8352H10.5819L10.5785 14.6604C11.6659 14.5138 12.6198 14.0804 13.4402 13.3602C14.2606 12.64 14.7927 11.746 15.0365 10.678C16.3707 10.5299 17.5037 9.99709 18.4355 9.07947C19.3674 8.16184 19.8333 7.04941 19.8333 5.74216V4.84027C19.8333 4.38332 19.6671 3.98864 19.3346 3.65622C19.0022 3.32379 18.6075 3.15758 18.1506 3.15758H15.2855V2.34092C15.2855 1.88397 15.1193 1.48929 14.7869 1.15687C14.4545 0.824425 14.0598 0.658203 13.6028 0.658203H6.23044C5.77349 0.658203 5.37881 0.824425 5.04639 1.15687C4.71397 1.48929 4.54775 1.88397 4.54775 2.34092V3.15758H1.68271C1.22577 3.15758 0.831085 3.32379 0.498663 3.65622C0.166221 3.98864 0 4.38332 0 4.84027V5.74216C0 7.04941 0.465918 8.16184 1.39775 9.07947C2.32959 9.99709 3.4626 10.5299 4.79678 10.678C5.04057 11.746 5.57268 12.64 6.3931 13.3602C7.2135 14.0804 8.1674 14.5138 9.25479 14.6604ZM4.54775 4.48126V9.28926C3.62788 9.14718 2.86057 8.74671 2.24583 8.08783C1.63108 7.42896 1.3237 6.64706 1.3237 5.74216V4.84027C1.3237 4.74302 1.35736 4.65888 1.42467 4.58783C1.49199 4.51678 1.578 4.48126 1.68271 4.48126H4.54775ZM12.7705 12.2008C11.9912 12.9865 11.0431 13.3793 9.92615 13.3793C8.80918 13.3793 7.8579 12.9865 7.07231 12.2008C6.28669 11.4151 5.89388 10.461 5.89388 9.33861V2.34092C5.89388 2.23621 5.92941 2.1502 6.00046 2.08288C6.07151 2.01556 6.15565 1.9819 6.25287 1.9819H13.5804C13.6776 1.9819 13.7618 2.01556 13.8328 2.08288C13.9039 2.1502 13.9394 2.23621 13.9394 2.34092V9.33861C13.9394 10.461 13.5498 11.4151 12.7705 12.2008ZM17.5874 8.08783C16.9727 8.74671 16.2054 9.14718 15.2855 9.28926V4.48126H18.1506C18.2553 4.48126 18.3413 4.51678 18.4086 4.58783C18.4759 4.65888 18.5096 4.74302 18.5096 4.84027V5.74216C18.5096 6.64706 18.2022 7.42896 17.5874 8.08783Z" />
<path d="M4.65337 22.6234C4.29438 22.6234 4.00337 22.9144 4.00337 23.2734C4.00337 23.6324 4.29438 23.9234 4.65337 23.9234H15.3534C15.7124 23.9234 16.0034 23.6324 16.0034 23.2734C16.0034 22.9144 15.7124 22.6234 15.3534 22.6234H4.65337Z" />
</svg>
