<svg version="1.0" fill="#367BCF" xmlns="http://www.w3.org/2000/svg" width="625.000000pt" height="608.000000pt" viewBox="0 0 625.000000 608.000000" preserveAspectRatio="xMidYMid meet">
	<g transform="translate(0.000000,608.000000) scale(0.100000,-0.100000)" fill="#367BCF" stroke="none">
		<path d="M1830 6069 c-173 -28 -339 -186 -379 -360 -6 -24 -11 -113 -11 -196 l0 -153 -457 0 c-512 0 -540 -3 -664 -65 -138 -70 -261 -224 -299 -375 -17 -68 -24 -453 -11 -630 18 -247 54 -386 156 -595 238 -486 720 -808 1273 -851 89 -6 94 -8 104 -33 101 -244 209 -412 372 -580 200 -205 409 -337 686 -431 l135 -46 0 -379 0 -380 -295 -5 -295 -5 -55 -31 c-90 -50 -140 -140 -140 -251 l0 -53 -52 0 c-118 0 -205 -51 -255 -148 l-33 -64 0 -214 0 -214 1516 0 1515 0 -3 223 c-3 205 -5 225 -25 262 -50 95 -153 155 -265 155 l-48 0 0 48 c0 112 -60 215 -155 265 -38 21 -55 22 -337 25 l-298 3 0 384 0 384 43 11 c422 107 814 409 1035 797 46 82 101 199 116 249 6 19 17 22 104 28 287 21 566 120 795 283 108 77 277 246 354 356 115 164 201 354 250 557 25 100 26 121 30 461 4 304 2 366 -11 420 -25 100 -74 187 -146 260 -71 72 -128 109 -229 148 l-66 26 -487 3 -488 3 0 144 c0 170 -10 227 -57 318 -66 125 -202 223 -343 246 -81 13 -2499 13 -2580 0z m2438 -1696 l-3 -1168 -27 -96 c-55 -202 -143 -361 -279 -503 -332 -350 -853 -451 -1313 -255 -170 72 -371 243 -479 406 -84 126 -143 273 -172 425 -13 69 -15 243 -15 1219 l0 1139 1145 0 1146 0 -3 -1167z m-2830 -255 l-3 -703 -65 3 c-335 16 -649 250 -770 574 -48 131 -52 168 -57 506 l-5 322 451 0 451 0 -2 -702z m4269 385 c-4 -239 -9 -335 -21 -385 -91 -391 -403 -663 -808 -703 l-68 -7 0 706 0 706 451 0 451 0 -5 -317z"/>
	</g>
</svg>
