<svg version="1.0" xmlns="http://www.w3.org/2000/svg"
 width="830.000000pt" height="832.000000pt" viewBox="0 0 830.000000 832.000000"
 preserveAspectRatio="xMidYMid meet" fill="#367BCF" width="20" height="20">
<g transform="translate(0.000000,832.000000) scale(0.100000,-0.100000)" stroke="none">
<path d="M3508 7669 c-402 -402 -618 -626 -618 -639 0 -15 7 -20 25 -20 14 0
25 5 25 10 0 6 11 10 25 10 14 0 25 -4 25 -10 0 -5 7 -10 15 -10 8 0 15 5 15
10 0 6 11 10 25 10 14 0 25 -4 25 -10 0 -5 7 -10 15 -10 8 0 15 5 15 10 0 16
2097 14 2104 -2 5 -10 7 -10 12 0 7 15 114 17 114 2 0 -5 11 -10 25 -10 20 0
25 5 25 25 0 14 -4 25 -10 25 -5 0 -10 7 -10 15 0 8 -7 15 -15 15 -8 0 -15 7
-15 15 0 8 -5 15 -11 15 -6 0 -17 6 -25 14 -8 8 -14 19 -14 25 0 6 -5 11 -11
11 -14 0 -39 25 -39 39 0 6 -7 11 -15 11 -8 0 -15 7 -15 15 0 8 -5 15 -11 15
-6 0 -17 6 -25 14 -8 8 -14 19 -14 25 0 6 -7 11 -15 11 -8 0 -15 7 -15 15 0 8
-5 15 -11 15 -14 0 -39 25 -39 39 0 6 -5 11 -11 11 -14 0 -39 25 -39 39 0 6
-7 11 -15 11 -8 0 -15 7 -15 15 0 8 -5 15 -11 15 -14 0 -39 25 -39 39 0 6 -7
11 -15 11 -8 0 -15 7 -15 15 0 8 -5 15 -11 15 -14 0 -39 25 -39 39 0 6 -5 11
-11 11 -14 0 -39 25 -39 39 0 6 -7 11 -15 11 -8 0 -15 7 -15 15 0 8 -5 15 -11
15 -14 0 -39 25 -39 39 0 6 -7 11 -15 11 -8 0 -15 7 -15 15 0 8 -5 15 -11 15
-14 0 -39 25 -39 39 0 6 -5 11 -11 11 -14 0 -39 25 -39 39 0 6 -7 11 -15 11
-8 0 -15 7 -15 15 0 8 -5 15 -11 15 -14 0 -39 25 -39 39 0 6 -7 11 -15 11 -8
0 -15 7 -15 15 0 8 -5 15 -11 15 -14 0 -39 25 -39 39 0 6 -5 11 -11 11 -14 0
-39 25 -39 39 0 6 -7 11 -15 11 -8 0 -15 7 -15 15 0 8 -5 15 -11 15 -14 0 -39
25 -39 39 0 6 -7 11 -15 11 -8 0 -15 7 -15 15 0 8 -5 15 -11 15 -14 0 -39 25
-39 39 0 6 -5 11 -11 11 -14 0 -39 25 -39 39 0 6 -7 11 -15 11 -8 0 -15 5 -15
10 0 6 -6 10 -12 9 -7 0 -291 -279 -630 -620z"/>
<path d="M7 6063 c-4 -3 -7 -145 -7 -315 l0 -308 4135 0 4135 0 0 315 0 315
-4128 0 c-2271 0 -4132 -3 -4135 -7z"/>
<path d="M6 4468 c-8 -30 -8 -592 0 -612 6 -15 379 -16 4135 -16 l4129 0 0
311 c0 256 -3 313 -14 325 -13 12 -577 14 -4129 14 l-4115 0 -6 -22z"/>
<path d="M0 2575 l0 -315 4135 0 4135 0 0 315 0 315 -4135 0 -4135 0 0 -315z"/>
<path d="M2890 1279 c0 -14 25 -39 39 -39 6 0 11 -7 11 -15 0 -8 7 -15 15 -15
8 0 15 -5 15 -11 0 -14 25 -39 39 -39 6 0 11 -7 11 -15 0 -8 5 -15 11 -15 14
0 39 -25 39 -39 0 -6 7 -11 15 -11 8 0 15 -5 15 -11 0 -14 25 -39 39 -39 6 0
11 -7 11 -15 0 -8 7 -15 15 -15 8 0 15 -5 15 -11 0 -14 25 -39 39 -39 6 0 11
-7 11 -15 0 -8 5 -15 11 -15 14 0 39 -25 39 -39 0 -6 7 -11 15 -11 8 0 15 -7
15 -15 0 -8 5 -15 11 -15 14 0 39 -25 39 -39 0 -6 7 -11 15 -11 8 0 15 -5 15
-11 0 -14 25 -39 39 -39 6 0 11 -7 11 -15 0 -8 5 -15 11 -15 14 0 39 -25 39
-39 0 -6 7 -11 15 -11 8 0 15 -5 15 -11 0 -14 25 -39 39 -39 6 0 11 -7 11 -15
0 -8 7 -15 15 -15 8 0 15 -5 15 -11 0 -14 25 -39 39 -39 6 0 11 -7 11 -15 0
-8 5 -15 11 -15 14 0 39 -25 39 -39 0 -6 7 -11 15 -11 8 0 15 -7 15 -15 0 -8
5 -15 11 -15 14 0 39 -25 39 -39 0 -6 5 -11 11 -11 14 0 39 -25 39 -39 0 -6 7
-11 15 -11 8 0 15 -7 15 -15 0 -8 5 -15 11 -15 14 0 39 -25 39 -39 0 -6 7 -11
15 -11 8 0 15 -5 15 -11 0 -14 25 -39 39 -39 6 0 11 -7 11 -15 0 -8 5 -15 11
-15 14 0 39 -25 39 -39 0 -6 7 -11 15 -11 8 0 15 -7 15 -15 0 -8 5 -15 11 -15
14 0 39 -25 39 -39 0 -6 5 -11 11 -11 14 0 69 55 69 69 0 6 5 11 11 11 14 0
69 55 69 69 0 6 5 11 11 11 14 0 39 25 39 39 0 6 5 11 11 11 14 0 149 135 149
149 0 6 5 11 11 11 14 0 39 25 39 39 0 6 7 11 15 11 8 0 15 7 15 15 0 8 5 15
11 15 14 0 119 105 119 119 0 6 5 11 11 11 14 0 39 25 39 39 0 6 5 11 11 11
14 0 149 135 149 149 0 6 5 11 11 11 14 0 39 25 39 39 0 6 5 11 10 11 14 0
200 186 200 199 0 6 5 11 10 11 14 0 150 136 150 150 0 5 4 10 10 10 12 0 50
32 50 42 0 5 -562 8 -1250 8 -882 0 -1250 -3 -1250 -11z"/>
</g>
</svg>
