<svg width="27" height="9" viewBox="0 0 27 9" fill="none" xmlns="http://www.w3.org/2000/svg">
<path d="M1.35 8.19231C0.967503 8.19231 0.646877 8.09175 0.388126 7.89063C0.129375 7.68948 0 7.44025 0 7.14293C0 6.84558 0.129375 6.5965 0.388126 6.39568C0.646877 6.19487 0.967503 6.09446 1.35 6.09446H25.65C26.0325 6.09446 26.3531 6.19502 26.6119 6.39614C26.8706 6.59728 27 6.84651 27 7.14384C27 7.44118 26.8706 7.69026 26.6119 7.89108C26.3531 8.0919 26.0325 8.19231 25.65 8.19231H1.35ZM1.35 2.59785C0.967503 2.59785 0.646877 2.49729 0.388126 2.29617C0.129375 2.09503 0 1.84579 0 1.54847C0 1.25113 0.129375 1.00205 0.388126 0.801228C0.646877 0.600411 0.967503 0.5 1.35 0.5H25.65C26.0325 0.5 26.3531 0.600562 26.6119 0.801683C26.8706 1.00283 27 1.25206 27 1.54938C27 1.84673 26.8706 2.09581 26.6119 2.29662C26.3531 2.49744 26.0325 2.59785 25.65 2.59785H1.35Z" fill="#C9CDD1"/>
</svg>
