<svg width="25" height="24" viewBox="0 0 25 24" fill="none" xmlns="http://www.w3.org/2000/svg">
<path d="M5.02393 21C4.47393 21 4.00309 20.8042 3.61143 20.4125C3.21976 20.0208 3.02393 19.55 3.02393 19V5C3.02393 4.45 3.21976 3.97917 3.61143 3.5875C4.00309 3.19583 4.47393 3 5.02393 3H9.02393C9.57393 3 10.0448 3.19583 10.4364 3.5875C10.8281 3.97917 11.0239 4.45 11.0239 5V19C11.0239 19.55 10.8281 20.0208 10.4364 20.4125C10.0448 20.8042 9.57393 21 9.02393 21H5.02393ZM5.02393 19H9.02393V5H5.02393V19Z" fill="#A1A6AB"/>
<path d="M15.0239 11C14.4739 11 14.0031 10.8042 13.6114 10.4125C13.2198 10.0208 13.0239 9.55 13.0239 9V5C13.0239 4.45 13.2198 3.97917 13.6114 3.5875C14.0031 3.19583 14.4739 3 15.0239 3H19.0239C19.5739 3 20.0448 3.19583 20.4364 3.5875C20.8281 3.97917 21.0239 4.45 21.0239 5V9C21.0239 9.55 20.8281 10.0208 20.4364 10.4125C20.0448 10.8042 19.5739 11 19.0239 11H15.0239ZM15.0239 21C14.4739 21 14.0031 20.8042 13.6114 20.4125C13.2198 20.0208 13.0239 19.55 13.0239 19V15C13.0239 14.45 13.2198 13.9792 13.6114 13.5875C14.0031 13.1958 14.4739 13 15.0239 13H19.0239C19.5739 13 20.0448 13.1958 20.4364 13.5875C20.8281 13.9792 21.0239 14.45 21.0239 15V19C21.0239 19.55 20.8281 20.0208 20.4364 20.4125C20.0448 20.8042 19.5739 21 19.0239 21H15.0239ZM15.0239 9H19.0239V5H15.0239V9ZM15.0239 19H19.0239V15H15.0239V19Z" fill="#0085F4"/>
</svg>
