<svg width="24" height="10" viewBox="0 0 24 10" fill="none" xmlns="http://www.w3.org/2000/svg">
<path d="M0 1.93604C0 1.38375 0.447715 0.936035 1 0.936035H23C23.5523 0.936035 24 1.38375 24 1.93604V2.63603C24 3.18832 23.5523 3.63603 23 3.63603H1C0.447716 3.63603 0 3.18832 0 2.63604V1.93604Z" fill="#C9CDD1"/>
<path d="M0 7.36377C0 6.81149 0.447715 6.36377 1 6.36377H23C23.5523 6.36377 24 6.81148 24 7.36377V8.06377C24 8.61605 23.5523 9.06377 23 9.06377H1C0.447716 9.06377 0 8.61605 0 8.06377V7.36377Z" fill="#C9CDD1"/>
</svg>
