<svg width="25" height="24" viewBox="0 0 25 24" fill="none" xmlns="http://www.w3.org/2000/svg">
	<g clip-path="url(#clip0_9359_12538)">
		<path fill-rule="evenodd" clip-rule="evenodd" d="M0.11438 4.875C0.11438 3.77043 1.00981 2.875 2.11438 2.875H22.1144C23.2189 2.875 24.1144 3.77043 24.1144 4.875V19.125C24.1144 20.2296 23.2189 21.125 22.1144 21.125H2.11438C1.00981 21.125 0.11438 20.2296 0.11438 19.125V4.875ZM6.45704 6.34337C6.10761 6.6928 6.10761 7.25934 6.45704 7.60878L10.7926 11.9443L6.34548 16.3915C5.99605 16.7409 5.99605 17.3074 6.34548 17.6569C6.69491 18.0063 7.26145 18.0063 7.61089 17.6569L12.058 13.2097L16.5053 17.6571C16.8548 18.0065 17.4213 18.0065 17.7708 17.6571C18.1202 17.3076 18.1202 16.7411 17.7708 16.3917L13.3234 11.9443L17.6592 7.60855C18.0086 7.25912 18.0086 6.69258 17.6592 6.34315C17.3098 5.99372 16.7432 5.99372 16.3938 6.34315L12.058 10.6789L7.72245 6.34337C7.37301 5.99394 6.80647 5.99394 6.45704 6.34337Z" />
	</g>

	<defs>
		<clipPath id="clip0_9359_12538">
			<rect width="24" height="24" fill="white" transform="translate(0.11438)" />
		</clipPath>
	</defs>
</svg>