<svg width="19" height="17" viewBox="0 0 19 17" fill="none" xmlns="http://www.w3.org/2000/svg">
<path d="M0.0224609 14.3077V12.9884C0.0224609 12.4988 0.155461 12.0453 0.421461 11.6279C0.687461 11.2106 1.04296 10.8898 1.48796 10.6654C2.47629 10.1809 3.47338 9.81752 4.47921 9.57519C5.48504 9.33286 6.49946 9.21169 7.52246 9.21169C8.05579 9.21169 8.58563 9.24436 9.11196 9.30969C9.63813 9.37503 10.166 9.47503 10.6955 9.60969L9.44371 10.8769C9.11521 10.8298 8.79496 10.7904 8.48296 10.7589C8.17096 10.7274 7.85079 10.7117 7.52246 10.7117C6.61079 10.7117 5.70721 10.8209 4.81171 11.0394C3.91638 11.2581 3.03788 11.5796 2.17621 12.0039C1.97504 12.1129 1.81579 12.2536 1.69846 12.4259C1.58113 12.5984 1.52246 12.7859 1.52246 12.9884V13.7117H7.44546V15.2117H0.926461C0.670294 15.2117 0.455627 15.125 0.282461 14.9517C0.109127 14.7785 0.0224609 14.5639 0.0224609 14.3077ZM9.63796 15.4999V14.5097C9.63796 14.2659 9.68729 14.0334 9.78596 13.8124C9.88463 13.5914 10.016 13.3989 10.1802 13.2347L15.0667 8.35769C15.191 8.23336 15.3253 8.14586 15.4695 8.09519C15.6136 8.04469 15.7578 8.01944 15.902 8.01944C16.0591 8.01944 16.2112 8.04886 16.3582 8.10769C16.5052 8.16669 16.6388 8.25519 16.759 8.37319L17.684 9.30769C17.7916 9.43219 17.875 9.56686 17.934 9.71169C17.993 9.85652 18.0225 10.0014 18.0225 10.1462C18.0225 10.291 17.9955 10.4384 17.9417 10.5884C17.8879 10.7384 17.802 10.8756 17.684 10.9999L12.807 15.8769C12.643 16.0411 12.4505 16.1699 12.2295 16.2634C12.0085 16.3571 11.776 16.4039 11.532 16.4039H10.5417C10.2855 16.4039 10.0709 16.3173 9.89771 16.1439C9.72454 15.9708 9.63796 15.7561 9.63796 15.4999ZM10.8302 15.2117H11.7802L15.0262 11.9499L14.5667 11.4749L14.1012 11.0059L10.8302 14.2617V15.2117ZM14.5667 11.4749L14.1012 11.0059L15.0262 11.9499L14.5667 11.4749ZM7.52246 7.59619C6.55996 7.59619 5.73604 7.25352 5.05071 6.56819C4.36521 5.88269 4.02246 5.05869 4.02246 4.09619C4.02246 3.13369 4.36521 2.30977 5.05071 1.62444C5.73604 0.938942 6.55996 0.596191 7.52246 0.596191C8.48496 0.596191 9.30888 0.938942 9.99421 1.62444C10.6797 2.30977 11.0225 3.13369 11.0225 4.09619C11.0225 5.05869 10.6797 5.88269 9.99421 6.56819C9.30888 7.25352 8.48496 7.59619 7.52246 7.59619ZM7.52246 6.09619C8.07246 6.09619 8.54329 5.90036 8.93496 5.50869C9.32663 5.11702 9.52246 4.64619 9.52246 4.09619C9.52246 3.54619 9.32663 3.07536 8.93496 2.68369C8.54329 2.29202 8.07246 2.09619 7.52246 2.09619C6.97246 2.09619 6.50163 2.29202 6.10996 2.68369C5.71829 3.07536 5.52246 3.54619 5.52246 4.09619C5.52246 4.64619 5.71829 5.11702 6.10996 5.50869C6.50163 5.90036 6.97246 6.09619 7.52246 6.09619Z" fill="#A1A6AB"/>
</svg>
