<svg width="23" height="24" viewBox="0 0 23 24" fill="none" xmlns="http://www.w3.org/2000/svg">
<path d="M3.47172 9.46083L8.06539 14.1196C8.27097 14.3281 8.37243 14.5721 8.36979 14.8515C8.36711 15.131 8.25856 15.3795 8.04414 15.597C7.82969 15.8001 7.58689 15.9052 7.31575 15.9124C7.0446 15.9196 6.80182 15.8144 6.58739 15.597L0.374823 9.29638C0.124941 9.04296 0 8.74731 0 8.40942C0 8.07153 0.124941 7.77588 0.374823 7.52245L6.58739 1.22188C6.77878 1.02776 7.0158 0.928461 7.29847 0.923975C7.58113 0.919466 7.82969 1.01877 8.04414 1.22188C8.25856 1.43935 8.36578 1.68917 8.36578 1.97135C8.36578 2.25351 8.25856 2.50334 8.04414 2.72082L3.47172 7.35801H16.4339C18.2486 7.35801 19.7967 8.00774 21.078 9.30721C22.3593 10.6067 23 12.1766 23 14.0171L23 22.7878C23 23.0861 22.9007 23.336 22.7022 23.5373C22.5038 23.7386 22.2574 23.8392 21.9632 23.8392C21.6691 23.8392 21.4227 23.7386 21.2242 23.5373C21.0258 23.336 20.9265 23.0861 20.9265 22.7878L20.9265 14.0171C20.9265 12.759 20.4879 11.6851 19.6106 10.7954C18.7334 9.90567 17.6744 9.46083 16.4339 9.46083H3.47172Z" fill="#475159"/>
</svg>
