<svg xmlns="http://www.w3.org/2000/svg" fill="#A7A7A7" width="574" height="447" viewBox="0 0 574 447" version="1.1">
    <path d="M 0 4.135 L 0 8.270 2.062 5.648 C 3.197 4.206, 5.097 2.345, 6.285 1.513 C 8.359 0.060, 8.277 0, 4.223 0 L 0 0 0 4.135 M 491.810 2.026 C 497.353 5.405, 498 8.455, 498 31.218 L 498 51.500 370 51.500 L 242 51.500 242 38.750 L 242 26 134 26 L 26 26 26 69.970 L 26 113.940 38.655 114.220 L 51.311 114.500 51.405 242.250 L 51.500 370 29.632 370 L 7.765 370 3.882 366.118 L 0 362.235 0 404.618 L 0 447 43.750 446.998 C 86.063 446.997, 87.386 446.939, 84.020 445.248 C 82.106 444.287, 79.518 441.971, 78.270 440.102 L 76 436.704 76.002 262.102 C 76.003 97.869, 76.107 87.293, 77.752 84.020 C 78.713 82.106, 81.029 79.518, 82.898 78.270 L 86.296 76 324.680 76 C 587.052 76, 567.908 75.521, 571.974 82.190 L 573.993 85.500 573.996 42.750 L 574 0 531.250 0.004 L 488.500 0.007 491.810 2.026 M 103 147 L 103 191 210.500 191 L 318 191 318 147 L 318 103 210.500 103 L 103 103 103 147 M 345 261.500 L 345 306 389 306 L 433 306 433 261.500 L 433 217 389 217 L 345 217 345 261.500 M 460 261.500 L 460 306 504 306 L 548 306 548 261.500 L 548 217 504 217 L 460 217 460 261.500 M 345 376 L 345 420 389 420 L 433 420 433 376 L 433 332 389 332 L 345 332 345 376 M 460 376 L 460 420 504 420 L 548 420 548 376 L 548 332 504 332 L 460 332 460 376 M 571.775 441.044 C 570.826 442.712, 568.576 444.716, 566.775 445.499 L 563.500 446.922 568.750 446.961 L 574 447 574 442.500 C 574 440.025, 573.888 438.003, 573.750 438.006 C 573.612 438.010, 572.724 439.377, 571.775 441.044" stroke="none" fill="#ffffff" fill-rule="evenodd"/>
    <path d="M 497 30.500 L 497 51 484.500 51 L 472 51 472 38.500 L 472 26 427.500 26 L 383 26 383 38.500 L 383 51 370 51 L 357 51 357 38.500 L 357 26 312.500 26 L 268 26 268 38.471 L 268 50.942 254.750 51.221 C 247.463 51.374, 299.212 51.500, 369.750 51.500 L 498 51.500 498 30.750 C 498 19.337, 497.775 10, 497.500 10 C 497.225 10, 497 19.225, 497 30.500 M 205.250 76.750 C 271.113 76.892, 378.888 76.892, 444.750 76.750 C 510.613 76.608, 456.725 76.492, 325 76.492 C 193.275 76.492, 139.388 76.608, 205.250 76.750 M 76.489 262 C 76.489 358.525, 76.606 398.013, 76.750 349.750 C 76.893 301.488, 76.893 222.513, 76.750 174.250 C 76.606 125.988, 76.489 165.475, 76.489 262 M 102.239 146.750 L 102.479 191.500 102.750 147.250 L 103.021 103 210.500 103 L 317.979 103 318.250 147.250 L 318.521 191.500 318.761 146.750 L 319 102 210.500 102 L 102 102 102.239 146.750 M 344 146.500 L 344 191 389 191 L 434 191 434 146.500 L 434 102 389 102 L 344 102 344 146.500 M 459 146.500 L 459 191 503.500 191 L 548 191 548 146.500 L 548 102 503.500 102 L 459 102 459 146.500 M 38.498 114.733 L 51 115.060 51 127.530 L 51 140 38.500 140 L 26 140 26 185 L 26 230 38.500 230 L 51 230 51 242.500 L 51 255 38.500 255 L 26 255 26 299.500 L 26 344 38.471 344 L 50.942 344 51.221 357.250 C 51.374 364.538, 51.457 312.900, 51.405 242.500 L 51.311 114.500 38.654 114.453 L 25.997 114.407 38.498 114.733 M 102 261.500 L 102 306 210.500 306 L 319 306 319 261.500 L 319 217 210.500 217 L 102 217 102 261.500 M 344.460 261.500 C 344.460 286.250, 344.590 296.232, 344.749 283.682 C 344.908 271.132, 344.908 250.882, 344.749 238.682 C 344.590 226.482, 344.460 236.750, 344.460 261.500 M 433.460 261.500 C 433.460 286.250, 433.590 296.232, 433.749 283.682 C 433.908 271.132, 433.908 250.882, 433.749 238.682 C 433.590 226.482, 433.460 236.750, 433.460 261.500 M 459.460 261.500 C 459.460 286.250, 459.590 296.232, 459.749 283.682 C 459.908 271.132, 459.908 250.882, 459.749 238.682 C 459.590 226.482, 459.460 236.750, 459.460 261.500 M 102 376.500 L 102 421 210.500 421 L 319 421 319 376.500 L 319 332 210.500 332 L 102 332 102 376.500 M 344.239 376.250 L 344 421 389 421 L 434 421 433.761 376.250 L 433.521 331.500 433.250 375.750 L 432.979 420 389 420 L 345.021 420 344.750 375.750 L 344.479 331.500 344.239 376.250 M 459.239 376.250 L 459 421 503.750 420.761 L 548.500 420.521 504.260 420.250 L 460.021 419.979 459.750 375.740 L 459.479 331.500 459.239 376.250 M 206.330 446.750 C 272.237 446.892, 379.787 446.892, 445.330 446.750 C 510.874 446.608, 456.950 446.492, 325.500 446.492 C 194.050 446.492, 140.424 446.608, 206.330 446.750" stroke="none" fill="#e8e8e8" fill-rule="evenodd"/>
    <path d="M 7.062 1.827 C 5.188 2.832, 2.832 5.188, 1.827 7.062 C 0.078 10.324, 0 17.878, -0 185 C -0 352.122, 0.078 359.676, 1.827 362.938 C 5.266 369.351, 7.924 370, 30.734 370 L 51 370 51 357 L 51 344 38.500 344 L 26 344 26 299.500 L 26 255 38.500 255 L 51 255 51 242.500 L 51 230 38.500 230 L 26 230 26 185 L 26 140 38.500 140 L 51 140 51 127.500 L 51 115 38.500 115 L 26 115 26 70.500 L 26 26 134 26 L 242 26 242 38.500 L 242 51 255 51 L 268 51 268 38.500 L 268 26 312.500 26 L 357 26 357 38.500 L 357 51 370 51 L 383 51 383 38.500 L 383 26 427.500 26 L 472 26 472 38.500 L 472 51 484.554 51 L 497.108 51 496.804 29.103 C 496.523 8.860, 496.349 7.036, 494.500 4.965 C 489.815 -0.284, 503.885 0, 248.267 0 C 19.872 0, 10.334 0.072, 7.062 1.827 M 83.190 78.353 C 81.919 79.058, 80.010 80.955, 78.946 82.567 C 77.054 85.439, 77.014 89.181, 77.042 261.500 C 77.065 402.732, 77.324 437.956, 78.353 439.810 C 79.058 441.081, 80.955 442.990, 82.567 444.054 C 85.446 445.951, 89.931 445.987, 325 445.979 C 513.099 445.972, 565.016 445.705, 566.904 444.735 C 568.226 444.056, 570.251 442.230, 571.404 440.677 L 573.500 437.854 573.794 263.677 C 573.998 142.882, 573.763 88.373, 573.026 85.824 C 572.442 83.802, 570.587 80.989, 568.905 79.574 L 565.847 77 325.673 77.035 C 132.258 77.064, 85.050 77.320, 83.190 78.353 M 102 146.500 L 102 191 210.500 191 L 319 191 319 146.500 L 319 102 210.500 102 L 102 102 102 146.500 M 344 146.500 L 344 191 389 191 L 434 191 434 146.500 L 434 102 389 102 L 344 102 344 146.500 M 459 146.500 L 459 191 503.500 191 L 548 191 548 146.500 L 548 102 503.500 102 L 459 102 459 146.500 M 102 261.500 L 102 306 210.500 306 L 319 306 319 261.500 L 319 217 210.500 217 L 102 217 102 261.500 M 344 261.500 L 344 306 389 306 L 434 306 434 261.500 L 434 217 389 217 L 344 217 344 261.500 M 459 261.500 L 459 306 503.500 306 L 548 306 548 261.500 L 548 217 503.500 217 L 459 217 459 261.500 M 102 376.500 L 102 421 210.500 421 L 319 421 319 376.500 L 319 332 210.500 332 L 102 332 102 376.500 M 344 376.500 L 344 421 389 421 L 434 421 434 376.500 L 434 332 389 332 L 344 332 344 376.500 M 459 376.500 L 459 421 503.500 421 L 548 421 548 376.500 L 548 332 503.500 332 L 459 332 459 376.500" stroke="none" fill="#A7A7A7" fill-rule="evenodd"/>
</svg>