<svg width="29" height="24" viewBox="0 0 29 24" xmlns="http://www.w3.org/2000/svg">
<path fill-rule="evenodd" clip-rule="evenodd" d="M5.76562 4.92383C4.66106 4.92383 3.76562 5.81926 3.76562 6.92383V10.8301V12.1301V16.7266V18.0266V21.9238C3.76562 23.0284 4.66106 23.9238 5.76562 23.9238H15.6802H16.9802H21.5659H22.8659H26.7656C27.8702 23.9238 28.7656 23.0284 28.7656 21.9238V18.0266V16.7266V12.1301V10.8301V6.92383C28.7656 5.81926 27.8702 4.92383 26.7656 4.92383H22.8659H21.5659H16.9802H15.6802H5.76562ZM27.4654 10.8301V7.22461C27.4654 6.67232 27.0177 6.22461 26.4654 6.22461H22.8659V10.8301H27.4654ZM21.5659 10.8301V6.22461H16.9802V10.8301H21.5659ZM16.9802 12.1301H21.5659V16.7266H16.9802V12.1301ZM15.6802 10.8301V6.22461H6.06543C5.51314 6.22461 5.06543 6.67232 5.06543 7.22461V10.8301H15.6802ZM5.06543 12.1301H15.6802V16.7266H5.06543V12.1301ZM22.8659 12.1301H27.4654V16.7266H22.8659V12.1301ZM21.5659 22.6246H16.9802V18.0266H21.5659V22.6246ZM15.6802 22.6246V18.0266H5.06543V21.6246C5.06543 22.1769 5.51314 22.6246 6.06543 22.6246H15.6802ZM22.8659 22.6246V18.0266H27.4654V21.6246C27.4654 22.1769 27.0177 22.6246 26.4654 22.6246H22.8659Z"/>
<path fill-rule="evenodd" clip-rule="evenodd" d="M0 2.92383C0 1.81926 0.895431 0.923828 2 0.923828H11.9146H13.2146H17.8003H19.1003H23C24.1046 0.923828 25 1.81926 25 2.92383V4.25977H23.6998V3.22461C23.6998 2.67232 23.2521 2.22461 22.6998 2.22461H19.1003V4.25977H17.8003V2.22461H13.2146V4.25977H11.9146V2.22461H2.2998C1.74752 2.22461 1.2998 2.67232 1.2998 3.22461V6.83008H3.10205V8.13008H1.2998V12.7266H3.10205V14.0266H1.2998V17.6246C1.2998 18.1769 1.74752 18.6246 2.2998 18.6246H3.10205V19.9238H2C0.89543 19.9238 0 19.0284 0 17.9238V14.0266V12.7266V8.13008V6.83008V2.92383Z" />
</svg>
