<svg width="23" height="24" viewBox="0 0 23 24" xmlns="http://www.w3.org/2000/svg">
<path d="M10.6973 11.324C10.6973 10.8808 11.0565 10.5215 11.4998 10.5215C11.943 10.5215 12.3022 10.8808 12.3022 11.324V17.3577C12.3022 17.8008 11.943 18.1602 11.4998 18.1602C11.0565 18.1602 10.6973 17.8008 10.6973 17.3577V11.324Z" />
<path d="M11.5002 7.28125C10.9479 7.28125 10.4971 7.72894 10.4971 8.28125C10.4971 8.83356 10.9479 9.28125 11.5002 9.28125C12.0525 9.28125 12.5033 8.83356 12.5033 8.28125C12.5033 7.72894 12.0525 7.28125 11.5002 7.28125Z" />
<path fill-rule="evenodd" clip-rule="evenodd" d="M11.5 23.9238C17.8513 23.9238 23 18.7751 23 12.4238C23 6.07257 17.8513 0.923828 11.5 0.923828C5.14871 0.923828 0 6.07257 0 12.4238C0 18.7751 5.14871 23.9238 11.5 23.9238ZM11.5001 22.3234C16.9677 22.3234 21.4001 17.8911 21.4001 12.4235C21.4001 6.95581 16.9677 2.52344 11.5001 2.52344C6.03247 2.52344 1.6001 6.95581 1.6001 12.4235C1.6001 17.8911 6.03247 22.3234 11.5001 22.3234Z" />
</svg>
