<svg width="27" height="27" viewBox="0 0 27 27" fill="none" xmlns="http://www.w3.org/2000/svg">
<path d="M13.5999 20.2401C13.9084 20.2401 14.1656 20.1361 14.3716 19.9282C14.5775 19.7203 14.6805 19.4627 14.6805 19.1553V13.259C14.6805 12.9517 14.5761 12.694 14.3674 12.4861C14.1587 12.2782 13.9001 12.1743 13.5916 12.1743C13.2831 12.1743 13.0258 12.2782 12.8199 12.4861C12.614 12.694 12.511 12.9517 12.511 13.259V19.1553C12.511 19.4627 12.6154 19.7203 12.8241 19.9282C13.0328 20.1361 13.2914 20.2401 13.5999 20.2401ZM13.4961 9.83351C13.8408 9.83351 14.1296 9.72014 14.3627 9.4934C14.5958 9.26663 14.7123 8.98566 14.7123 8.65048C14.7123 8.29048 14.5958 7.99223 14.3628 7.75574C14.1298 7.51923 13.8411 7.40097 13.4966 7.40097C13.1462 7.40097 12.8558 7.51923 12.6254 7.75574C12.395 7.99223 12.2797 8.28915 12.2797 8.64649C12.2797 8.985 12.3963 9.26746 12.6295 9.49389C12.8626 9.7203 13.1515 9.83351 13.4961 9.83351ZM13.506 27C11.6399 27 9.88859 26.6468 8.25216 25.9403C6.61573 25.2338 5.18451 24.2675 3.9585 23.0415C2.73249 21.8155 1.76623 20.3838 1.05973 18.7464C0.353242 17.1091 0 15.3564 0 13.4885C0 11.6205 0.353242 9.86746 1.05973 8.22939C1.76623 6.5913 2.73207 5.16464 3.95724 3.94943C5.18243 2.73423 6.61389 1.7722 8.25163 1.06332C9.88939 0.35444 11.6425 0 13.5109 0C15.3793 0 17.1329 0.35424 18.7716 1.06272C20.4103 1.77118 21.837 2.73266 23.0518 3.94717C24.2667 5.16167 25.2284 6.58983 25.937 8.23165C26.6457 9.87349 27 11.628 27 13.4951C27 15.362 26.6456 17.1136 25.9367 18.7499C25.2278 20.3862 24.2658 21.8151 23.0506 23.0363C21.8354 24.2576 20.4073 25.2236 18.7664 25.9341C17.1255 26.6447 15.372 27 13.506 27ZM13.5126 24.7351C16.6274 24.7351 19.2751 23.6409 21.456 21.4523C23.6368 19.2638 24.7272 16.6088 24.7272 13.4874C24.7272 10.3726 23.6388 7.72486 21.4622 5.54404C19.2855 3.36324 16.6288 2.27284 13.492 2.27284C10.3857 2.27284 7.73794 3.36117 5.54872 5.53782C3.35948 7.71447 2.26486 10.3712 2.26486 13.508C2.26486 16.6143 3.35914 19.2621 5.54769 21.4513C7.73625 23.6405 10.3912 24.7351 13.5126 24.7351Z" fill="#4694D9"/>
</svg>
