<svg width="19" height="19" viewBox="0 0 19 19" xmlns="http://www.w3.org/2000/svg">
	<path d="M8 16C5.76667 16 3.875 15.225 2.325 13.675C0.775 12.125 0 10.2333 0 8C0 5.76667 0.775 3.875 2.325 2.325C3.875 0.775 5.76667 0 8 0C10.2333 0 12.125 0.775 13.675 2.325C15.225 3.875 16 5.76667 16 8C16 8.93333 15.85 9.8125 15.55 10.6375C15.25 11.4625 14.8333 12.2167 14.3 12.9L18.3 16.9C18.4833 17.0833 18.575 17.3167 18.575 17.6C18.575 17.8833 18.4833 18.1167 18.3 18.3C18.1167 18.4833 17.8833 18.575 17.6 18.575C17.3167 18.575 17.0833 18.4833 16.9 18.3L12.9 14.3C12.2167 14.8333 11.4625 15.25 10.6375 15.55C9.8125 15.85 8.93333 16 8 16ZM8 14C9.66667 14 11.0833 13.4167 12.25 12.25C13.4167 11.0833 14 9.66667 14 8C14 6.33333 13.4167 4.91667 12.25 3.75C11.0833 2.58333 9.66667 2 8 2C6.33333 2 4.91667 2.58333 3.75 3.75C2.58333 4.91667 2 6.33333 2 8C2 9.66667 2.58333 11.0833 3.75 12.25C4.91667 13.4167 6.33333 14 8 14Z" />
</svg>
