<svg width="24" height="24" viewBox="0 0 24 24" fill="none" xmlns="http://www.w3.org/2000/svg">
<path fill-rule="evenodd" clip-rule="evenodd" d="M20.961 5.2127C21.2093 3.98549 20.126 2.90221 18.8988 3.15046L15.905 3.75607C15.8461 3.76798 15.7849 3.75829 15.7326 3.72876L13.0725 2.22767C11.9821 1.61234 10.6171 2.30785 10.4739 3.55171L10.1248 6.58608C10.1179 6.64577 10.0898 6.70099 10.0455 6.74163L7.7959 8.80766C6.87372 9.65458 7.11338 11.1677 8.25213 11.6882L11.0301 12.9579C11.0847 12.9829 11.1286 13.0267 11.1535 13.0814L12.4233 15.8594C12.9438 16.9981 14.4569 17.2378 15.3038 16.3156L17.3698 14.066C17.4105 14.0217 17.4657 13.9936 17.5254 13.9867L20.5598 13.6375C21.8036 13.4944 22.4991 12.1294 21.8838 11.039L20.3827 8.37888C20.3532 8.32656 20.3435 8.26534 20.3554 8.20645L20.961 5.2127ZM19.1962 4.62068C19.3715 4.58521 19.5263 4.73997 19.4908 4.91529L18.8852 7.90904C18.8018 8.32128 18.8697 8.74977 19.0764 9.11606L20.5775 11.7761C20.6654 11.9319 20.566 12.1269 20.3883 12.1474L17.3539 12.4965C16.9361 12.5446 16.5496 12.7416 16.2651 13.0513L14.199 15.301C14.078 15.4327 13.8619 15.3985 13.7875 15.2358L12.5178 12.4578C12.3429 12.0753 12.0362 11.7685 11.6537 11.5937L8.87569 10.324C8.71301 10.2496 8.67878 10.0334 8.81052 9.91245L11.0602 7.84642C11.3699 7.56193 11.5669 7.17538 11.615 6.75755L11.9641 3.72317C11.9846 3.54548 12.1796 3.44612 12.3353 3.53403L14.9954 5.03512C15.3617 5.24182 15.7902 5.30968 16.2024 5.22629L19.1962 4.62068ZM9.41128 15.9289L4.98288 20.3572C4.64365 20.6965 4.09365 20.6965 3.75442 20.3572C3.41519 20.018 3.41519 19.468 3.75442 19.1288L8.18282 14.7004C8.52205 14.3612 9.07205 14.3612 9.41128 14.7004C9.75051 15.0396 9.75051 15.5896 9.41128 15.9289ZM7.12216 13.6397C8.04717 12.7147 9.54692 12.7147 10.4719 13.6397C11.397 14.5648 11.397 16.0645 10.4719 16.9895L6.04354 21.4179C5.11853 22.3429 3.61878 22.3429 2.69376 21.4179C1.76875 20.4929 1.76875 18.9931 2.69376 18.0681L7.12216 13.6397Z" fill="#0085F4"/>
</svg>
