<svg width="23" height="22" viewBox="0 0 23 22" fill="none" xmlns="http://www.w3.org/2000/svg">
<path d="M10.0909 12.0653L10.0909 19.2258C10.0909 19.4934 10.181 19.7177 10.3612 19.8987C10.5415 20.0797 10.7648 20.1702 11.0313 20.1702C11.2978 20.1702 11.5204 20.0797 11.6991 19.8987C11.8777 19.7177 11.9671 19.4934 11.9671 19.2258L11.9671 12.0653L19.2575 12.0653C19.5233 12.0653 19.7461 11.9746 19.9259 11.7931C20.1057 11.6116 20.1956 11.3292 20.1956 11.061C20.1956 10.7927 20.1057 10.5089 19.9259 10.329C19.7461 10.1491 19.5233 10.0592 19.2575 10.0592L11.9671 10.0592V2.78131C11.9671 2.51373 11.877 2.28944 11.6967 2.10843C11.5165 1.92742 11.2931 1.83691 11.0266 1.83691C10.7602 1.83691 10.5376 1.92742 10.3589 2.10843C10.1802 2.28944 10.0909 2.51373 10.0909 2.78131V10.0592H2.80041C2.53462 10.0592 2.31181 10.1499 2.13201 10.3314C1.95221 10.5128 1.8623 10.7974 1.8623 11.0657C1.8623 11.334 1.95221 11.6156 2.13201 11.7955C2.31181 11.9753 2.53462 12.0653 2.80041 12.0653H10.0909Z" fill="#C9CDD1"/>
</svg>
