<svg width="23" height="22" viewBox="0 0 23 22" fill="none" xmlns="http://www.w3.org/2000/svg">
<path d="M10.0067 13.1124C11.6356 13.1123 10.6583 13.1395 12.2872 13.1124H19.2914C19.6145 13.1124 19.8853 13.0109 20.1038 12.808C20.3224 12.6051 20.4316 12.3536 20.4316 12.0537C20.4316 11.7537 20.3224 11.5031 20.1038 11.302C19.8853 11.1008 19.6145 11.0002 19.2914 11.0002H12.2872C11.147 11.0009 11.147 10.9995 10.0067 11.0002H3.00253C2.67946 11.0002 2.40866 11.1017 2.19012 11.3046C1.97158 11.5075 1.8623 11.759 1.8623 12.0589C1.8623 12.3589 1.97158 12.6095 2.19012 12.8106C2.40866 13.0118 2.67946 13.1124 3.00253 13.1124H10.0067Z" fill="#C9CDD1"/>
</svg>
