<svg width="25" height="24" viewBox="0 0 25 24" fill="none" xmlns="http://www.w3.org/2000/svg">
	<g clip-path="url(#clip0_9352_12762)">
		<path d="M0.552368 6.22217C0.552368 5.66988 1.00008 5.22217 1.55237 5.22217H23.5524C24.1047 5.22217 24.5524 5.66988 24.5524 6.22217V6.92217C24.5524 7.47445 24.1047 7.92217 23.5524 7.92217H1.55237C1.00008 7.92217 0.552368 7.47445 0.552368 6.92217V6.22217Z" />
		<path d="M0.552368 11.6499C0.552368 11.0976 1.00008 10.6499 1.55237 10.6499H23.5524C24.1047 10.6499 24.5524 11.0976 24.5524 11.6499V12.3499C24.5524 12.9022 24.1047 13.3499 23.5524 13.3499H1.55237C1.00008 13.3499 0.552368 12.9022 0.552368 12.3499V11.6499Z" />
		<path d="M0.552368 17.0776C0.552368 16.5254 1.00008 16.0776 1.55237 16.0776H23.5524C24.1047 16.0776 24.5524 16.5254 24.5524 17.0776V17.7776C24.5524 18.3299 24.1047 18.7776 23.5524 18.7776H1.55237C1.00008 18.7776 0.552368 18.3299 0.552368 17.7776V17.0776Z" />
	</g>

	<defs>
		<clipPath id="clip0_9352_12762">
			<rect width="24" height="24" fill="white" transform="translate(0.552368)" />
		</clipPath>
	</defs>
</svg>