<svg width="25" height="21" viewBox="0 0 25 21" fill="none" xmlns="http://www.w3.org/2000/svg">
	<path fill-rule="evenodd" clip-rule="evenodd" d="M8.47916 2.84497L9.13033 2.84731C10.3203 2.84731 11.285 3.81186 11.285 5.00194C11.285 5.64003 11.2843 6.09574 11.2836 6.55146C11.2829 7.00717 11.2822 7.46289 11.2822 8.10097H13.3479V7.32152C13.3479 6.81657 13.5248 6.38734 13.8785 6.03359C14.2322 5.67984 14.6615 5.50301 15.1664 5.50301H19.4362C19.9411 5.50301 20.3704 5.67984 20.7241 6.03359C21.0778 6.38734 21.2547 6.81657 21.2547 7.32152V8.11572H19.4592V7.29848H15.1434V12.5057H15.1467C14.6503 12.5012 14.2276 12.3244 13.8785 11.9752C13.5248 11.6215 13.3479 11.1922 13.3479 10.6873V9.89644H11.2822L11.2746 13.0043C11.2746 13.6013 11.0632 14.1111 10.6404 14.534C10.2176 14.9568 9.70776 15.1681 9.11078 15.1681H8.47153V15.9407C8.47153 16.4456 8.29467 16.8749 7.94095 17.2286C7.58723 17.5824 7.15792 17.7592 6.65301 17.7592H2.13125C1.62635 17.7592 1.19704 17.5824 0.843321 17.2286C0.489602 16.8749 0.312744 16.4456 0.312744 15.9407L0.320328 12.5703C0.320328 12.0654 0.497186 11.6361 0.850905 11.2824C1.20462 10.9286 1.63394 10.7518 2.13884 10.7518H6.6606C7.1655 10.7518 7.59481 10.9286 7.94853 11.2824C8.30225 11.6361 8.47911 12.0654 8.47911 12.5703L8.47153 13.3727L9.11078 13.3727C9.21822 13.3727 9.30647 13.3381 9.37554 13.2691C9.4446 13.2 9.47914 13.1118 9.47914 13.0043L9.48677 4.99522C9.48677 4.79687 9.331 4.64044 9.13267 4.64044H8.47916V5.431C8.47916 5.93595 8.3023 6.36518 7.94858 6.71893C7.59486 7.07268 7.16555 7.24951 6.66065 7.24951H2.13888C1.63398 7.24951 1.20467 7.07268 0.850952 6.71893C0.497233 6.36518 0.320375 5.93595 0.320375 5.431L0.320375 2.07242C0.320375 1.56747 0.497233 1.13824 0.850952 0.784487C1.20467 0.430735 1.63398 0.253906 2.13888 0.253906H6.66065C7.16555 0.253906 7.59486 0.430735 7.94858 0.784487C8.3023 1.13824 8.47916 1.56747 8.47916 2.07242V2.84497ZM6.55672 5.45404H2.24687V2.04938H6.55672L6.55672 5.45404ZM6.54909 15.9637H2.23924L2.24682 12.5473L6.55667 12.5473L6.54909 15.9637Z" />
	<path d="M16.4104 17.5312V17.6875C16.4104 18.6719 16.7437 19.4714 17.4104 20.0859C18.0823 20.6953 19.0458 21 20.301 21C21.5302 21 22.5042 20.6953 23.2229 20.0859C23.9417 19.4714 24.301 18.638 24.301 17.5859C24.301 16.8672 24.1057 16.2656 23.7151 15.7812C23.3297 15.2969 22.8088 14.9766 22.1526 14.8203V14.7891C22.7568 14.5495 23.2021 14.1953 23.4885 13.7266C23.7802 13.2526 23.926 12.7214 23.926 12.1328C23.926 11.2995 23.6135 10.5964 22.9885 10.0234C22.3635 9.45052 21.4755 9.16406 20.3245 9.16406C19.1838 9.16406 18.2854 9.47135 17.6292 10.0859C16.9781 10.7005 16.6526 11.4505 16.6526 12.3359V12.4453H18.7229V12.3359C18.7229 11.8307 18.8583 11.4453 19.1292 11.1797C19.4 10.9089 19.7854 10.7734 20.2854 10.7734C20.7698 10.7734 21.1422 10.9062 21.4026 11.1719C21.663 11.4375 21.7932 11.8359 21.7932 12.3672C21.7932 12.9141 21.637 13.3385 21.3245 13.6406C21.012 13.9427 20.5614 14.0938 19.9729 14.0938H19.051V15.6328H20.0432C20.7151 15.6328 21.2333 15.7917 21.5979 16.1094C21.9677 16.4219 22.1526 16.8906 22.1526 17.5156C22.1526 18.1615 21.9911 18.638 21.6682 18.9453C21.3505 19.2474 20.9 19.3984 20.3167 19.3984C19.7385 19.3984 19.288 19.2474 18.9651 18.9453C18.6474 18.6432 18.4885 18.2214 18.4885 17.6797V17.5312H16.4104Z" />
</svg>