<svg width="24" height="19" viewBox="0 0 24 19" fill="none" xmlns="http://www.w3.org/2000/svg">
	<path fill-rule="evenodd" clip-rule="evenodd" d="M8.15002 3.33862L8.82076 3.34096C10.0107 3.34096 10.9754 4.30551 10.9754 5.4956C10.9754 6.13368 10.9747 6.58939 10.974 7.04511C10.9733 7.50082 10.9727 7.95654 10.9727 8.59462H13.0289C13.0289 7.95654 13.0282 7.50082 13.0276 7.04511C13.0269 6.58939 13.0262 6.13368 13.0262 5.4956C13.0262 4.30551 13.9909 3.34096 15.1808 3.34096L15.9687 3.33862V2.56607C15.9687 2.06112 16.1456 1.63189 16.4993 1.27814C16.853 0.924387 17.2823 0.747559 17.7873 0.747559L22.1739 0.747559C22.6788 0.747559 23.1081 0.924387 23.4618 1.27814C23.8155 1.63189 23.9924 2.06112 23.9924 2.56607V5.92465C23.9924 6.4296 23.8155 6.85883 23.4618 7.21258C23.1081 7.56634 22.6788 7.74316 22.1739 7.74316H17.7873C17.2823 7.74316 16.853 7.56634 16.4993 7.21258C16.1456 6.85883 15.9687 6.4296 15.9687 5.92465V5.13409H15.1785C14.9802 5.13409 14.8244 5.29053 14.8244 5.48887L14.832 13.498C14.832 13.6054 14.8666 13.6936 14.9356 13.7627C15.0047 13.8318 15.0929 13.8663 15.2004 13.8663L15.9764 13.8663L15.9688 13.064C15.9688 12.559 16.1456 12.1298 16.4994 11.776C16.8531 11.4223 17.2824 11.2455 17.7873 11.2455H22.1739C22.6788 11.2455 23.1081 11.4223 23.4618 11.776C23.8156 12.1298 23.9924 12.559 23.9924 13.064L24 16.4343C24 16.9393 23.8231 17.3685 23.4694 17.7223C23.1157 18.076 22.6864 18.2528 22.1815 18.2528H17.7949C17.29 18.2528 16.8607 18.076 16.5069 17.7223C16.1532 17.3685 15.9764 16.9393 15.9764 16.4343V15.6618H15.2004C14.6034 15.6618 14.0935 15.4504 13.6707 15.0276C13.248 14.6048 13.0366 14.095 13.0366 13.498L13.0289 10.3901H10.9727L10.965 13.498C10.965 14.095 10.7536 14.6048 10.3308 15.0276C9.90806 15.4504 9.39818 15.6618 8.80121 15.6618H8.14239V16.4343C8.14239 16.9393 7.96553 17.3685 7.61181 17.7223C7.25809 18.076 6.82878 18.2528 6.32387 18.2528H1.81851C1.31361 18.2528 0.884296 18.076 0.530577 17.7223C0.176858 17.3685 0 16.9393 0 16.4343L0.00758374 13.064C0.00758374 12.559 0.184442 12.1298 0.538161 11.776C0.89188 11.4223 1.32119 11.2455 1.82609 11.2455H6.33146C6.83636 11.2455 7.26567 11.4223 7.61939 11.776C7.97311 12.1298 8.14997 12.559 8.14997 13.064L8.14239 13.8663L8.80121 13.8663C8.90864 13.8663 8.99689 13.8318 9.06596 13.7627C9.13503 13.6936 9.16956 13.6054 9.16956 13.498L9.17719 5.48887C9.17719 5.29053 9.02142 5.13409 8.8231 5.13409H8.15002V5.92465C8.15002 6.4296 7.97316 6.85883 7.61944 7.21258C7.26572 7.56634 6.83641 7.74316 6.33151 7.74316H1.82614C1.32124 7.74316 0.891927 7.56634 0.538208 7.21258C0.184489 6.85883 0.00763121 6.4296 0.00763121 5.92465L0.00763121 2.56607C0.00763121 2.06112 0.184489 1.63189 0.538208 1.27814C0.891927 0.924387 1.32124 0.747559 1.82614 0.747559H6.33151C6.83641 0.747559 7.26572 0.924387 7.61944 1.27814C7.97316 1.63189 8.15002 2.06112 8.15002 2.56607V3.33862ZM6.22758 5.94769H1.93413V2.54303H6.22758L6.22758 5.94769ZM6.21995 16.4574H1.9265L1.93408 13.0409L6.22753 13.0409L6.21995 16.4574ZM17.8912 5.94769H22.0659V2.54303H17.8912V5.94769ZM17.8988 16.4574H22.0735L22.0659 13.0409L17.8912 13.0409L17.8988 16.4574Z" />
</svg>