<svg width="25" height="18" viewBox="0 0 25 18" fill="none" xmlns="http://www.w3.org/2000/svg">
	<path fill-rule="evenodd" clip-rule="evenodd" d="M8.59146 2.83862L11.3911 2.84096C12.581 2.84096 13.5457 3.80551 13.5457 4.9956C13.5457 6.27176 13.543 6.81846 13.543 8.09462H16.522V7.31518C16.522 6.81023 16.6988 6.38099 17.0525 6.02724C17.4063 5.67349 17.8356 5.49666 18.3405 5.49666H22.6102C23.1151 5.49666 23.5444 5.67349 23.8981 6.02724C24.2519 6.38099 24.4287 6.81023 24.4287 7.31518V10.6809C24.4287 11.1859 24.2519 11.6151 23.8981 11.9689C23.5444 12.3226 23.1151 12.4994 22.6102 12.4994H18.3405C17.8356 12.4994 17.4063 12.3226 17.0525 11.9689C16.6988 11.6151 16.522 11.1859 16.522 10.6809V9.89009H13.543L13.5353 12.998C13.5353 13.595 13.3239 14.1048 12.9012 14.5276C12.4784 14.9504 11.9685 15.1618 11.3715 15.1618H8.58383V15.9343C8.58383 16.4393 8.40697 16.8685 8.05325 17.2223C7.69953 17.576 7.27022 17.7528 6.76532 17.7528H2.24356C1.73866 17.7528 1.30934 17.576 0.955626 17.2223C0.601907 16.8685 0.425049 16.4393 0.425049 15.9343L0.432633 12.564C0.432633 12.059 0.609491 11.6298 0.96321 11.276C1.31693 10.9223 1.74624 10.7455 2.25114 10.7455H6.7729C7.2778 10.7455 7.70711 10.9223 8.06083 11.276C8.41455 11.6298 8.59142 12.059 8.59142 12.564L8.58383 13.3663L11.3715 13.3663C11.479 13.3663 11.5672 13.3318 11.6363 13.2627C11.7053 13.1936 11.7399 13.1054 11.7399 12.998L11.7475 5.22097V4.98887C11.7475 4.79053 11.5917 4.63409 11.3934 4.63409H11.077H8.59146V5.42465C8.59146 5.9296 8.4146 6.35883 8.06088 6.71258C7.70716 7.06634 7.27785 7.24316 6.77295 7.24316H2.25119C1.74629 7.24316 1.31698 7.06634 0.963257 6.71258C0.609538 6.35883 0.43268 5.9296 0.43268 5.42465L0.43268 2.06607C0.43268 1.56112 0.609538 1.13189 0.963257 0.778139C1.31698 0.424387 1.74629 0.247559 2.25119 0.247559L6.77295 0.247559C7.27785 0.247559 7.70716 0.424387 8.06088 0.778139C8.4146 1.13189 8.59146 1.56112 8.59146 2.06607V2.83862ZM6.66903 5.44769H2.35918V2.04303H6.66902L6.66903 5.44769ZM6.66139 15.9574H2.35154L2.35913 12.5409L6.66898 12.5409L6.66139 15.9574ZM22.6333 10.704H18.3174V7.29213H22.6333V10.704Z" />
</svg>