<svg width="28" height="24" viewBox="0 0 28 24" xmlns="http://www.w3.org/2000/svg">
<path fill-rule="evenodd" clip-rule="evenodd" d="M2.1625 15.6532C1.91812 15.6532 1.71328 15.5705 1.54797 15.4052C1.38266 15.2399 1.3 15.0351 1.3 14.7907V9.20859C1.3 8.73422 1.46891 8.32812 1.80672 7.99031C2.14453 7.6525 2.55063 7.48359 3.025 7.48359H6.625C7.09938 7.48359 7.50547 7.6525 7.84328 7.99031C8.18109 8.32812 8.35 8.73422 8.35 9.20859V14.7907C8.35 15.0351 8.26734 15.2399 8.10203 15.4052C7.93672 15.5705 7.73188 15.6532 7.4875 15.6532H6.05V21.7578C6.05 22.0022 5.96714 22.207 5.80143 22.3723C5.63571 22.5376 5.43037 22.6203 5.1854 22.6203H4.4562C4.21124 22.6203 4.00729 22.5376 3.84437 22.3723C3.68146 22.207 3.6 22.0022 3.6 21.7578V15.6532H2.1625ZM2.3 16.9532H2.1625C1.59074 16.9532 1.04987 16.7456 0.62873 16.3244C0.207588 15.9033 0 15.3624 0 14.7907L0 9.20859C0 8.3867 0.307815 7.65074 0.88748 7.07107C1.46714 6.49141 2.2031 6.18359 3.025 6.18359H6.625C7.4469 6.18359 8.18286 6.49141 8.76252 7.07107C9.34219 7.65074 9.65 8.3867 9.65 9.20859V14.7907C9.65 15.3624 9.44241 15.9033 9.02127 16.3244C8.60013 16.7456 8.05926 16.9532 7.4875 16.9532H7.35V21.7578C7.35 22.3305 7.14149 22.8718 6.71955 23.2927C6.29778 23.7134 5.75676 23.9203 5.1854 23.9203H4.4562C3.88466 23.9203 3.34038 23.713 2.91845 23.2848C2.50212 22.8624 2.3 22.3236 2.3 21.7578V16.9532Z" />
<path d="M9.6361 16.5382C10.0124 16.8159 10.4569 16.9532 10.9218 16.9532H11.0593V21.7578C11.0593 22.3236 11.2614 22.8624 11.6777 23.2848C12.0997 23.713 12.6439 23.9203 13.2155 23.9203H13.9447C14.516 23.9203 15.0571 23.7134 15.4788 23.2927C15.9008 22.8718 16.1093 22.3305 16.1093 21.7578V16.9532H16.2468C16.8185 16.9532 17.3594 16.7456 17.7805 16.3244C18.2017 15.9033 18.4093 15.3624 18.4093 14.7907V9.20859C18.4093 8.3867 18.1015 7.65074 17.5218 7.07107C16.9421 6.49141 16.2062 6.18359 15.3843 6.18359H11.7843C10.9624 6.18359 10.2264 6.49141 9.64676 7.07107C9.62848 7.08935 9.61048 7.10778 9.59275 7.12636C9.89438 7.55024 10.0963 8.0267 10.1899 8.53873C10.2744 8.33939 10.3997 8.15658 10.566 7.99031C10.9038 7.6525 11.3099 7.48359 11.7843 7.48359H15.3843C15.8587 7.48359 16.2647 7.6525 16.6026 7.99031C16.9404 8.32812 17.1093 8.73422 17.1093 9.20859V14.7907C17.1093 15.0351 17.0266 15.2399 16.8613 15.4052C16.696 15.5705 16.4912 15.6532 16.2468 15.6532H14.8093V21.7578C14.8093 22.0022 14.7264 22.207 14.5607 22.3723C14.395 22.5376 14.1896 22.6203 13.9447 22.6203H13.2155C12.9705 22.6203 12.7666 22.5376 12.6037 22.3723C12.4407 22.207 12.3593 22.0022 12.3593 21.7578V15.6532H10.9218C10.6774 15.6532 10.4726 15.5705 10.3072 15.4052C10.2697 15.3676 10.2363 15.328 10.2073 15.2863C10.1282 15.7385 9.93862 16.1674 9.6361 16.5382Z" />
<path d="M9.20474 16.1167C9.5027 15.7321 9.65 15.2721 9.65 14.7907V9.20859C9.65 8.62977 9.49724 8.09397 9.20447 7.62497C8.91186 8.09387 8.75928 8.62993 8.75928 9.20859V14.7907C8.75928 15.2723 8.90658 15.732 9.20474 16.1167Z" />
<path d="M18.4077 16.523C18.7883 16.8109 19.2404 16.9532 19.7138 16.9532H19.8513V21.7578C19.8513 22.3236 20.0534 22.8624 20.4697 23.2848C20.8916 23.713 21.4359 23.9203 22.0075 23.9203H22.7367C23.308 23.9203 23.849 23.7134 24.2708 23.2927C24.6928 22.8718 24.9013 22.3305 24.9013 21.7578V16.9532H25.0388C25.6105 16.9532 26.1514 16.7456 26.5725 16.3244C26.9937 15.9033 27.2013 15.3624 27.2013 14.7907V9.20859C27.2013 8.3867 26.8935 7.65074 26.3138 7.07107C25.7341 6.49141 24.9982 6.18359 24.1763 6.18359H20.5763C19.7544 6.18359 19.0184 6.49141 18.4387 7.07107C18.414 7.09582 18.3898 7.12084 18.366 7.14615C18.6709 7.58075 18.8717 8.06993 18.9591 8.59557C19.0431 8.37401 19.176 8.17226 19.358 7.99031C19.6958 7.6525 20.1019 7.48359 20.5763 7.48359H24.1763C24.6506 7.48359 25.0567 7.6525 25.3946 7.99031C25.7324 8.32812 25.9013 8.73422 25.9013 9.20859V14.7907C25.9013 15.0351 25.8186 15.2399 25.6533 15.4052C25.488 15.5705 25.2831 15.6532 25.0388 15.6532H23.6013V21.7578C23.6013 22.0022 23.5184 22.207 23.3527 22.3723C23.187 22.5376 22.9816 22.6203 22.7367 22.6203H22.0075C21.7625 22.6203 21.5586 22.5376 21.3956 22.3723C21.2327 22.207 21.1513 22.0022 21.1513 21.7578V15.6532H19.7138C19.4694 15.6532 19.2645 15.5705 19.0992 15.4052C19.0499 15.3558 19.0079 15.3029 18.9732 15.2465C18.8995 15.7072 18.7118 16.1447 18.4077 16.523Z" />
<path d="M17.9804 16.0953C18.2674 15.7151 18.4093 15.2632 18.4093 14.7907V9.20859C18.4093 8.64065 18.2622 8.11414 17.9801 7.65148C17.6982 8.11405 17.5513 8.64081 17.5513 9.20859V14.7907C17.5513 15.2634 17.6932 15.715 17.9804 16.0953Z" />
<path fill-rule="evenodd" clip-rule="evenodd" d="M4.52217 1.59492C3.69374 1.59492 3.02217 2.26649 3.02217 3.09492C3.02217 3.92335 3.69374 4.59492 4.52217 4.59492C5.3506 4.59492 6.02217 3.92335 6.02217 3.09492C6.02217 2.26649 5.3506 1.59492 4.52217 1.59492ZM1.72217 3.09492C1.72217 1.54852 2.97577 0.294922 4.52217 0.294922C6.06857 0.294922 7.32217 1.54852 7.32217 3.09492C7.32217 4.64132 6.06857 5.89492 4.52217 5.89492C2.97577 5.89492 1.72217 4.64132 1.72217 3.09492Z" />
<path fill-rule="evenodd" clip-rule="evenodd" d="M22.3762 1.59492C21.5477 1.59492 20.8762 2.26649 20.8762 3.09492C20.8762 3.92335 21.5477 4.59492 22.3762 4.59492C23.2046 4.59492 23.8762 3.92335 23.8762 3.09492C23.8762 2.26649 23.2046 1.59492 22.3762 1.59492ZM19.5762 3.09492C19.5762 1.54852 20.8298 0.294922 22.3762 0.294922C23.9226 0.294922 25.1762 1.54852 25.1762 3.09492C25.1762 4.64132 23.9226 5.89492 22.3762 5.89492C20.8298 5.89492 19.5762 4.64132 19.5762 3.09492Z" />
<path fill-rule="evenodd" clip-rule="evenodd" d="M13.4489 1.59492C12.6205 1.59492 11.9489 2.26649 11.9489 3.09492C11.9489 3.92335 12.6205 4.59492 13.4489 4.59492C14.2774 4.59492 14.9489 3.92335 14.9489 3.09492C14.9489 2.26649 14.2774 1.59492 13.4489 1.59492ZM10.6489 3.09492C10.6489 1.54852 11.9025 0.294922 13.4489 0.294922C14.9953 0.294922 16.2489 1.54852 16.2489 3.09492C16.2489 4.64132 14.9953 5.89492 13.4489 5.89492C11.9025 5.89492 10.6489 4.64132 10.6489 3.09492Z" />
</svg>
