<svg width="20" height="20" viewBox="0 0 20 20" xmlns="http://www.w3.org/2000/svg">
	<path d="M2.22646 17.3251L3.90166 17.5183L14.7764 6.644L12.9175 4.78508L2.04274 15.6594L2.22646 17.3251ZM1.52616 19.0872C1.22532 19.0872 0.973151 18.9854 0.769644 18.7819C0.566118 18.5784 0.464355 18.3262 0.464355 18.0254L0.464355 15.9899C0.464355 15.7034 0.519334 15.4304 0.629291 15.1707C0.739228 14.9111 0.890585 14.6849 1.08336 14.4921L14.8091 0.773633C14.9868 0.612281 15.1829 0.4876 15.3975 0.399591C15.6122 0.311582 15.8373 0.267578 16.0728 0.267578C16.3083 0.267578 16.5365 0.30938 16.7573 0.392984C16.9781 0.476567 17.1736 0.609471 17.3438 0.791695L18.7783 2.24431C18.9606 2.41449 19.0905 2.61032 19.168 2.8318C19.2456 3.05326 19.2844 3.27472 19.2844 3.49618C19.2844 3.73241 19.244 3.95784 19.1634 4.17249C19.0827 4.38715 18.9544 4.58331 18.7783 4.76095L5.05937 18.4682C4.8666 18.6609 4.6404 18.8123 4.38078 18.9222C4.12114 19.0322 3.84808 19.0872 3.56159 19.0872H1.52616ZM13.8292 5.72278L12.9175 4.78508L14.7764 6.644L13.8292 5.72278Z" />
</svg>