<svg version="1.0" xmlns="http://www.w3.org/2000/svg" width="747.000000pt" height="623.000000pt" viewBox="0 0 747.000000 623.000000" preserveAspectRatio="xMidYMid meet">
	<g transform="translate(0.000000,623.000000) scale(0.100000,-0.100000)" stroke="none">
		<path d="M2572 6209 c-438 -59 -831 -328 -1060 -724 -236 -410 -255 -988 -47 -1422 190 -397 541 -690 943 -787 344 -83 725 -45 1017 101 191 96 442 319 558 494 174 264 248 518 248 854 0 282 -44 475 -162 705 -75 148 -159 259 -296 391 -203 196 -420 313 -688 371 -106 23 -398 32 -513 17z" />
		<path d="M4700 6214 c-62 -7 -219 -45 -225 -54 -3 -4 20 -44 51 -87 209 -295 349 -656 400 -1030 23 -172 23 -475 0 -638 -55 -388 -190 -731 -409 -1039 -27 -37 -45 -72 -40 -76 33 -33 298 -65 463 -56 370 19 660 143 923 396 337 323 498 752 458 1224 -32 370 -159 657 -408 916 -128 134 -241 220 -382 293 -214 111 -360 146 -621 152 -96 2 -191 1 -210 -1z" />
		<path d="M2540 2734 c-750 -53 -1360 -241 -1985 -612 -145 -86 -278 -207 -354 -320 -64 -95 -128 -236 -158 -347 -27 -97 -27 -107 -27 -375 0 -318 7 -358 93 -535 135 -275 367 -458 662 -522 80 -17 186 -18 2009 -18 1822 0 1930 1 2010 18 359 77 630 340 733 711 20 75 22 102 22 356 -1 267 -2 278 -28 375 -36 133 -129 319 -207 412 -78 95 -161 161 -308 250 -530 322 -1119 519 -1753 588 -138 15 -594 27 -709 19z" />
		<path d="M5464 2647 c227 -181 362 -344 471 -567 85 -175 170 -473 206 -719 28 -194 23 -550 -10 -703 -42 -192 -135 -420 -235 -573 -25 -38 -46 -73 -46 -77 0 -12 634 -9 749 2 232 24 397 100 565 260 215 205 306 445 306 805 -1 298 -63 531 -199 742 -106 165 -251 274 -590 445 -379 190 -773 323 -1206 406 l-50 10 39 -31z" />
	</g>
</svg>
