<svg width="74" height="131" viewBox="0 0 74 131" fill="none" xmlns="http://www.w3.org/2000/svg">
<path d="M67.9276 0.235174C67.6806 0.357986 67.3409 0.644549 67.166 0.859471C66.8572 1.23814 66.8469 1.27908 66.8469 2.30252C66.8469 3.52041 66.9396 3.71486 67.7526 4.26752C68.7304 4.92252 69.7699 4.82017 70.655 3.96049C71.149 3.47947 71.2005 3.37713 71.2622 2.84494C71.3446 2.22064 71.2725 1.62705 71.0667 1.22791C70.8917 0.890174 70.3256 0.368221 69.914 0.163533C69.4199 -0.0820918 68.4731 -0.0513887 67.9276 0.235174Z" fill="#C9CDD1"/>
<path d="M71.7975 15.9759C71.5813 16.027 70.9432 16.3443 70.3875 16.682C69.8317 17.0198 69.348 17.2961 69.3068 17.2961C69.2759 17.2961 68.998 17.4598 68.6893 17.6645C67.7321 18.2991 65.7663 19.0052 65.3032 18.8927C65.1694 18.862 64.84 18.5652 64.5621 18.2479C64.2946 17.9306 63.8211 17.4087 63.5124 17.0709C62.9875 16.508 62.936 16.4773 62.4626 16.4773C61.8759 16.4773 61.6495 16.7127 61.6495 17.3166C61.6495 17.7976 61.7524 18.033 62.3185 18.7801C62.9051 19.5579 63.5021 20.6939 63.5021 21.0214C63.5021 21.3694 63.7902 22.1984 64.027 22.5361C64.3975 23.0478 64.3048 23.2116 62.689 24.9514C61.3613 26.374 60.2704 27.2951 57.5944 29.2191C54.9288 31.133 54.1054 31.9313 53.138 33.579C52.3763 34.8583 51.8823 35.4519 51.3368 35.7282C50.6884 36.0557 50.2047 36.5572 48.9285 38.2356C48.2698 39.1056 47.5699 39.9345 47.3847 40.0778C47.1994 40.2211 47.0142 40.4463 46.973 40.5588C46.8598 40.9375 46.5201 41.2241 46.0982 41.2957C45.8717 41.3366 45.563 41.4697 45.4086 41.5925C45.2542 41.7153 44.7808 42.0428 44.3588 42.3191C43.0517 43.1686 42.4033 43.7008 41.1992 44.8675C40.561 45.4816 40.0361 45.9523 40.0361 45.9216C40.0361 45.8909 40.1905 45.5634 40.3861 45.2155C40.8801 44.3148 41.0654 43.5984 41.158 42.2168C41.2403 40.8863 41.3124 41.1729 40.3449 38.8906C40.1802 38.5017 40.0876 38.0105 40.0361 37.2941C39.9435 36.0148 39.82 35.6463 39.3775 35.2165C39.0481 34.8992 39.0378 34.8788 39.1716 34.5103C39.3157 34.1112 39.3569 32.9854 39.2539 32.4532C39.1613 32.0336 38.9864 32.0541 38.41 32.5555C37.7101 33.1594 37.1647 33.4562 36.4751 33.579C35.3327 33.7734 34.1182 34.2033 32.9346 34.8071C30.8556 35.8715 30.1969 36.506 29.425 38.1538C28.4576 40.2109 28.2826 41.3878 28.7046 43.1174C28.9825 44.2637 29.2192 44.7242 29.9705 45.543C31.3702 47.0577 31.9569 48.4291 31.8334 49.8312C31.7716 50.4452 31.7407 50.5271 31.3291 50.916C30.9585 51.2742 30.7939 51.3561 30.3616 51.4073C30.0631 51.4482 29.7647 51.5198 29.6926 51.5813C29.4868 51.7552 28.1076 51.8166 27.6136 51.6734C26.9652 51.4994 26.6976 51.6529 26.111 52.5638C25.7199 53.1573 25.4934 53.3927 25.0818 53.6281C24.7833 53.7919 24.1761 54.232 23.7232 54.6004C23.2704 54.9688 22.7043 55.368 22.4676 55.4806C22.2206 55.5931 22.0044 55.7364 21.9633 55.7876C21.9324 55.8388 21.7471 55.9513 21.5619 56.023C21.3663 56.1049 21.1399 56.3095 21.0576 56.4733C20.8826 56.8213 20.3165 57.0771 19.4623 57.2204C19.1535 57.2613 18.8345 57.3739 18.7418 57.4558C18.6492 57.5274 18.464 57.6298 18.3199 57.6707C18.1758 57.7014 17.7744 57.8754 17.4245 58.0596L16.7864 58.3666L16.3438 58.0801C15.4072 57.4558 13.3797 56.504 12.6386 56.3505C12.2578 56.2686 10.642 55.327 10.0965 54.8767C9.85979 54.6618 9.31431 54.2422 8.90263 53.9352C8.03809 53.2904 6.42224 51.9395 6.32961 51.7859C6.29873 51.7245 6.13406 51.6836 5.97968 51.6836C5.6915 51.6836 5.6915 51.6734 5.61946 50.9365C5.58858 50.5373 5.52683 50.0154 5.49595 49.78C5.44449 49.4013 5.47537 49.3195 5.90763 48.818C6.16494 48.5109 6.38107 48.2346 6.38107 48.1834C6.38107 48.1425 6.67954 47.7434 7.03976 47.3135C7.59553 46.6278 8.13072 45.7067 8.13072 45.4406C8.13072 45.3997 8.32627 45.1541 8.57328 44.9084C8.81 44.6526 9.29373 44.0999 9.65395 43.6701C10.889 42.1656 12.721 40.8761 16.7349 38.6962C17.4759 38.297 18.1243 37.9695 18.1861 37.9695C18.2375 37.9695 18.5875 37.7444 18.9477 37.4783C19.3079 37.2122 19.8328 36.8335 20.121 36.6391C20.8311 36.1478 22.1794 35.063 22.8484 34.4387C23.1571 34.1521 23.61 33.7837 23.857 33.6199C24.104 33.4562 24.351 33.231 24.4128 33.1184C24.4745 32.9956 24.701 32.6988 24.9068 32.443C25.3185 31.9313 25.8125 31.0306 26.0904 30.2426C26.1933 29.956 26.3168 29.6899 26.3683 29.6388C26.4094 29.5773 26.4506 28.8405 26.4506 28.0013C26.4506 26.548 26.43 26.4354 26.2036 26.0465C26.0595 25.8213 25.8022 25.371 25.617 25.0435C25.4317 24.716 25.1538 24.3783 24.9994 24.3066C24.8553 24.2248 24.5775 24.0406 24.4025 23.8973C23.6306 23.2423 21.8912 22.9352 20.1004 23.1195C19.0197 23.232 18.5566 23.3446 17.0334 23.887C16.3438 24.1327 14.8309 24.89 14.7176 25.064C14.6868 25.1049 14.4295 25.2687 14.131 25.4324C13.5032 25.7599 11.9388 27.1211 11.064 28.0934C10.7243 28.4618 10.3023 29.0452 10.1274 29.3727C9.95242 29.7002 9.75687 30.0379 9.69512 30.1198C9.62307 30.1914 9.49957 30.4575 9.41723 30.7031C9.3246 30.959 9.22168 31.1841 9.18051 31.2149C9.12905 31.2456 8.98496 31.7061 8.85117 32.2383C8.58357 33.3334 8.53211 34.8276 8.68649 36.9768C8.83058 38.8292 8.46007 40.7635 7.73962 41.9098C7.32794 42.575 5.74296 44.6219 5.65033 44.6219C5.59887 44.6219 5.34157 44.9289 5.09456 45.3076C3.67425 47.4056 3.68455 47.4056 3.08761 47.2623C2.71709 47.1805 2.54213 47.1907 2.23336 47.3135C1.89373 47.4568 1.85256 47.5182 1.85256 47.8355C1.85256 48.0299 1.7908 48.2449 1.72905 48.296C1.65701 48.3574 1.45117 48.5212 1.26591 48.6645C1.08065 48.8077 0.813058 49.1966 0.658677 49.5139C0.504296 49.8312 0.288162 50.2201 0.185242 50.3736C-0.07206 50.742 -0.0514759 51.1719 0.257286 51.745C0.401375 52.0111 0.514588 52.3079 0.514588 52.4102C0.514588 52.6252 1.04978 53.0959 1.52321 53.2904C1.70847 53.362 1.95548 53.5258 2.06869 53.6384C2.1922 53.7612 2.53183 53.9556 2.8303 54.0887C3.25228 54.2831 3.96243 54.8972 6.0826 56.9031C7.57495 58.3257 9.30402 59.8813 9.92154 60.3726C10.5391 60.8536 11.2801 61.437 11.5683 61.6723C12.474 62.3785 14.553 63.5043 15.9115 64.016C16.282 64.1593 16.7555 64.3538 16.9716 64.4663C17.3524 64.671 18.5257 64.7324 25.3905 64.9576L27.4695 65.019L27.7783 65.7661C28.0253 66.3495 28.0973 66.6667 28.0973 67.2091C28.0973 68.2838 28.2826 69.778 28.4576 70.1055C28.5399 70.2692 28.6119 70.566 28.6119 70.7809C28.6119 70.9856 28.7149 71.3336 28.8384 71.5588L29.0751 71.9681L28.7149 72.2649C28.3546 72.5617 28.3546 72.572 28.3546 73.4112C28.3546 73.8717 28.2929 74.3834 28.2106 74.5574C28.1385 74.7212 28.0459 75.0691 27.9944 75.3148C27.943 75.5911 27.8195 75.847 27.6548 75.98C27.4592 76.1438 27.3872 76.3177 27.346 76.7373C27.3151 77.1365 27.2328 77.3514 27.0476 77.5561C26.7182 77.9041 26.4506 78.4158 26.4506 78.7023C26.4506 78.8252 26.5227 79.0606 26.6153 79.2345L26.78 79.5416L25.8948 80.4422C25.4111 80.9334 24.9274 81.5168 24.8348 81.7317C24.6186 82.2332 24.5157 84.976 24.6907 85.5594C24.7833 85.8869 24.773 86.0199 24.5363 86.593C24.3819 86.9513 24.1966 87.4527 24.1246 87.7086C23.9393 88.3431 23.7232 88.9163 23.4865 89.3768C23.3733 89.5815 23.1983 90.2058 23.1057 90.7584C23.0131 91.3009 22.8381 92.2117 22.7249 92.7746C22.6117 93.3375 22.4882 93.9823 22.447 94.2074C22.4058 94.4326 22.3235 94.7089 22.2617 94.8215C22.2 94.9341 22.0971 95.3434 22.025 95.7426C21.953 96.1315 21.8295 96.6637 21.7574 96.9093C21.5722 97.4927 21.5722 97.6257 21.7883 97.8611C21.9427 98.0351 21.953 98.1579 21.8398 99.1506C21.7677 99.7647 21.7163 100.686 21.7163 101.218C21.7163 102.579 21.3972 104.053 20.9546 104.79C20.7591 105.107 20.4709 105.619 20.3165 105.926C20.0386 106.448 19.9049 106.56 19.2462 106.837C18.7007 107.062 17.8361 107.604 17.3318 108.034C16.8893 108.403 16.6834 108.72 16.0865 109.886C15.6851 110.664 15.2631 111.606 15.1396 111.995C15.0058 112.384 14.8206 112.721 14.7176 112.783C14.6044 112.844 14.1207 113.428 13.6267 114.093C13.1327 114.748 12.4637 115.567 12.1343 115.904C11.4859 116.58 11.2183 117.081 10.714 118.668C10.5288 119.23 10.2509 120.039 10.0862 120.469C9.92154 120.899 9.67453 121.861 9.53044 122.618C9.38635 123.375 9.2011 124.358 9.10847 124.808C8.87175 126.057 8.72766 127.664 8.76883 128.493C8.79971 129.168 8.84087 129.291 9.23197 129.833L9.65395 130.437L11.5889 130.713L13.5341 131L14.5015 130.775C15.5719 130.519 15.6645 130.447 16.2512 129.322C16.5496 128.759 16.5702 128.667 16.5702 127.582C16.5702 126.957 16.5085 125.801 16.4467 125.013C16.21 122.383 16.3335 120.981 16.9202 119.793C17.1877 119.241 17.4965 118.299 17.4965 118.002C17.4965 117.399 18.6492 116.037 19.6064 115.495C19.8946 115.331 20.3886 114.953 20.7179 114.656C21.0473 114.359 21.3663 114.113 21.4178 114.113C21.6751 114.113 22.4573 113.448 22.8175 112.936C23.0954 112.537 23.363 112.302 23.7335 112.107C24.032 111.964 24.4951 111.647 24.7627 111.411C25.0406 111.176 25.4214 110.879 25.6067 110.746C26.6565 110.02 27.943 108.003 28.7766 105.772C29.003 105.148 29.2912 104.462 29.4044 104.237C29.5176 104.012 29.7647 103.316 29.9396 102.702C30.8556 99.5702 30.7012 99.7852 31.9672 99.7852C32.5023 99.7852 33.0375 99.734 33.1507 99.6828C33.2537 99.6214 33.6139 99.5395 33.9329 99.4986L34.5196 99.427L34.7049 98.9152C34.8078 98.6287 34.9622 98.1067 35.0548 97.7588C35.1474 97.4005 35.2812 96.9809 35.3635 96.8377C35.4459 96.6841 35.5076 96.5102 35.5076 96.4488C35.5076 96.3976 35.6517 96.1213 35.837 95.8347C36.3001 95.1183 36.8456 94.0437 36.8456 93.8492C36.8456 93.7571 36.8765 93.6445 36.9176 93.6138C36.9897 93.532 37.7719 95.3025 37.7719 95.5686C37.7719 95.6709 37.8439 95.8449 37.9263 95.9575C38.0086 96.0701 38.0704 96.3873 38.0807 96.7148C38.0807 97.3698 38.3174 98.3728 38.5438 98.6901C38.6261 98.8129 38.6982 98.9766 38.6982 99.0688C38.7085 99.2837 39.7171 100.338 40.1391 100.553C40.3346 100.655 40.664 100.768 40.8595 100.798C41.1889 100.86 41.2403 100.911 41.4565 101.525C41.6829 102.139 42.0946 104.114 42.3004 105.568C42.3519 105.905 42.4857 106.622 42.5989 107.154C42.9076 108.536 42.8973 108.628 42.3724 108.986C41.9505 109.272 41.2609 110.153 40.4684 111.381C39.4495 112.988 39.2951 113.325 39.1099 114.216C38.9761 114.85 38.832 115.239 38.6364 115.495C38.3277 115.904 38.0498 116.375 37.8645 116.815C37.422 117.88 37.1955 118.146 36.4751 118.514C35.7444 118.883 35.5076 119.159 35.5076 119.65C35.5076 119.896 34.9622 121.636 34.4784 122.966C34.2932 123.468 34.2623 123.703 34.3138 124.276C34.3446 124.665 34.4373 125.085 34.5093 125.218C34.7254 125.606 35.9296 126.579 36.6398 126.927C37.2573 127.224 37.4014 127.254 38.5541 127.295L39.8097 127.336L39.9744 127.705C40.0567 127.919 40.1802 128.267 40.242 128.503C40.2934 128.728 40.4272 128.994 40.5302 129.086C40.6331 129.178 41.3329 129.536 42.0946 129.874L43.4634 130.488H45.4909H47.5185L47.817 129.792C47.9816 129.414 48.1051 129.055 48.0948 129.004C48.0845 128.943 48.0022 128.534 47.9096 128.093C47.7346 127.285 47.7243 127.275 46.9215 126.476C46.479 126.036 46.1085 125.637 46.1085 125.586C46.1085 125.535 45.9644 125.381 45.7894 125.248C45.6144 125.115 45.316 124.87 45.1307 124.706C44.9455 124.532 44.6676 124.296 44.5235 124.174C44.3794 124.041 44.2559 123.867 44.2559 123.785C44.2559 123.693 44.1427 123.58 43.9986 123.529C43.8442 123.468 43.7207 123.324 43.6795 123.15C43.6384 122.997 43.556 122.802 43.4943 122.72C43.4119 122.608 43.4119 122.567 43.5149 122.526C43.7516 122.454 43.9471 122.188 43.9471 121.943C43.9471 121.513 43.6898 121.369 42.7121 121.247C42.5165 121.216 42.3519 120.755 42.4342 120.448C42.5268 120.1 45.738 116.918 46.8804 116.048C47.5905 115.505 48.8976 113.54 49.2475 112.476C49.3505 112.169 49.5666 111.626 49.721 111.268C50.0606 110.511 50.1944 109.866 50.3797 107.973C50.462 107.215 50.5958 105.834 50.6884 104.902C50.8531 103.234 50.8531 101.883 50.6781 98.1579C50.637 97.1856 50.6576 96.6739 50.7399 96.3976C50.8634 96.0496 50.8428 95.9677 50.4826 95.2309C50.1018 94.4428 49.9783 93.9209 49.8548 92.6211C49.8136 92.2527 49.7416 91.8945 49.6798 91.8228C49.6181 91.7409 49.5357 91.4646 49.4946 91.2088C49.4534 90.9427 49.3402 90.4821 49.2578 90.1751C48.98 89.213 48.9388 88.1589 49.1446 87.4016C49.4431 86.3577 49.4534 85.7538 49.1961 84.8123C49.0726 84.3517 48.877 83.7888 48.7741 83.5637C48.6609 83.3385 48.5065 82.8882 48.4242 82.5505C48.3418 82.223 48.1669 81.7624 48.0331 81.527C47.8993 81.3019 47.7552 80.8925 47.7243 80.6162C47.6832 80.3501 47.5597 79.9509 47.4464 79.7258C47.3332 79.5109 47.2406 79.2345 47.2406 79.1117C47.2406 78.9377 47.3023 78.907 47.6934 78.907C48.1978 78.907 48.6815 78.7535 48.805 78.5693C48.9079 78.4055 48.8976 77.116 48.7947 76.6043C48.7432 76.3791 48.63 75.806 48.5271 75.325C48.4345 74.844 48.3213 74.3118 48.2698 74.148C48.2183 73.9741 48.0948 73.6056 48.0125 73.3088C47.6214 72.0602 47.5494 71.0061 47.6523 68.427C47.714 67.0863 47.8067 65.7968 47.8581 65.5614C48.0434 64.7631 47.9816 62.5934 47.7346 61.437C47.5391 60.5159 47.5288 60.3214 47.642 60.0451C47.8787 59.472 47.9096 57.7423 47.7037 56.6984C47.5802 56.0434 47.5391 55.5113 47.5802 54.9279C47.642 54.0273 47.7861 53.577 48.311 52.7684C48.6094 52.2977 49.2887 51.1002 49.8651 50.0052C50.0092 49.7186 50.2356 49.5037 50.5752 49.3195C50.8428 49.1762 51.1207 48.992 51.203 48.9101C51.2751 48.8282 51.3883 48.3779 51.4501 47.8969C51.7279 45.7477 51.7691 45.5839 52.0779 45.1336C52.1808 44.9903 52.7263 43.9464 53.3026 42.8206C54.2804 40.8761 54.5686 40.4258 55.8448 38.8906C56.0712 38.6143 56.4314 38.0821 56.6475 37.7239C56.9357 37.2327 57.3783 36.7516 58.3457 35.892C59.4882 34.8583 60.3527 33.9986 61.4951 32.75C61.6701 32.5555 61.9788 32.1564 62.1641 31.8801C62.3494 31.5935 62.7199 31.133 62.9772 30.8464C63.8108 29.9151 64.593 28.9326 65.0356 28.2162C65.3546 27.7249 65.6428 27.4179 66.0442 27.1518C66.6 26.7936 66.7235 26.6196 67.2896 25.4324C67.4028 25.2073 67.7733 24.6034 68.1129 24.0815C68.6584 23.2627 68.7922 23.1297 69.1524 23.0171C69.6567 22.8636 69.8523 22.6691 69.9037 22.2598C69.9243 22.0551 69.9964 21.9425 70.1405 21.922C70.2537 21.9016 70.7683 21.7071 71.2726 21.4922C71.7872 21.2773 72.3944 21.0726 72.6414 21.0316C73.1869 20.9395 73.7941 20.4176 73.7941 20.0287C73.7941 19.7319 73.4545 19.3634 73.1149 19.2816C73.0016 19.2509 72.6311 19.2918 72.2915 19.3839C71.9622 19.4658 71.674 19.517 71.6431 19.4965C71.5711 19.4146 72.487 19.0564 73.0943 18.9336C73.7736 18.8006 74 18.6266 74 18.2377C74 17.8283 73.7427 17.5315 73.331 17.4598C73.1354 17.4189 72.9708 17.3677 72.9708 17.3473C72.9708 17.3166 73.0634 17.1528 73.1766 16.9686C73.4545 16.5183 73.4339 16.3341 73.1149 16.0782C72.8267 15.8531 72.4562 15.8223 71.7975 15.9759ZM11.3624 39.4024C11.5271 39.4535 11.4345 39.5559 10.8684 39.9448C10.4876 40.2109 10.1686 40.4258 10.148 40.4258C10.1274 40.4258 10.148 40.2109 10.1891 39.9448C10.3023 39.2386 10.5597 39.1158 11.3624 39.4024Z" fill="#C9CDD1"/>
</svg>
