<svg width="20" height="20" viewBox="0 0 20 20" fill="none" xmlns="http://www.w3.org/2000/svg">
<path d="M15.0239 19.5C13.7739 19.5 12.7114 19.0625 11.8364 18.1875C10.9614 17.3125 10.5239 16.25 10.5239 15C10.5239 13.75 10.9614 12.6875 11.8364 11.8125C12.7114 10.9375 13.7739 10.5 15.0239 10.5C16.2739 10.5 17.3364 10.9375 18.2114 11.8125C19.0864 12.6875 19.5239 13.75 19.5239 15C19.5239 16.25 19.0864 17.3125 18.2114 18.1875C17.3364 19.0625 16.2739 19.5 15.0239 19.5ZM15.0239 17.5C15.7239 17.5 16.3156 17.2583 16.7989 16.775C17.2823 16.2917 17.5239 15.7 17.5239 15C17.5239 14.3 17.2823 13.7083 16.7989 13.225C16.3156 12.7417 15.7239 12.5 15.0239 12.5C14.3239 12.5 13.7323 12.7417 13.2489 13.225C12.7656 13.7083 12.5239 14.3 12.5239 15C12.5239 15.7 12.7656 16.2917 13.2489 16.775C13.7323 17.2583 14.3239 17.5 15.0239 17.5Z" fill="#0085F4"/>
<path d="M5.02393 19.5C3.77393 19.5 2.71143 19.0625 1.83643 18.1875C0.961426 17.3125 0.523926 16.25 0.523926 15C0.523926 13.75 0.961426 12.6875 1.83643 11.8125C2.71143 10.9375 3.77393 10.5 5.02393 10.5C6.27393 10.5 7.33643 10.9375 8.21143 11.8125C9.08643 12.6875 9.52393 13.75 9.52393 15C9.52393 16.25 9.08643 17.3125 8.21143 18.1875C7.33643 19.0625 6.27393 19.5 5.02393 19.5ZM5.02393 17.5C5.72393 17.5 6.31559 17.2583 6.79893 16.775C7.28226 16.2917 7.52393 15.7 7.52393 15C7.52393 14.3 7.28226 13.7083 6.79893 13.225C6.31559 12.7417 5.72393 12.5 5.02393 12.5C4.32393 12.5 3.73226 12.7417 3.24893 13.225C2.76559 13.7083 2.52393 14.3 2.52393 15C2.52393 15.7 2.76559 16.2917 3.24893 16.775C3.73226 17.2583 4.32393 17.5 5.02393 17.5Z" fill="#0085F4"/>
<path d="M5.02393 9.5C3.77393 9.5 2.71143 9.0625 1.83643 8.1875C0.961426 7.3125 0.523926 6.25 0.523926 5C0.523926 3.75 0.961426 2.6875 1.83643 1.8125C2.71143 0.9375 3.77393 0.5 5.02393 0.5C6.27393 0.5 7.33643 0.9375 8.21143 1.8125C9.08643 2.6875 9.52393 3.75 9.52393 5C9.52393 6.25 9.08643 7.3125 8.21143 8.1875C7.33643 9.0625 6.27393 9.5 5.02393 9.5ZM5.02393 7.5C5.72393 7.5 6.31559 7.25833 6.79893 6.775C7.28226 6.29167 7.52393 5.7 7.52393 5C7.52393 4.3 7.28226 3.70833 6.79893 3.225C6.31559 2.74167 5.72393 2.5 5.02393 2.5C4.32393 2.5 3.73226 2.74167 3.24893 3.225C2.76559 3.70833 2.52393 4.3 2.52393 5C2.52393 5.7 2.76559 6.29167 3.24893 6.775C3.73226 7.25833 4.32393 7.5 5.02393 7.5Z" fill="#0085F4"/>
<path d="M15.0239 9.5C13.7739 9.5 12.7114 9.0625 11.8364 8.1875C10.9614 7.3125 10.5239 6.25 10.5239 5C10.5239 3.75 10.9614 2.6875 11.8364 1.8125C12.7114 0.9375 13.7739 0.5 15.0239 0.5C16.2739 0.5 17.3364 0.9375 18.2114 1.8125C19.0864 2.6875 19.5239 3.75 19.5239 5C19.5239 6.25 19.0864 7.3125 18.2114 8.1875C17.3364 9.0625 16.2739 9.5 15.0239 9.5ZM15.0239 7.5C15.7239 7.5 16.3156 7.25833 16.7989 6.775C17.2823 6.29167 17.5239 5.7 17.5239 5C17.5239 4.3 17.2823 3.70833 16.7989 3.225C16.3156 2.74167 15.7239 2.5 15.0239 2.5C14.3239 2.5 13.7323 2.74167 13.2489 3.225C12.7656 3.70833 12.5239 4.3 12.5239 5C12.5239 5.7 12.7656 6.29167 13.2489 6.775C13.7323 7.25833 14.3239 7.5 15.0239 7.5Z" fill="#0085F4"/>
</svg>
