<svg width="74" height="116" viewBox="0 0 74 116" fill="none" xmlns="http://www.w3.org/2000/svg">
<path d="M71.7975 0.975861C71.5813 1.02704 70.9432 1.3443 70.3875 1.68204C69.8317 2.01977 69.348 2.2961 69.3068 2.2961C69.2759 2.2961 68.998 2.45985 68.6893 2.66454C67.7321 3.29906 65.7663 4.00524 65.3032 3.89266C65.1694 3.86196 64.84 3.56516 64.5621 3.24789C64.2946 2.93063 63.8211 2.40868 63.5124 2.07095C62.9875 1.50805 62.936 1.47735 62.4626 1.47735C61.8759 1.47735 61.6495 1.71274 61.6495 2.31657C61.6495 2.79758 61.7524 3.03297 62.3185 3.78008C62.9051 4.55789 63.5021 5.69391 63.5021 6.02141C63.5021 6.36938 63.7902 7.19836 64.027 7.5361C64.3975 8.04781 64.3048 8.21157 62.689 9.95141C61.3613 11.374 60.2704 12.2951 57.5944 14.2191C54.9288 16.133 54.1054 16.9313 53.138 18.579C52.3763 19.8583 51.8823 20.4519 51.3368 20.7282C50.6884 21.0557 50.2047 21.5572 48.9285 23.2356C48.2698 24.1056 47.5699 24.9345 47.3847 25.0778C47.1994 25.2211 47.0142 25.4463 46.973 25.5588C46.8598 25.9375 46.5201 26.2241 46.0982 26.2957C45.8717 26.3366 45.563 26.4697 45.4086 26.5925C45.2542 26.7153 44.7808 27.0428 44.3588 27.3191C43.0517 28.1686 42.4033 28.7008 41.1992 29.8675C40.561 30.4816 40.0361 30.9523 40.0361 30.9216C40.0361 30.8909 40.1905 30.5634 40.3861 30.2155C40.8801 29.3148 41.0654 28.5984 41.158 27.2168C41.2403 25.8863 41.3124 26.1729 40.3449 23.8906C40.1802 23.5017 40.0876 23.0105 40.0361 22.2941C39.9435 21.0148 39.82 20.6463 39.3775 20.2165C39.0481 19.8992 39.0378 19.8788 39.1716 19.5103C39.3157 19.1112 39.3569 17.9854 39.2539 17.4532C39.1613 17.0336 38.9864 17.0541 38.41 17.5555C37.7101 18.1594 37.1647 18.4562 36.4751 18.579C35.3327 18.7734 34.1182 19.2033 32.9346 19.8071C30.8556 20.8715 30.1969 21.506 29.425 23.1538C28.4576 25.2109 28.2826 26.3878 28.7046 28.1174C28.9825 29.2637 29.2192 29.7242 29.9705 30.543C31.3702 32.0577 31.9569 33.4291 31.8334 34.8312C31.7716 35.4452 31.7407 35.5271 31.3291 35.916C30.9585 36.2742 30.7939 36.3561 30.3616 36.4073C30.0631 36.4482 29.7647 36.5198 29.6926 36.5813C29.4868 36.7552 28.1076 36.8166 27.6136 36.6734C26.9652 36.4994 26.6976 36.6529 26.111 37.5638C25.7199 38.1573 25.4934 38.3927 25.0818 38.6281C24.7833 38.7919 24.1761 39.232 23.7232 39.6004C23.2704 39.9688 22.7043 40.368 22.4676 40.4806C22.2206 40.5931 22.0044 40.7364 21.9633 40.7876C21.9324 40.8388 21.7471 40.9513 21.5619 41.023C21.3663 41.1049 21.1399 41.3095 21.0576 41.4733C20.8826 41.8213 20.3165 42.0771 19.4623 42.2204C19.1535 42.2613 18.8345 42.3739 18.7418 42.4558C18.6492 42.5274 18.464 42.6298 18.3199 42.6707C18.1758 42.7014 17.7744 42.8754 17.4245 43.0596L16.7864 43.3666L16.3438 43.0801C15.4072 42.4558 13.3797 41.504 12.6386 41.3505C12.2578 41.2686 10.642 40.327 10.0965 39.8767C9.85979 39.6618 9.31431 39.2422 8.90263 38.9352C8.03809 38.2904 6.42224 36.9395 6.32961 36.7859C6.29873 36.7245 6.13406 36.6836 5.97968 36.6836C5.6915 36.6836 5.6915 36.6734 5.61946 35.9365C5.58858 35.5373 5.52683 35.0154 5.49595 34.78C5.44449 34.4013 5.47537 34.3195 5.90763 33.818C6.16494 33.5109 6.38107 33.2346 6.38107 33.1834C6.38107 33.1425 6.67954 32.7434 7.03976 32.3135C7.59553 31.6278 8.13072 30.7067 8.13072 30.4406C8.13072 30.3997 8.32627 30.1541 8.57328 29.9084C8.81 29.6526 9.29373 29.0999 9.65395 28.6701C10.889 27.1656 12.721 25.8761 16.7349 23.6962C17.4759 23.297 18.1243 22.9695 18.1861 22.9695C18.2375 22.9695 18.5875 22.7444 18.9477 22.4783C19.3079 22.2122 19.8328 21.8335 20.121 21.6391C20.8311 21.1478 22.1794 20.063 22.8484 19.4387C23.1571 19.1521 23.61 18.7837 23.857 18.6199C24.104 18.4562 24.351 18.231 24.4128 18.1184C24.4745 17.9956 24.701 17.6988 24.9068 17.443C25.3185 16.9313 25.8125 16.0306 26.0904 15.2426C26.1933 14.956 26.3168 14.6899 26.3683 14.6388C26.4094 14.5773 26.4506 13.8405 26.4506 13.0013C26.4506 11.548 26.43 11.4354 26.2036 11.0465C26.0595 10.8213 25.8022 10.371 25.617 10.0435C25.4317 9.71602 25.1538 9.37829 24.9994 9.30665C24.8553 9.22477 24.5775 9.04055 24.4025 8.89727C23.6306 8.24227 21.8912 7.93524 20.1004 8.11946C19.0197 8.23203 18.5566 8.34461 17.0334 8.88704C16.3438 9.13266 14.8309 9.89001 14.7176 10.064C14.6868 10.1049 14.4295 10.2687 14.131 10.4324C13.5032 10.7599 11.9388 12.1211 11.064 13.0934C10.7243 13.4618 10.3023 14.0452 10.1274 14.3727C9.95242 14.7002 9.75687 15.0379 9.69512 15.1198C9.62307 15.1914 9.49957 15.4575 9.41723 15.7031C9.3246 15.959 9.22168 16.1841 9.18051 16.2149C9.12905 16.2456 8.98496 16.7061 8.85117 17.2383C8.58357 18.3334 8.53211 19.8276 8.68649 21.9768C8.83058 23.8292 8.46007 25.7635 7.73962 26.9098C7.32794 27.575 5.74296 29.6219 5.65033 29.6219C5.59887 29.6219 5.34157 29.9289 5.09456 30.3076C3.67425 32.4056 3.68455 32.4056 3.08761 32.2623C2.71709 32.1805 2.54213 32.1907 2.23336 32.3135C1.89373 32.4568 1.85256 32.5182 1.85256 32.8355C1.85256 33.0299 1.7908 33.2449 1.72905 33.296C1.65701 33.3574 1.45117 33.5212 1.26591 33.6645C1.08065 33.8077 0.813058 34.1966 0.658677 34.5139C0.504296 34.8312 0.288162 35.2201 0.185242 35.3736C-0.07206 35.742 -0.0514759 36.1719 0.257286 36.745C0.401375 37.0111 0.514588 37.3079 0.514588 37.4102C0.514588 37.6252 1.04978 38.0959 1.52321 38.2904C1.70847 38.362 1.95548 38.5258 2.06869 38.6384C2.1922 38.7612 2.53183 38.9556 2.8303 39.0887C3.25228 39.2831 3.96243 39.8972 6.0826 41.9031C7.57495 43.3257 9.30402 44.8813 9.92154 45.3726C10.5391 45.8536 11.2801 46.437 11.5683 46.6723C12.474 47.3785 14.553 48.5043 15.9115 49.016C16.282 49.1593 16.7555 49.3538 16.9716 49.4663C17.3524 49.671 18.5257 49.7324 25.3905 49.9576L27.4695 50.019L27.7783 50.7661C28.0253 51.3495 28.0973 51.6667 28.0973 52.2091C28.0973 53.2838 28.2826 54.778 28.4576 55.1055C28.5399 55.2692 28.6119 55.566 28.6119 55.7809C28.6119 55.9856 28.7149 56.3336 28.8384 56.5588L29.0751 56.9681L28.7149 57.2649C28.3546 57.5617 28.3546 57.572 28.3546 58.4112C28.3546 58.8717 28.2929 59.3834 28.2106 59.5574C28.1385 59.7212 28.0459 60.0691 27.9944 60.3148C27.943 60.5911 27.8195 60.847 27.6548 60.98C27.4592 61.1438 27.3872 61.3177 27.346 61.7373C27.3151 62.1365 27.2328 62.3514 27.0476 62.5561C26.7182 62.9041 26.4506 63.4158 26.4506 63.7023C26.4506 63.8252 26.5227 64.0606 26.6153 64.2345L26.78 64.5416L25.8948 65.4422C25.4111 65.9334 24.9274 66.5168 24.8348 66.7317C24.6186 67.2332 24.5157 69.976 24.6907 70.5594C24.7833 70.8869 24.773 71.0199 24.5363 71.593C24.3819 71.9513 24.1966 72.4527 24.1246 72.7086C23.9393 73.3431 23.7232 73.9163 23.4865 74.3768C23.3733 74.5815 23.1983 75.2058 23.1057 75.7584C23.0131 76.3009 22.8381 77.2117 22.7249 77.7746C22.6117 78.3375 22.4882 78.9823 22.447 79.2074C22.4058 79.4326 22.3235 79.7089 22.2617 79.8215C22.2 79.9341 22.0971 80.3434 22.025 80.7426C21.953 81.1315 21.8295 81.6637 21.7574 81.9093C21.5722 82.4927 21.5722 82.6257 21.7883 82.8611C21.9427 83.0351 21.953 83.1579 21.8398 84.1506C21.7677 84.7647 21.7163 85.6858 21.7163 86.218C21.7163 87.5791 21.3972 89.0529 20.9546 89.7898C20.7591 90.107 20.4709 90.6188 20.3165 90.9258C20.0386 91.4477 19.9049 91.5603 19.2462 91.8366C18.7007 92.0618 17.8361 92.6042 17.3318 93.0341C16.8893 93.4025 16.6834 93.7198 16.0865 94.8865C15.6851 95.6643 15.2631 96.6059 15.1396 96.9948C15.0058 97.3837 14.8206 97.7214 14.7176 97.7828C14.6044 97.8442 14.1207 98.4276 13.6267 99.0928C13.1327 99.7478 12.4637 100.567 12.1343 100.904C11.4859 101.58 11.2183 102.081 10.714 103.668C10.5288 104.23 10.2509 105.039 10.0862 105.469C9.92154 105.899 9.67453 106.861 9.53044 107.618C9.38635 108.375 9.2011 109.358 9.10847 109.808C8.87175 111.057 8.72766 112.664 8.76883 113.493C8.79971 114.168 8.84087 114.291 9.23197 114.833L9.65395 115.437L11.5889 115.713L13.5341 116L14.5015 115.775C15.5719 115.519 15.6645 115.447 16.2512 114.322C16.5496 113.759 16.5702 113.667 16.5702 112.582C16.5702 111.957 16.5085 110.801 16.4467 110.013C16.21 107.383 16.3335 105.981 16.9202 104.793C17.1877 104.241 17.4965 103.299 17.4965 103.002C17.4965 102.399 18.6492 101.037 19.6064 100.495C19.8946 100.331 20.3886 99.9525 20.7179 99.6557C21.0473 99.3589 21.3663 99.1133 21.4178 99.1133C21.6751 99.1133 22.4573 98.448 22.8175 97.9363C23.0954 97.5372 23.363 97.3018 23.7335 97.1073C24.032 96.9641 24.4951 96.6468 24.7627 96.4114C25.0406 96.176 25.4214 95.8792 25.6067 95.7462C26.6565 95.0195 27.943 93.0034 28.7766 90.7723C29.003 90.148 29.2912 89.4623 29.4044 89.2371C29.5176 89.012 29.7647 88.316 29.9396 87.702C30.8556 84.5702 30.7012 84.7852 31.9672 84.7852C32.5023 84.7852 33.0375 84.734 33.1507 84.6828C33.2537 84.6214 33.6139 84.5395 33.9329 84.4986L34.5196 84.427L34.7049 83.9152C34.8078 83.6287 34.9622 83.1067 35.0548 82.7588C35.1474 82.4005 35.2812 81.9809 35.3635 81.8377C35.4459 81.6841 35.5076 81.5102 35.5076 81.4488C35.5076 81.3976 35.6517 81.1213 35.837 80.8347C36.3001 80.1183 36.8456 79.0437 36.8456 78.8492C36.8456 78.7571 36.8765 78.6445 36.9176 78.6138C36.9897 78.532 37.7719 80.3025 37.7719 80.5686C37.7719 80.6709 37.8439 80.8449 37.9263 80.9575C38.0086 81.0701 38.0704 81.3873 38.0807 81.7148C38.0807 82.3698 38.3174 83.3728 38.5438 83.6901C38.6261 83.8129 38.6982 83.9766 38.6982 84.0688C38.7085 84.2837 39.7171 85.3378 40.1391 85.5527C40.3346 85.6551 40.664 85.7677 40.8595 85.7984C41.1889 85.8598 41.2403 85.9109 41.4565 86.525C41.6829 87.1391 42.0946 89.1143 42.3004 90.5676C42.3519 90.9053 42.4857 91.6217 42.5989 92.1539C42.9076 93.5355 42.8973 93.6277 42.3724 93.9859C41.9505 94.2724 41.2609 95.1526 40.4684 96.3807C39.4495 97.9875 39.2951 98.3252 39.1099 99.2156C38.9761 99.8502 38.832 100.239 38.6364 100.495C38.3277 100.904 38.0498 101.375 37.8645 101.815C37.422 102.88 37.1955 103.146 36.4751 103.514C35.7444 103.883 35.5076 104.159 35.5076 104.65C35.5076 104.896 34.9622 106.636 34.4784 107.966C34.2932 108.468 34.2623 108.703 34.3138 109.276C34.3446 109.665 34.4373 110.085 34.5093 110.218C34.7254 110.606 35.9296 111.579 36.6398 111.927C37.2573 112.224 37.4014 112.254 38.5541 112.295L39.8097 112.336L39.9744 112.705C40.0567 112.919 40.1802 113.267 40.242 113.503C40.2934 113.728 40.4272 113.994 40.5302 114.086C40.6331 114.178 41.3329 114.536 42.0946 114.874L43.4634 115.488H45.4909H47.5185L47.817 114.792C47.9816 114.414 48.1051 114.055 48.0948 114.004C48.0845 113.943 48.0022 113.534 47.9096 113.093C47.7346 112.285 47.7243 112.275 46.9215 111.476C46.479 111.036 46.1085 110.637 46.1085 110.586C46.1085 110.535 45.9644 110.381 45.7894 110.248C45.6144 110.115 45.316 109.87 45.1307 109.706C44.9455 109.532 44.6676 109.296 44.5235 109.174C44.3794 109.041 44.2559 108.867 44.2559 108.785C44.2559 108.693 44.1427 108.58 43.9986 108.529C43.8442 108.468 43.7207 108.324 43.6795 108.15C43.6384 107.997 43.556 107.802 43.4943 107.72C43.4119 107.608 43.4119 107.567 43.5149 107.526C43.7516 107.454 43.9471 107.188 43.9471 106.943C43.9471 106.513 43.6898 106.369 42.7121 106.247C42.5165 106.216 42.3519 105.755 42.4342 105.448C42.5268 105.1 45.738 101.918 46.8804 101.048C47.5905 100.505 48.8976 98.5402 49.2475 97.4758C49.3505 97.1688 49.5666 96.6263 49.721 96.2681C50.0606 95.5108 50.1944 94.866 50.3797 92.9727C50.462 92.2153 50.5958 90.8337 50.6884 89.9023C50.8531 88.2341 50.8531 86.8832 50.6781 83.1579C50.637 82.1856 50.6576 81.6739 50.7399 81.3976C50.8634 81.0496 50.8428 80.9677 50.4826 80.2309C50.1018 79.4428 49.9783 78.9209 49.8548 77.6211C49.8136 77.2527 49.7416 76.8945 49.6798 76.8228C49.6181 76.7409 49.5357 76.4646 49.4946 76.2088C49.4534 75.9427 49.3402 75.4821 49.2578 75.1751C48.98 74.213 48.9388 73.1589 49.1446 72.4016C49.4431 71.3577 49.4534 70.7538 49.1961 69.8123C49.0726 69.3517 48.877 68.7888 48.7741 68.5637C48.6609 68.3385 48.5065 67.8882 48.4242 67.5505C48.3418 67.223 48.1669 66.7624 48.0331 66.527C47.8993 66.3019 47.7552 65.8925 47.7243 65.6162C47.6832 65.3501 47.5597 64.9509 47.4464 64.7258C47.3332 64.5109 47.2406 64.2345 47.2406 64.1117C47.2406 63.9377 47.3023 63.907 47.6934 63.907C48.1978 63.907 48.6815 63.7535 48.805 63.5693C48.9079 63.4055 48.8976 62.116 48.7947 61.6043C48.7432 61.3791 48.63 60.806 48.5271 60.325C48.4345 59.844 48.3213 59.3118 48.2698 59.148C48.2183 58.9741 48.0948 58.6056 48.0125 58.3088C47.6214 57.0602 47.5494 56.0061 47.6523 53.427C47.714 52.0863 47.8067 50.7968 47.8581 50.5614C48.0434 49.7631 47.9816 47.5934 47.7346 46.437C47.5391 45.5159 47.5288 45.3214 47.642 45.0451C47.8787 44.472 47.9096 42.7423 47.7037 41.6984C47.5802 41.0434 47.5391 40.5113 47.5802 39.9279C47.642 39.0273 47.7861 38.577 48.311 37.7684C48.6094 37.2977 49.2887 36.1002 49.8651 35.0052C50.0092 34.7186 50.2356 34.5037 50.5752 34.3195C50.8428 34.1762 51.1207 33.992 51.203 33.9101C51.2751 33.8282 51.3883 33.3779 51.4501 32.8969C51.7279 30.7477 51.7691 30.5839 52.0779 30.1336C52.1808 29.9903 52.7263 28.9464 53.3026 27.8206C54.2804 25.8761 54.5686 25.4258 55.8448 23.8906C56.0712 23.6143 56.4314 23.0821 56.6475 22.7239C56.9357 22.2327 57.3783 21.7516 58.3457 20.892C59.4882 19.8583 60.3527 18.9986 61.4951 17.75C61.6701 17.5555 61.9788 17.1564 62.1641 16.8801C62.3494 16.5935 62.7199 16.133 62.9772 15.8464C63.8108 14.9151 64.593 13.9326 65.0356 13.2162C65.3546 12.7249 65.6428 12.4179 66.0442 12.1518C66.6 11.7936 66.7235 11.6196 67.2896 10.4324C67.4028 10.2073 67.7733 9.60344 68.1129 9.08149C68.6584 8.26274 68.7922 8.12969 69.1524 8.01711C69.6567 7.8636 69.8523 7.66914 69.9037 7.25977C69.9243 7.05508 69.9964 6.9425 70.1405 6.92204C70.2537 6.90157 70.7683 6.70712 71.2726 6.4922C71.7872 6.27727 72.3944 6.07259 72.6414 6.03165C73.1869 5.93954 73.7941 5.41758 73.7941 5.02868C73.7941 4.73188 73.4545 4.36344 73.1149 4.28157C73.0016 4.25086 72.6311 4.2918 72.2915 4.38391C71.9622 4.46579 71.674 4.51696 71.6431 4.49649C71.5711 4.41461 72.487 4.05641 73.0943 3.9336C73.7736 3.80055 74 3.62656 74 3.23766C74 2.82829 73.7427 2.53149 73.331 2.45985C73.1354 2.41891 72.9708 2.36774 72.9708 2.34727C72.9708 2.31657 73.0634 2.15282 73.1766 1.9686C73.4545 1.51829 73.4339 1.33407 73.1149 1.07821C72.8267 0.85305 72.4562 0.82235 71.7975 0.975861ZM11.3624 24.4024C11.5271 24.4535 11.4345 24.5559 10.8684 24.9448C10.4876 25.2109 10.1686 25.4258 10.148 25.4258C10.1274 25.4258 10.148 25.2109 10.1891 24.9448C10.3023 24.2386 10.5597 24.1158 11.3624 24.4024Z" fill="#C9CDD1"/>
</svg>
