<svg width="24" height="24" viewBox="0 0 24 24" fill="none" xmlns="http://www.w3.org/2000/svg">
<path d="M10.6154 13.3846H1.38462C0.992311 13.3846 0.663464 13.2518 0.398078 12.9864C0.132693 12.7208 0 12.3919 0 11.9994C0 11.6069 0.132693 11.2781 0.398078 11.013C0.663464 10.748 0.992311 10.6154 1.38462 10.6154H10.6154V1.38462C10.6154 0.992311 10.7482 0.663464 11.0136 0.398078C11.2791 0.132693 11.6081 0 12.0006 0C12.3931 0 12.7219 0.132693 12.987 0.398078C13.252 0.663464 13.3846 0.992311 13.3846 1.38462V10.6154H22.6154C23.0077 10.6154 23.3365 10.7482 23.6019 11.0136C23.8673 11.2792 24 11.6081 24 12.0006C24 12.3931 23.8673 12.7219 23.6019 12.987C23.3365 13.252 23.0077 13.3846 22.6154 13.3846H13.3846V22.6154C13.3846 23.0077 13.2518 23.3365 12.9864 23.6019C12.7208 23.8673 12.3919 24 11.9994 24C11.6069 24 11.2781 23.8673 11.013 23.6019C10.748 23.3365 10.6154 23.0077 10.6154 22.6154V13.3846Z" fill="#FAFBFC"/>
</svg>
