<svg width="19" height="19" viewBox="0 0 19 19" fill="none" xmlns="http://www.w3.org/2000/svg">
<path d="M9.49415 19C9.17089 19 8.90117 18.8905 8.68499 18.6716C8.46884 18.4526 8.36076 18.1824 8.36076 17.8608V10.6392H1.13924C0.817649 10.6392 0.547374 10.5292 0.328411 10.3091C0.10947 10.089 0 9.81739 0 9.49415C0 9.17089 0.10947 8.90117 0.328411 8.68499C0.547374 8.46884 0.817649 8.36076 1.13924 8.36076H8.36076V1.13924C8.36076 0.817649 8.4708 0.547374 8.69088 0.328411C8.91096 0.10947 9.18261 0 9.50585 0C9.82911 0 10.0988 0.10947 10.315 0.328411C10.5312 0.547374 10.6392 0.817649 10.6392 1.13924V8.36076H17.8608C18.1824 8.36076 18.4526 8.4708 18.6716 8.69088C18.8905 8.91096 19 9.18261 19 9.50585C19 9.82911 18.8905 10.0988 18.6716 10.315C18.4526 10.5312 18.1824 10.6392 17.8608 10.6392H10.6392V17.8608C10.6392 18.1824 10.5292 18.4526 10.3091 18.6716C10.089 18.8905 9.81739 19 9.49415 19Z" fill="#367BCF"/>
</svg>
