<svg width="73" height="60" viewBox="0 0 73 60" xmlns="http://www.w3.org/2000/svg">
	<path d="M60.3228 0.0567245C55.2557 0.601147 50.2566 3.56712 46.2312 8.41589C42.8513 12.4877 40.7056 17.3875 40.3376 21.879C40.3036 22.2477 40.281 22.3441 40.2187 22.3214C40.1734 22.3044 40.1394 22.3157 40.1394 22.3441C40.1394 22.3724 40.0771 22.9339 39.9979 23.5917C39.5619 27.2495 39.0467 30.3289 38.5825 32.0643C38.2145 33.4594 37.4728 35.2798 36.5274 37.1059L36.0914 37.9509L35.6328 37.0095C34.3986 34.4745 33.8608 32.8469 33.3796 30.1985C33.0342 28.3044 32.6719 25.7921 32.4681 23.932C32.3605 22.9112 32.3435 22.8374 32.2473 22.8715C32.185 22.8942 32.1567 22.8091 32.1284 22.4972C31.7434 18.2269 29.9657 13.8601 27.0556 10.0378C25.912 8.52932 24.3494 6.84501 23.0756 5.74482C18.0595 1.41211 12.347 -0.317566 7.58565 1.04916C6.42503 1.38376 5.26442 1.95087 4.32461 2.64841C3.7075 3.10777 2.6771 4.13423 2.25815 4.70701C-0.402766 8.33083 -0.719811 13.4745 1.39194 18.8677C1.9864 20.3989 2.83563 22.0038 3.87735 23.5633C4.93605 25.1456 5.83057 26.2458 7.18934 27.6352C10.1673 30.6862 13.5133 32.8469 17.0234 33.9868C17.4537 34.1286 17.9519 34.276 18.1331 34.3157C18.3709 34.3667 18.4558 34.4121 18.4558 34.4802C18.4558 34.5539 18.586 34.6163 19.0106 34.7354C20.5845 35.1777 23.8342 36.2439 25.4647 36.8564C27.8086 37.7297 29.0145 38.3478 30.8828 39.6295C31.7264 40.2023 33.0059 41.172 33.0059 41.2344C33.0059 41.2628 31.6754 42.8734 30.0449 44.8185C28.4201 46.7581 26.0819 49.5426 24.859 51.0114C23.6304 52.4802 22.5887 53.7221 22.5377 53.7732C22.4811 53.8356 22.2377 53.9036 21.8584 53.966C21.196 54.0794 21.2922 54.0114 20.5619 54.8904L20.1712 55.3667L20.8846 55.9679C24.1626 58.7297 25.0967 59.4953 25.1364 59.4556C25.159 59.4272 25.4251 59.1097 25.7252 58.7524C26.1158 58.2874 26.263 58.0662 26.246 57.9868C26.229 57.9244 26.2064 57.6068 26.1838 57.2779L26.1498 56.6824L31.03 50.8696C33.7136 47.6711 35.9272 45.0567 35.9499 45.0567C35.9725 45.0567 36.4707 45.6295 37.0595 46.3327C37.9654 47.4102 43.2872 53.7562 45.699 56.6371L46.4237 57.5047V58.1229V58.7467L46.9389 59.3592C47.222 59.6938 47.4598 59.9773 47.4711 59.983C47.4881 60.0114 52.3343 55.9282 52.357 55.8715C52.3627 55.8431 52.1192 55.5199 51.8078 55.1456L51.2417 54.4707L50.5453 54.414L49.8546 54.3573L44.3459 47.7845C41.317 44.172 38.8373 41.1947 38.8373 41.172C38.8373 41.1153 40.4678 39.862 41.3283 39.2552C42.7494 38.2571 44.1138 37.4802 45.4273 36.9187C47.1427 36.1928 50.8454 34.9339 53.7101 34.1002C53.9875 34.0208 54.0611 33.9754 54.0385 33.9074C54.0102 33.8337 54.0894 33.794 54.4178 33.7146C54.6442 33.6579 55.1878 33.4934 55.6237 33.346C59.8472 31.9339 63.9461 28.9452 67.1619 24.9414C71.793 19.1626 73.5537 12.3743 71.7817 7.11722C71.5496 6.43669 71.0117 5.31948 70.6381 4.74671C70.1851 4.0605 69.8681 3.66353 69.251 3.04538C67.728 1.50285 65.8144 0.544437 63.4366 0.13612C62.8365 0.0340424 60.9738 -0.0113297 60.3228 0.0567245ZM60.6398 2.03026C60.3397 2.41589 60.3284 2.41589 60.034 2.17771C59.8925 2.05862 59.7962 1.95654 59.8189 1.94519C59.8642 1.93385 60.5379 1.84311 60.7361 1.82043C60.7813 1.82043 60.7417 1.91117 60.6398 2.03026ZM62.661 1.87714C63.414 1.95654 63.9461 2.06996 64.6482 2.30247C64.9709 2.41022 65.2483 2.50663 65.2596 2.51797C65.2879 2.54633 63.363 4.84311 63.2951 4.8658C63.2384 4.88848 60.9455 2.96032 60.9455 2.89227C60.9455 2.86391 61.138 2.60871 61.3701 2.32516C61.8514 1.75238 61.7721 1.77506 62.661 1.87714ZM59.332 2.56334C59.5981 2.78451 59.8076 2.98867 59.8019 3.01136C59.7906 3.03971 59.3377 3.59548 58.7885 4.24765L57.7921 5.43291L56.6088 4.44047C55.9577 3.89037 55.4255 3.41967 55.4255 3.39699C55.4255 3.36863 55.4878 3.30625 55.5614 3.26088C55.9804 2.98867 58.3186 2.17771 58.7375 2.16069C58.7998 2.16069 59.0659 2.3365 59.332 2.56334ZM12.1319 2.4726C12.4319 2.48962 12.681 2.52364 12.6754 2.54066C12.6754 2.56334 12.4885 2.7278 12.2677 2.90928L11.8601 3.2382L11.6167 2.96599C11.4808 2.81854 11.3223 2.62572 11.26 2.54066L11.1524 2.39321L11.3619 2.41589C11.4808 2.42723 11.8261 2.44992 12.1319 2.4726ZM10.6429 2.96032C10.875 3.2382 11.1128 3.5331 11.1694 3.60115L11.2713 3.73726L10.0994 4.71835C9.45961 5.2571 8.91044 5.69945 8.8878 5.69945C8.83684 5.69945 6.84965 3.34595 6.84965 3.28357C6.84965 3.18149 8.21408 2.7278 8.97272 2.58603C9.60681 2.46126 9.67475 2.45559 9.96349 2.44992C10.2183 2.44425 10.2183 2.44992 10.6429 2.96032ZM14.153 2.83555C14.3851 2.89793 14.9286 3.07374 15.3589 3.21552L16.1402 3.48206L16.4573 3.86769L16.7686 4.25332L16.6045 4.38943C14.9117 5.81287 14.4021 6.23253 14.3682 6.22119C14.3512 6.21552 13.8869 5.67676 13.3378 5.01892C12.5395 4.06618 12.3527 3.81665 12.4093 3.75994C12.6301 3.55011 13.6265 2.7278 13.6718 2.7278C13.7058 2.72213 13.9209 2.77317 14.153 2.83555ZM66.5561 3.20984C66.8335 3.38565 67.1732 3.61816 67.3147 3.73158C67.6544 4.0038 68.3904 4.74671 68.3904 4.81476C68.3904 4.89983 66.29 7.37809 66.2391 7.36107C66.2107 7.34973 65.6842 6.9244 65.0728 6.40833C64.4613 5.89227 63.9348 5.45559 63.9008 5.43858C63.8499 5.40455 65.922 2.89227 66.0069 2.89227C66.0296 2.89227 66.2787 3.03404 66.5561 3.20984ZM62.7742 5.50663C62.7402 5.5917 60.7983 7.88281 60.753 7.88281C60.7021 7.88281 58.3978 5.94897 58.3978 5.90361C58.3978 5.88659 58.8508 5.33083 59.4056 4.66731L60.4133 3.46504L61.6023 4.46315C62.2533 5.01325 62.7799 5.48395 62.7742 5.50663ZM7.40448 5.13801L8.31032 6.22119L7.17236 7.1796C6.54959 7.70701 6.00608 8.15503 5.96645 8.18338C5.92116 8.21173 5.56448 7.8261 4.8851 7.02081C4.33027 6.36296 3.86036 5.79018 3.83772 5.75616C3.78676 5.67109 4.49445 4.87147 4.98135 4.46315C5.18516 4.29302 5.52485 4.03215 5.73999 3.89037L6.1363 3.63517L6.3118 3.84501C6.41371 3.95843 6.9006 4.54255 7.40448 5.13801ZM56.0879 4.96788C56.705 5.48395 57.2316 5.93196 57.2599 5.96032C57.3108 6.00568 55.3746 8.39321 55.301 8.3762C55.2274 8.35918 52.9401 6.44236 52.9401 6.39699C52.9345 6.34028 54.8764 4.02648 54.9273 4.02648C54.9443 4.02648 55.4708 4.45181 56.0879 4.96788ZM53.127 4.97355C52.2324 6.04538 52.357 5.95465 52.0909 5.71079L51.8644 5.50663L52.1532 5.29113C52.6061 4.95654 53.6365 4.259 53.6875 4.259C53.7158 4.25332 53.461 4.57657 53.127 4.97355ZM12.7886 5.52364L13.8077 6.74293L12.6187 7.74104C11.9677 8.29113 11.4128 8.7278 11.3845 8.71079C11.2939 8.65408 9.39734 6.36296 9.403 6.31192C9.403 6.2779 11.7129 4.31003 11.7525 4.31003C11.7639 4.31003 12.2224 4.85446 12.7886 5.52364ZM19.4749 5.30814C19.9561 5.63139 20.409 5.93763 20.4826 5.99434L20.6128 6.10209L20.2222 6.41967L19.8372 6.73726L18.903 5.63139C18.3935 5.01892 17.9406 4.46882 17.8953 4.40077C17.7707 4.23631 18.4105 4.59926 19.4749 5.30814ZM18.2576 6.01703C19.0955 7.01514 19.2484 7.22497 19.1861 7.28735C19.1408 7.32705 18.603 7.78073 17.9915 8.30247L16.8706 9.24387L15.8968 8.07563C15.3589 7.4348 14.9117 6.89037 14.9003 6.86202C14.889 6.82799 17.1763 4.84311 17.2442 4.82043C17.2499 4.82043 17.7028 5.35918 18.2576 6.01703ZM69.2 5.88092C69.5624 6.48773 69.9304 7.29869 70.1398 7.95654C70.2361 8.2571 70.3154 8.52932 70.3154 8.56334C70.3154 8.62005 69.3133 9.82799 69.2397 9.85635C69.1831 9.87903 66.8901 7.95087 66.8901 7.87714C66.8901 7.81476 68.849 5.44992 68.9056 5.44425C68.9226 5.44425 69.0528 5.64274 69.2 5.88092ZM64.484 6.8847C64.9652 7.28735 65.4521 7.70134 65.571 7.80342L65.7748 7.98489L64.7557 9.20417L63.7367 10.4235L62.5534 9.43102C61.9023 8.88092 61.3758 8.41022 61.3815 8.38754C61.3928 8.35918 61.8457 7.80342 62.3892 7.15125C63.3517 6.00002 63.38 5.97166 63.4932 6.0624C63.5555 6.11344 64.0028 6.48206 64.484 6.8847ZM51.587 6.25521L51.8531 6.4934L50.9473 7.5709C50.4491 8.16069 49.9961 8.69945 49.9339 8.75616C49.832 8.86391 49.8206 8.85824 49.4243 8.53498C49.2035 8.35351 49.011 8.18338 48.994 8.15503C48.9261 8.04727 51.0888 6.00568 51.2643 6.01136C51.2926 6.01703 51.4398 6.12478 51.587 6.25521ZM4.34725 7.53688C4.87944 8.17204 5.30405 8.71646 5.28707 8.73914C5.19648 8.88659 2.93187 10.724 2.89224 10.6843C2.8696 10.656 2.66012 10.4121 2.43366 10.1342L2.02603 9.64085L2.14492 9.14746C2.21286 8.87525 2.36006 8.41022 2.47329 8.10966C2.68277 7.53688 3.28289 6.34028 3.34516 6.36296C3.36215 6.37431 3.81507 6.90171 4.34725 7.53688ZM59.0829 7.49151C59.717 8.02459 60.2378 8.48395 60.2378 8.50663C60.2378 8.54633 58.5564 10.5936 58.3129 10.8488C58.2903 10.8771 57.7298 10.4461 57.073 9.89605L55.8785 8.89227L56.0087 8.73347C56.5295 8.07563 57.843 6.52742 57.8826 6.52742C57.9109 6.52176 58.4488 6.95843 59.0829 7.49151ZM21.7281 6.98678C21.9942 7.21363 22.5151 7.68999 22.8831 8.04727L23.5511 8.68811L23.0076 9.15313C22.7076 9.40266 22.4302 9.62951 22.3905 9.65219C22.3396 9.68621 21.9999 9.3176 21.3148 8.50663L20.3184 7.3157L20.4939 7.16259C20.9412 6.7883 21.2016 6.57846 21.2243 6.57846C21.2356 6.57846 21.462 6.76561 21.7281 6.98678ZM9.81629 8.01892C10.3655 8.67676 10.8127 9.22119 10.8127 9.2382C10.8071 9.28924 8.50281 11.2004 8.4462 11.2004C8.41223 11.2004 7.94232 10.6673 7.39316 10.0095C6.7251 9.20417 6.41937 8.80153 6.459 8.76183C6.65716 8.55767 8.75192 6.81665 8.78589 6.82232C8.80854 6.82799 9.27278 7.36674 9.81629 8.01892ZM53.5912 7.94519C54.2253 8.47828 54.7575 8.93196 54.7745 8.96032C54.8028 9.00568 52.9118 11.2968 52.8212 11.3308C52.759 11.3535 50.4377 9.40266 50.4547 9.34595C50.4774 9.28924 52.3853 6.98111 52.4193 6.97544C52.4306 6.97544 52.9571 7.41211 53.5912 7.94519ZM15.3023 8.52932L16.2987 9.71457L15.8854 10.0605C14.872 10.9225 13.9379 11.6994 13.9096 11.7051C13.8473 11.7165 11.8884 9.33461 11.928 9.29491C12.0866 9.14746 14.2889 7.32138 14.3002 7.33272C14.3059 7.33839 14.7588 7.87714 15.3023 8.52932ZM20.7713 9.01136C21.3035 9.65219 21.7395 10.1853 21.7338 10.2023C21.7281 10.2533 19.4182 12.1645 19.3673 12.1645C19.305 12.1645 17.3744 9.85635 17.3914 9.79964C17.4197 9.72591 19.7126 7.82043 19.7579 7.83744C19.7806 7.84879 20.2335 8.3762 20.7713 9.01136ZM68.7188 10.4972C68.6848 10.5879 66.7429 12.8734 66.6976 12.8734C66.6693 12.8734 64.5293 11.1097 64.3255 10.9168C64.3141 10.9055 64.7671 10.3497 65.3332 9.67487L66.3579 8.45559L67.5469 9.45937C68.1979 10.0095 68.7245 10.4745 68.7188 10.4972ZM48.9827 9.14179L49.3564 9.45937L48.3713 10.6446C47.8278 11.2911 47.3635 11.8242 47.3465 11.8242C47.2786 11.8242 46.486 11.1437 46.486 11.087C46.486 11.0132 47.3692 9.87903 47.958 9.1985C48.36 8.73914 48.4279 8.68243 48.5072 8.74482C48.5638 8.78452 48.7732 8.96032 48.9827 9.14179ZM62.0552 9.98678C62.6893 10.5142 63.2101 10.9735 63.2101 11.0019C63.2101 11.0303 62.7685 11.5747 62.2307 12.2212L61.2513 13.3894L61.0871 13.259C60.4926 12.7883 58.8847 11.4216 58.8847 11.3819C58.8791 11.3252 60.8097 9.01703 60.8606 9.01703C60.8833 9.01703 61.4211 9.4537 62.0552 9.98678ZM24.8476 10.1796C25.2779 10.7013 25.9856 11.6257 25.9856 11.6768C25.9856 11.7278 24.8759 12.6465 24.8137 12.6408C24.7514 12.6408 22.8661 10.3667 22.8661 10.293C22.8604 10.259 23.1265 10.0151 23.4492 9.74293L24.0324 9.24954L24.2758 9.51608C24.406 9.66353 24.6665 9.95843 24.8476 10.1796ZM6.86663 10.5425L7.86306 11.7278L6.6798 12.7259C6.02873 13.276 5.48522 13.724 5.4739 13.724C5.42861 13.724 3.45273 11.3478 3.45839 11.3025C3.45839 11.2344 5.79094 9.30625 5.83624 9.32894C5.85322 9.34595 6.31747 9.89037 6.86663 10.5425ZM56.6541 10.5142L57.7921 11.4726L56.8013 12.6522C56.2578 13.3044 55.7935 13.8374 55.7709 13.8374C55.7426 13.8374 54.6726 12.9471 53.5629 12.0114L53.3817 11.8582L54.3838 10.6616C55.0349 9.8847 55.4029 9.48773 55.4482 9.51608C55.4878 9.53877 56.0313 9.98678 56.6541 10.5142ZM70.5418 9.65219C70.5418 9.69189 70.5701 10.0095 70.6041 10.3667C70.6381 10.7183 70.655 11.0246 70.6381 11.0416C70.6154 11.0586 70.4286 10.9225 70.2191 10.741C70.0096 10.5596 69.8228 10.4064 69.8115 10.3951C69.7832 10.3781 70.4512 9.58981 70.5022 9.58981C70.5248 9.58414 70.5418 9.61249 70.5418 9.65219ZM12.3413 11.0359C13.2925 12.1701 13.3151 12.2042 13.2132 12.3006C13.1566 12.3573 12.6187 12.8167 12.0186 13.3157L10.9316 14.2288L9.95216 13.0662C9.41432 12.4253 8.96706 11.8753 8.95574 11.8526C8.93309 11.7959 11.277 9.81098 11.3279 9.84501C11.3506 9.85635 11.8035 10.3894 12.3413 11.0359ZM51.1511 10.9565C51.7908 11.4953 52.306 11.949 52.3004 11.9717C52.2891 11.9943 51.8418 12.5388 51.2983 13.1853L50.3188 14.3535L50.1943 14.2458C50.132 14.1891 49.5998 13.741 49.0167 13.2477C48.4279 12.7599 47.9523 12.346 47.9523 12.3289C47.9523 12.2722 49.8942 9.98111 49.9452 9.98111C49.9678 9.98111 50.5113 10.4178 51.1511 10.9565ZM17.6518 11.3252C18.1161 11.8809 18.5633 12.414 18.6426 12.5104L18.7898 12.6862L17.6235 13.673C16.9781 14.2174 16.4346 14.6654 16.412 14.6768C16.395 14.6824 15.9251 14.155 15.3759 13.4972L14.3738 12.3006L14.504 12.1928C14.5776 12.1361 15.1042 11.6938 15.6816 11.2061C16.2591 10.724 16.746 10.3214 16.7686 10.3214C16.7856 10.3214 17.1876 10.7751 17.6518 11.3252ZM2.10529 11.4386C1.79391 11.7108 1.78258 11.6938 1.8392 11.0643L1.87883 10.639L2.12794 10.9225L2.37138 11.2004L2.10529 11.4386ZM23.2681 11.9943C23.8286 12.6635 24.2249 13.1853 24.1966 13.2136C23.9644 13.4291 21.8923 15.1418 21.8584 15.1418C21.8017 15.1418 19.8712 12.8337 19.8768 12.777C19.8825 12.7089 22.2094 10.7807 22.2547 10.8091C22.2773 10.8204 22.7302 11.3535 23.2681 11.9943ZM70.0889 11.5974C70.3833 11.8412 70.6324 12.0454 70.6381 12.0511C70.672 12.0681 70.5305 13.3611 70.4229 13.9736L70.3097 14.6427L69.9926 15.0284L69.6756 15.4197L68.4923 14.4216C67.8413 13.8715 67.3204 13.4008 67.3261 13.3724C67.3374 13.3384 67.7903 12.7826 68.3338 12.1361C69.3019 10.9792 69.3246 10.9565 69.4378 11.0529C69.5001 11.1097 69.7945 11.3535 70.0889 11.5974ZM65.0275 12.4821C65.6616 13.0151 66.1824 13.4745 66.1824 13.4972C66.1824 13.5312 64.501 15.5841 64.2575 15.845C64.2292 15.8677 63.6744 15.4424 63.0176 14.8866L61.8231 13.8828L61.9193 13.7524C62.2477 13.3214 63.782 11.518 63.8272 11.5123C63.8499 11.5123 64.3934 11.949 65.0275 12.4821ZM46.4747 12.0964L46.8766 12.4253L45.8802 13.6163C45.331 14.2684 44.8668 14.8015 44.8498 14.8015C44.8272 14.7959 44.7253 14.7221 44.6177 14.6314L44.4252 14.4669L44.5328 14.2231C44.5894 14.0926 44.8725 13.5993 45.1499 13.1286C45.8859 11.9036 45.9934 11.7391 46.0387 11.7562C46.0614 11.7618 46.2595 11.9149 46.4747 12.0964ZM3.87735 13.0095C4.42085 13.6673 4.86245 14.2174 4.85679 14.2401C4.83981 14.2684 2.93187 15.8847 2.58652 16.1569C2.5016 16.225 2.47895 16.225 2.40535 16.1286C2.36572 16.0718 2.31477 15.9584 2.29778 15.879C2.2808 15.7996 2.21852 15.4934 2.15624 15.1928C2.03169 14.6201 1.89581 13.6673 1.84486 13.0322L1.81655 12.6579L2.3091 12.2325C2.58086 11.9943 2.81864 11.8072 2.84129 11.8129C2.86393 11.8185 3.32818 12.3573 3.87735 13.0095ZM59.5358 12.9357C60.1699 13.4688 60.7021 13.9282 60.7191 13.9509C60.7417 13.9906 58.8508 16.2874 58.7602 16.3214C58.6922 16.3497 56.3823 14.3932 56.405 14.3252C56.4276 14.2628 58.3299 11.9717 58.3639 11.966C58.3752 11.966 58.9017 12.4027 59.5358 12.9357ZM9.39167 13.5482L10.3598 14.7108L10.1503 14.8809C10.0314 14.9773 9.49358 15.431 8.95008 15.8904L7.95931 16.724L7.7838 16.5142C7.69322 16.4008 7.24029 15.862 6.78171 15.3119C6.32313 14.7675 5.96645 14.3025 5.9891 14.2855C6.41937 13.8828 8.35561 12.3176 8.38392 12.346C8.40657 12.3743 8.85949 12.9131 9.39167 13.5482ZM27.0783 13.3214C27.3387 13.7467 27.6614 14.3025 27.803 14.5633L28.0521 15.034L27.8256 15.2325C27.701 15.3403 27.5312 15.4764 27.4519 15.5388L27.3047 15.6465L26.3027 14.4499L25.2949 13.259L25.51 13.0775C25.6289 12.9811 25.8837 12.7713 26.0705 12.6068C26.4782 12.2552 26.3932 12.1985 27.0783 13.3214ZM54.3838 13.673L55.301 14.4443L54.3046 15.6295C53.7611 16.2817 53.2911 16.8091 53.2628 16.8034C53.2402 16.7921 52.6967 16.3497 52.0569 15.811C50.902 14.8412 50.902 14.8412 50.9982 14.7108C51.0492 14.6427 51.5021 14.0983 52.0003 13.5085L52.9005 12.431L53.1836 12.6635C53.3421 12.794 53.8799 13.2477 54.3838 13.673ZM14.8267 13.9962C15.3589 14.6314 15.7949 15.1645 15.7892 15.1872C15.7892 15.2269 13.4963 17.1494 13.4283 17.1664C13.3774 17.1834 11.4638 14.8866 11.4638 14.8072C11.4638 14.7391 13.7567 12.8053 13.8133 12.828C13.8416 12.8393 14.2946 13.3611 14.8267 13.9962ZM48.66 13.9225C49.2941 14.4556 49.8093 14.9093 49.8036 14.932C49.781 15.0057 47.8731 17.2911 47.8278 17.2968C47.7655 17.2968 45.4896 15.363 45.4896 15.3006C45.4896 15.2212 47.4032 12.9301 47.4598 12.9471C47.4824 12.9528 48.0203 13.3951 48.66 13.9225ZM20.2901 14.4783L21.2809 15.6635L20.1089 16.6503C19.4635 17.1891 18.9144 17.6314 18.8804 17.6314C18.8294 17.6314 16.9385 15.3913 16.9102 15.2949C16.8989 15.2495 19.2031 13.276 19.2597 13.2873C19.2824 13.293 19.7466 13.8318 20.2901 14.4783ZM25.7591 14.9603C26.2857 15.5955 26.7103 16.1342 26.6933 16.1626C26.682 16.1853 26.1441 16.6446 25.5044 17.1834L24.3438 18.1588L24.2079 17.9943C24.1343 17.9093 23.6927 17.3762 23.2171 16.8148C22.7472 16.2533 22.3679 15.7713 22.3792 15.7486C22.4075 15.6579 24.6551 13.7864 24.7231 13.7977C24.7627 13.8034 25.227 14.3308 25.7591 14.9603ZM67.9998 14.9773C68.6339 15.5104 69.1661 15.9584 69.1774 15.9641C69.1831 15.9754 68.7414 16.5255 68.1923 17.1834C67.3147 18.2269 67.1789 18.3686 67.0996 18.3063C66.675 17.9717 64.8463 16.4178 64.835 16.3838C64.8123 16.3327 66.7429 14.0076 66.8052 14.0076C66.8222 14.0076 67.36 14.4443 67.9998 14.9773ZM62.627 15.5331L63.7367 16.4632L62.7459 17.6484C62.1967 18.2949 61.7381 18.828 61.7155 18.828C61.6872 18.828 59.6604 17.155 59.3377 16.8658C59.332 16.8601 59.7736 16.3157 60.3228 15.6579C61.2116 14.5974 61.3362 14.4726 61.4211 14.535C61.4777 14.569 62.0212 15.0227 62.627 15.5331ZM6.40239 16.0265L7.38183 17.2004L7.20633 17.3478C7.11008 17.4272 6.57223 17.8809 6.01174 18.3573L4.99267 19.2193L3.99058 18.0227C3.09606 16.9622 2.99981 16.8204 3.07341 16.7467C3.32818 16.4915 5.35501 14.8185 5.38897 14.8356C5.40596 14.8526 5.86454 15.3857 6.40239 16.0265ZM57.0221 15.8847C57.6222 16.3894 58.1487 16.8318 58.194 16.8715C58.2563 16.9339 58.1034 17.1437 57.2655 18.1418C56.2578 19.3384 56.2578 19.3441 56.1389 19.2363C56.071 19.1796 55.5558 18.7429 54.9896 18.2666C54.4178 17.7902 53.9422 17.3762 53.9196 17.3478C53.8856 17.2911 55.7935 14.9717 55.8785 14.9717C55.9068 14.9717 56.422 15.3857 57.0221 15.8847ZM44.3233 15.3857C44.3403 15.4367 43.5816 16.3951 43.5477 16.3667C43.542 16.3554 43.6496 16.0775 43.7968 15.7429L44.0572 15.1418L44.1817 15.2439C44.2497 15.2949 44.3176 15.363 44.3233 15.3857ZM11.7525 16.3724C12.2394 16.9622 12.6923 17.4896 12.749 17.5577C12.8565 17.6768 12.8565 17.6768 11.6563 18.6805C10.6712 19.5085 10.4447 19.673 10.3881 19.6106C10.3485 19.5709 9.88989 19.0322 9.37469 18.4197L8.43488 17.2968L9.61247 16.3044C10.2579 15.7599 10.8014 15.3119 10.824 15.3119C10.8467 15.3119 11.26 15.7883 11.7525 16.3724ZM51.6436 16.4348L52.8156 17.4159L51.8191 18.6068C51.27 19.259 50.8001 19.7864 50.7774 19.7807C50.6812 19.7467 48.4109 17.8356 48.4222 17.7959C48.4449 17.7165 50.4038 15.4197 50.4377 15.4367C50.4604 15.448 51.0039 15.896 51.6436 16.4348ZM17.2952 16.9339C17.8273 17.569 18.2576 18.1191 18.2576 18.1475C18.2576 18.2042 15.9874 20.1323 15.9194 20.1323C15.8968 20.1323 15.4382 19.6049 14.8947 18.9641L13.9152 17.7959L14.0454 17.6598C14.2436 17.4669 16.2704 15.7713 16.3044 15.7713C16.3214 15.7713 16.7686 16.293 17.2952 16.9339ZM28.6635 16.31C28.9296 16.9168 29.3316 17.9887 29.3089 18.0114C29.3033 18.0227 28.9579 17.6257 28.5446 17.138L27.7973 16.2477L28.069 16.0095C28.2162 15.8734 28.3578 15.777 28.3918 15.7826C28.4201 15.794 28.5446 16.0322 28.6635 16.31ZM47.239 17.8072C47.3409 17.9036 47.3069 17.949 46.3388 19.1059L45.331 20.2968L45.1555 20.1494C45.0593 20.07 44.5271 19.6219 43.9723 19.1569C43.4174 18.6919 42.9702 18.2836 42.9815 18.2609C42.9928 18.2325 43.4401 17.6881 43.9779 17.0473L44.9517 15.879L46.0444 16.7921C46.6389 17.2968 47.1767 17.7505 47.239 17.8072ZM22.4981 17.1097C22.8831 17.5747 23.3303 18.1021 23.4832 18.2949L23.7719 18.6409L22.634 19.5993C22.0056 20.1267 21.462 20.5747 21.4281 20.5974C21.3884 20.6201 20.9808 20.1834 20.3637 19.4461L19.3616 18.2552L19.5485 18.0964C20.1316 17.586 21.7168 16.276 21.7508 16.276C21.7734 16.276 22.1075 16.6503 22.4981 17.1097ZM69.7209 16.724C69.5227 17.2968 69.0415 18.4594 68.7981 18.9641L68.532 19.5255L68.147 19.1966C67.7677 18.8734 67.7677 18.8734 67.8696 18.7373C68.13 18.3913 69.7266 16.5085 69.7605 16.5029C69.7832 16.5029 69.7662 16.6049 69.7209 16.724ZM28.2219 17.8979C28.7541 18.5331 29.1844 19.0775 29.1844 19.1059C29.1844 19.1739 26.8858 21.1021 26.8292 21.0851C26.7669 21.0624 24.8533 18.7713 24.8533 18.7259C24.859 18.6805 27.1858 16.7297 27.2311 16.7354C27.2481 16.7354 27.6954 17.2571 28.2219 17.8979ZM65.5087 17.9547L66.6976 18.9471L66.5674 19.1115C66.0975 19.707 64.7331 21.3176 64.6935 21.3176C64.6029 21.3289 62.3269 19.3724 62.3552 19.3044C62.3779 19.2363 64.2688 16.9622 64.3028 16.9565C64.3085 16.9565 64.852 17.4046 65.5087 17.9547ZM60.1982 18.5558C60.7474 19.0208 61.2003 19.4178 61.2003 19.4405C61.2003 19.4972 59.2697 21.8053 59.2244 21.8053C59.2074 21.8053 58.6639 21.363 58.0185 20.8185C56.9881 19.9565 56.8522 19.8204 56.9145 19.7354C56.9542 19.6843 57.4014 19.1399 57.9109 18.5274L58.8451 17.4159L59.0149 17.5633C59.1112 17.6484 59.6434 18.0908 60.1982 18.5558ZM8.8878 18.9868C9.41432 19.6219 9.85026 20.155 9.8446 20.1777C9.8446 20.2231 7.55734 22.1399 7.4894 22.1569C7.43845 22.1683 5.51919 19.8715 5.51919 19.7977C5.51919 19.7297 7.81777 17.8015 7.87438 17.8185C7.89703 17.8299 8.35561 18.3516 8.8878 18.9868ZM54.599 18.9131C55.2387 19.4405 55.7539 19.8942 55.7482 19.9225C55.7313 19.9906 53.8177 22.2817 53.7724 22.2817C53.6931 22.293 51.4342 20.3478 51.4398 20.2798C51.4511 20.1834 53.3421 17.915 53.3987 17.9376C53.4214 17.9433 53.9649 18.38 54.599 18.9131ZM3.75846 18.9074L4.42085 19.69L4.20572 19.8828C4.08682 19.9849 3.97359 20.07 3.95661 20.0756C3.92264 20.0756 3.42443 19.0378 3.16966 18.431C3.07341 18.1985 3.0168 18.0284 3.0451 18.0624C3.07907 18.0908 3.39612 18.4707 3.75846 18.9074ZM14.4021 19.5255L15.3419 20.6541L14.1643 21.6409C13.5189 22.1796 12.9754 22.6276 12.9528 22.6276C12.9301 22.6276 12.5112 22.1512 12.0243 21.5615C11.5317 20.9773 11.0845 20.4499 11.0279 20.3819C10.9259 20.2684 10.9373 20.2571 12.1262 19.259C13.0943 18.4424 13.3378 18.2666 13.3944 18.3289C13.4283 18.3686 13.8869 18.9074 14.4021 19.5255ZM49.1696 19.4291C49.764 19.9225 50.2566 20.3535 50.2679 20.3762C50.2792 20.4046 49.8376 20.9603 49.2941 21.6068L48.3033 22.7921L47.1257 21.7996C46.4747 21.2552 45.9481 20.7845 45.9538 20.7562C45.9651 20.7278 46.4067 20.1834 46.9446 19.5426C47.7938 18.5274 47.9297 18.3857 48.0033 18.4537C48.0542 18.4934 48.5808 18.9357 49.1696 19.4291ZM19.8032 19.9339C20.3411 20.5747 20.7657 21.1248 20.7487 21.1531C20.6581 21.3006 18.3822 23.1494 18.3539 23.0983C18.3312 23.07 17.8953 22.5369 17.3801 21.9244C16.8649 21.3119 16.4459 20.7845 16.4459 20.7562C16.4459 20.6881 18.6879 18.7826 18.7728 18.777C18.8011 18.7713 19.271 19.293 19.8032 19.9339ZM43.7571 19.9452C44.3346 20.4329 44.8102 20.8526 44.8102 20.8753C44.8102 20.9433 42.9192 23.1947 42.8683 23.1947C42.8456 23.1947 42.6531 23.0529 42.4437 22.8771C42.0926 22.5879 42.0643 22.5426 42.087 22.3838C42.104 22.2817 42.1323 22.0095 42.1493 21.777C42.2172 20.983 42.5852 19.0548 42.6701 19.0548C42.6871 19.0548 43.174 19.4518 43.7571 19.9452ZM25.2666 20.4159L26.2687 21.6068L25.1024 22.5822C24.4627 23.121 23.9191 23.569 23.8908 23.5804C23.8399 23.5974 21.915 21.3289 21.9093 21.2382C21.9036 21.1872 24.1626 19.2363 24.2362 19.2306C24.2532 19.225 24.7174 19.7581 25.2666 20.4159ZM67.813 19.8771C67.9998 20.0303 68.1583 20.172 68.1583 20.1891C68.1696 20.2741 66.8618 22.3554 66.4882 22.8431C66.4655 22.8715 65.3049 21.879 65.3049 21.828C65.3049 21.8053 65.7465 21.2609 66.2843 20.6201C67.1619 19.5709 67.2751 19.4575 67.3657 19.5199C67.4223 19.5596 67.6205 19.7184 67.813 19.8771ZM30.0279 20.5293C30.1695 21.1928 30.3167 22.2136 30.362 22.8148L30.3846 23.1437L29.8581 23.5974C29.575 23.8412 29.3259 24.0454 29.3089 24.0454C29.2919 24.0454 28.839 23.518 28.3012 22.8771C27.4689 21.879 27.3387 21.7032 27.4066 21.6352C27.4519 21.5898 27.9841 21.1361 28.5899 20.6257C29.8921 19.5199 29.8128 19.5255 30.0279 20.5293ZM62.995 20.9036C63.6121 21.4197 64.1386 21.8677 64.1613 21.8904C64.1896 21.9131 63.7593 22.4745 63.2045 23.1267L62.2024 24.3233L62.0439 24.1985C61.0871 23.4329 59.8472 22.3554 59.8585 22.3044C59.8755 22.208 61.7608 19.9622 61.8231 19.9622C61.8514 19.9622 62.3779 20.3875 62.995 20.9036ZM5.80227 21.3346C6.27217 21.896 6.70811 22.4291 6.78171 22.5142L6.90626 22.673L6.44768 23.0586C6.19857 23.2684 5.97211 23.4159 5.95513 23.3875C5.60977 22.8998 4.91907 21.845 4.64165 21.38L4.29064 20.7902L4.56239 20.5463C4.71525 20.4159 4.86811 20.3081 4.89642 20.3081C4.93039 20.3081 5.33802 20.7675 5.80227 21.3346ZM57.5033 21.3573C58.1204 21.8734 58.6469 22.327 58.6753 22.3667C58.7092 22.4178 58.4431 22.7807 57.7468 23.6144C57.2033 24.2552 56.7503 24.7826 56.7334 24.7826C56.705 24.7826 56.0993 24.2836 54.5027 22.9339L54.3385 22.7977L54.7518 22.2987C55.6407 21.2382 56.337 20.4159 56.3597 20.4159C56.371 20.4159 56.8862 20.8412 57.5033 21.3573ZM11.3506 21.9187C11.8771 22.5596 12.3187 23.0983 12.33 23.1267C12.347 23.1834 10.0258 25.1342 9.96349 25.1115C9.94084 25.1002 9.48226 24.5728 8.94441 23.9376C8.0046 22.8204 7.97629 22.7751 8.0782 22.6787C8.24805 22.5085 10.3315 20.7618 10.3598 20.7618C10.3768 20.7618 10.8184 21.2836 11.3506 21.9187ZM52.0116 21.811C52.6287 22.327 53.1666 22.7864 53.2062 22.8261C53.2685 22.8828 53.11 23.1097 52.2777 24.0964C51.2813 25.2817 51.27 25.293 51.1567 25.1909C51.0888 25.1342 50.5566 24.6805 49.9735 24.1928C49.3904 23.6995 48.9148 23.2741 48.9261 23.2458C48.9431 23.2004 50.851 20.8809 50.8793 20.8753C50.8907 20.8696 51.4002 21.2949 52.0116 21.811ZM16.9045 22.5142C17.3065 22.9962 17.6801 23.4443 17.7311 23.5123C17.8273 23.6314 17.8104 23.6484 16.6724 24.6012C16.0383 25.1399 15.4948 25.5822 15.4608 25.5879C15.4325 25.5993 14.9626 25.0719 14.4134 24.4197L13.4227 23.2401L14.2832 22.5142C14.7588 22.1172 15.2966 21.6635 15.4778 21.5104L15.8118 21.2325L15.993 21.431C16.0893 21.5444 16.5026 22.0322 16.9045 22.5142ZM46.6219 22.3497C47.2616 22.8885 47.7825 23.3478 47.7825 23.3705C47.7825 23.4272 45.9255 25.6503 45.8519 25.6787C45.8009 25.7013 43.4797 23.7732 43.4797 23.7051C43.4797 23.6881 43.6382 23.4783 43.8364 23.2458C44.0289 23.0133 44.4648 22.5029 44.7989 22.1002C45.1385 21.7032 45.4216 21.38 45.4386 21.38C45.4556 21.38 45.9878 21.8167 46.6219 22.3497ZM22.2773 22.8828C22.8095 23.518 23.2398 24.0624 23.2398 24.0908C23.2398 24.1645 20.9468 26.0983 20.8902 26.0756C20.828 26.0529 18.9087 23.7618 18.9144 23.7165C18.9144 23.6711 21.2412 21.7202 21.2865 21.7259C21.3035 21.7259 21.7508 22.2477 22.2773 22.8828ZM27.735 23.3592C28.2672 24 28.7031 24.5331 28.6975 24.5501C28.6975 24.6012 26.3932 26.5123 26.3366 26.5123C26.2857 26.5123 24.3324 24.2098 24.3607 24.1815C24.491 24.0567 26.7499 22.1853 26.7556 22.1909C26.7612 22.1966 27.2028 22.724 27.735 23.3592ZM65.9673 23.501C65.6786 23.8866 64.8123 24.9131 64.4274 25.3044L63.9461 25.8091L63.38 25.3214C63.0686 25.0548 62.8195 24.811 62.8308 24.7826C62.8365 24.7486 63.2781 24.1985 63.8103 23.5633L64.784 22.4121L65.3955 22.9225C65.7861 23.2514 65.9956 23.4613 65.9673 23.501ZM60.4983 23.8753C61.1097 24.3913 61.6419 24.828 61.6702 24.8507C61.7212 24.879 59.8812 27.1531 59.7283 27.2495C59.6773 27.2836 57.3505 25.3611 57.3505 25.2817C57.3505 25.208 59.298 22.9112 59.3433 22.9282C59.366 22.9339 59.8868 23.3592 60.4983 23.8753ZM8.40091 24.4424L9.403 25.6333L9.21617 25.7921C9.11426 25.8771 8.92177 26.0416 8.78589 26.1607C8.65001 26.2798 8.51414 26.3705 8.49149 26.3592C8.35561 26.3081 6.54959 24.2269 6.49863 24.0624C6.48731 24.017 7.32522 23.2514 7.38749 23.2514C7.39316 23.2514 7.85174 23.7902 8.40091 24.4424ZM55.3859 24.6465C55.8445 25.0378 56.2182 25.3724 56.2182 25.3951C56.2182 25.4178 55.7709 25.9622 55.2331 26.6087L54.2479 27.7883L53.1213 26.8469C52.5042 26.3308 51.9664 25.8715 51.9267 25.8318C51.8644 25.7751 52.023 25.5539 52.8552 24.5671L53.8573 23.3705L54.2027 23.6541C54.3951 23.8129 54.9217 24.2609 55.3859 24.6465ZM42.2625 23.7051C42.3587 23.8072 42.3587 23.8242 42.2682 23.9603C42.1323 24.1702 42.0643 24.1361 42.0643 23.8469C42.0643 23.569 42.1096 23.535 42.2625 23.7051ZM13.8643 24.9244C14.3965 25.5652 14.8211 26.1153 14.8041 26.1494C14.7758 26.1947 13.0377 27.6692 12.5848 28.0322C12.4602 28.1286 12.4602 28.1286 11.4808 26.9603C10.9429 26.3195 10.5013 25.7694 10.5013 25.741C10.5013 25.6787 12.7433 23.7732 12.8282 23.7675C12.8565 23.7618 13.3264 24.2836 13.8643 24.9244ZM49.5942 24.845C50.2339 25.3781 50.7661 25.8261 50.7774 25.8374C50.8057 25.8658 48.8582 28.1853 48.8072 28.1853C48.7789 28.1853 46.7011 26.4726 46.435 26.2288C46.4067 26.2061 48.36 23.8753 48.3996 23.8753C48.4166 23.8753 48.9544 24.3119 49.5942 24.845ZM30.3789 24.4197C30.362 24.5671 30.345 24.811 30.345 24.9584C30.345 25.1115 30.328 25.2363 30.3053 25.2306C30.277 25.2306 30.1525 25.1002 30.0223 24.9357L29.7845 24.6409L30.0506 24.4027C30.1978 24.2722 30.3393 24.1645 30.3676 24.1588C30.3959 24.1588 30.4016 24.2779 30.3789 24.4197ZM19.3333 25.4121C19.8825 26.07 20.3128 26.6257 20.2844 26.6484C20.2505 26.6654 19.724 27.1021 19.1125 27.6182C18.5011 28.1342 17.9745 28.5596 17.9519 28.5709C17.9236 28.5766 17.4537 28.0548 16.9102 27.4027L15.9138 26.2117L17.0857 25.2193C17.7311 24.6692 18.2746 24.2212 18.2916 24.2212C18.3142 24.2155 18.7785 24.7543 19.3333 25.4121ZM44.1365 25.2703C44.7592 25.7864 45.2857 26.2344 45.3141 26.2571C45.3593 26.3025 43.4967 28.5822 43.4118 28.5822C43.3269 28.5822 42.8456 27.5388 42.6305 26.8866C42.421 26.2628 42.2342 25.4745 42.2342 25.2533C42.2342 25.1512 42.8909 24.3289 42.9702 24.3289C42.9985 24.3289 43.5193 24.7543 44.1365 25.2703ZM24.6155 25.673C25.0798 26.2288 25.527 26.7618 25.6063 26.8582L25.7591 27.0397L24.5702 28.0378C23.9191 28.5879 23.3756 29.0359 23.3643 29.0359C23.3473 29.0359 22.9001 28.5085 22.3622 27.8677C21.6092 26.9717 21.3998 26.6881 21.4507 26.6371C21.513 26.5747 23.738 24.6805 23.7606 24.6749C23.7663 24.6692 24.1513 25.1229 24.6155 25.673ZM29.6882 25.6957C30.1072 26.1891 30.1695 26.2855 30.1412 26.4159C30.0053 26.966 29.7618 27.7316 29.5807 28.1626C29.3938 28.6049 28.89 29.5463 28.8447 29.5463C28.839 29.5463 28.3804 29.0076 27.8256 28.3497C26.8462 27.1815 26.8235 27.1475 26.9254 27.0454C27.0273 26.949 29.173 25.1286 29.1957 25.1229C29.2014 25.1229 29.4222 25.3781 29.6882 25.6957ZM62.8704 25.8658C63.1648 26.1153 63.397 26.3478 63.38 26.3762C63.312 26.4783 62.1514 27.5047 61.5909 27.9528L61.0191 28.4121L60.6625 28.1115C60.4643 27.9528 60.3058 27.7996 60.3114 27.777C60.3284 27.7089 62.242 25.4121 62.2873 25.4121C62.31 25.4064 62.5704 25.6106 62.8704 25.8658ZM58.0751 26.9036C59.0942 27.7599 59.2131 27.879 59.1508 27.9641C59.1112 28.0208 58.6583 28.5596 58.1487 29.172L57.2202 30.2779L56.8183 29.9433C56.5975 29.7618 56.0596 29.3081 55.618 28.9395L54.8198 28.2647L55.8162 27.0681C56.371 26.3989 56.8409 25.8885 56.8749 25.9112C56.9089 25.9282 57.4467 26.3762 58.0751 26.9036ZM10.8467 27.363C11.3392 27.9584 11.7808 28.4802 11.8205 28.5312C11.8827 28.6163 11.8601 28.6503 11.6619 28.8091L11.4355 28.9906L10.824 28.4972C10.0597 27.879 9.06331 26.983 9.08029 26.9206C9.09727 26.8356 9.87856 26.2117 9.91253 26.2458C9.92952 26.2684 10.3541 26.7732 10.8467 27.363ZM52.5721 27.346C53.2459 27.9187 53.7158 28.3554 53.7044 28.3951C53.6875 28.4348 53.2515 28.9736 52.7307 29.5974L51.7795 30.7259L50.6019 29.7278C49.9508 29.1834 49.43 28.707 49.4413 28.6787C49.4696 28.5822 51.3153 26.3762 51.3662 26.3762C51.3889 26.3705 51.9324 26.8072 52.5721 27.346ZM16.3554 27.9017C16.8875 28.5369 17.3178 29.0813 17.3121 29.104C17.2838 29.1777 14.9909 31.0832 14.9456 31.0662C14.889 31.0435 12.9641 28.7354 12.9698 28.6957C12.9754 28.6446 15.3136 26.7108 15.3476 26.7278C15.3702 26.7335 15.8232 27.2609 16.3554 27.9017ZM48.2694 28.8431C48.2014 29.0246 46.1803 31.3554 46.118 31.3214C45.3367 30.862 44.4082 30.0567 44.0232 29.501L43.859 29.2628L44.1081 28.9622C44.244 28.7978 44.7139 28.2363 45.1442 27.7202L45.9312 26.7788L47.1144 27.777C47.8051 28.3554 48.2864 28.7978 48.2694 28.8431ZM21.7904 28.3497C22.3283 28.9849 22.7585 29.5236 22.7472 29.5463C22.7246 29.603 20.4203 31.5312 20.3807 31.5312C20.3354 31.5255 18.4275 29.2117 18.4388 29.1777C18.4558 29.138 20.7996 27.1645 20.811 27.1815C20.8166 27.1872 21.2582 27.7146 21.7904 28.3497ZM27.3387 28.9225C27.8992 29.5917 28.3634 30.1531 28.3634 30.1702C28.3634 30.2609 27.5765 31.0492 27.2142 31.3214C26.7782 31.6503 25.9969 32.1153 25.9233 32.087C25.8327 32.0529 23.8399 29.6314 23.8795 29.5974C24.3155 29.1834 26.246 27.6295 26.2743 27.6579C26.297 27.6862 26.7782 28.2533 27.3387 28.9225ZM41.4869 28.8771C42.7211 31.4348 44.9517 33.2212 47.7825 33.9187L48.0373 33.9811L46.9899 34.3667C44.0742 35.4386 42.9758 35.9717 40.9886 37.2874C40.0771 37.8942 38.7693 38.8469 38.056 39.4254C37.7106 39.7089 37.6314 39.7543 37.5578 39.6919C37.3483 39.5161 37.3596 39.4424 37.688 38.8412C38.1239 38.0359 38.9845 36.2495 39.3468 35.3875C39.8224 34.2647 40.1847 33.1702 40.4508 32.07C40.6942 31.0832 41.1585 28.673 41.1585 28.4235C41.1585 28.3554 41.1698 28.2987 41.1811 28.2987C41.1981 28.2987 41.334 28.5596 41.4869 28.8771ZM60.3511 28.8658C60.3511 28.8885 60.1416 29.0473 59.8868 29.2174C59.1508 29.7108 58.245 30.2325 58.3242 30.1248C58.3639 30.0681 58.7149 29.6484 59.0999 29.1891L59.7962 28.3554L60.0737 28.5879C60.2265 28.7127 60.3511 28.8374 60.3511 28.8658ZM31.415 29.5747C32.1001 33.448 32.6322 35.0983 34.2571 38.3422L34.71 39.2495L34.4722 39.5331C34.3307 39.7032 34.2175 39.794 34.1778 39.7656C34.1382 39.7429 33.7419 39.448 33.289 39.1078C30.7186 37.1796 28.8956 36.1815 25.929 35.087C25.2892 34.8488 24.7061 34.6333 24.6268 34.6049L24.4853 34.5482L24.6551 34.5085C25.1477 34.4008 26.1385 34.0492 26.648 33.8053C28.5899 32.8696 30.0619 31.3724 31.0357 29.3478C31.1602 29.0813 31.2735 28.8715 31.2791 28.8771C31.2905 28.8885 31.3527 29.2004 31.415 29.5747ZM55.3746 29.7051C55.9181 30.1645 56.4503 30.6125 56.5578 30.6976C56.7334 30.8507 56.739 30.8564 56.6428 30.9641C56.4729 31.1512 54.4518 31.8885 53.6252 32.07C53.4327 32.1097 53.4836 32.1437 52.4985 31.3271L52.3513 31.2023L53.3308 30.034C53.8686 29.3932 54.3272 28.8658 54.3442 28.8658C54.3612 28.8658 54.8254 29.2458 55.3746 29.7051ZM12.9754 29.8979C13.1 30.0511 13.1849 30.1702 13.1679 30.1702C13.1453 30.1702 12.8905 30.0057 12.5904 29.8072L12.0526 29.4443L12.2111 29.3195L12.3696 29.1947L12.5565 29.4159C12.664 29.535 12.8509 29.7505 12.9754 29.8979ZM50.1094 30.2892C50.7435 30.8223 51.2643 31.276 51.2643 31.2987C51.2643 31.3214 51.0605 31.5879 50.8114 31.8885L50.3585 32.4443L49.8772 32.4102C48.9091 32.3422 47.8391 32.104 47.0748 31.7807L46.871 31.7013L47.8731 30.5104C48.4222 29.8526 48.8865 29.3195 48.9091 29.3195C48.9318 29.3195 49.4696 29.7562 50.1094 30.2892ZM18.903 30.9357L19.8089 32.0133L19.4862 32.3081C19.3107 32.4726 19.1069 32.6201 19.0446 32.6427C18.8011 32.7051 16.9781 32.1267 16.027 31.6843L15.6363 31.5029L16.7177 30.5898C17.7311 29.7391 17.8104 29.6824 17.9009 29.7675C17.9519 29.8185 18.4048 30.3403 18.903 30.9357ZM24.2192 31.2363C24.7231 31.8488 25.1477 32.3762 25.1534 32.4046C25.176 32.5123 24.1456 32.8015 23.2964 32.9206C22.985 32.966 22.4755 33.0057 22.1641 33H21.5979L21.2356 32.5747C20.9242 32.2004 20.8902 32.1323 20.9582 32.0643C21.111 31.9055 23.2398 30.1191 23.2681 30.1191C23.2851 30.1191 23.7097 30.6238 24.2192 31.2363ZM52.4249 32.2741C52.4249 32.3195 51.4738 32.4102 51.4285 32.3705C51.4172 32.3535 51.5078 32.2117 51.638 32.0529L51.8758 31.7637L52.1475 31.9962C52.3004 32.1267 52.4249 32.2514 52.4249 32.2741ZM20.5336 32.9263C20.5222 32.9376 20.392 32.932 20.2392 32.9093L19.9674 32.8753L20.1316 32.7391L20.2958 32.6087L20.426 32.7562C20.4996 32.8356 20.5449 32.915 20.5336 32.9263Z"/>
</svg>