<svg width="74" height="60" viewBox="0 0 74 60" fill="none" xmlns="http://www.w3.org/2000/svg">
<path d="M61.0889 0.0564804C56.0218 0.600903 51.0227 3.56688 46.9973 8.41565C43.6174 12.4875 41.4717 17.3873 41.1037 21.8788C41.0697 22.2474 41.0471 22.3438 40.9848 22.3211C40.9395 22.3041 40.9055 22.3155 40.9055 22.3438C40.9055 22.3722 40.8433 22.9336 40.764 23.5915C40.3281 27.2493 39.8129 30.3287 39.3486 32.064C38.9806 33.4591 38.239 35.2795 37.2935 37.1056L36.8575 37.9506L36.399 37.0092C35.1647 34.4743 34.6269 32.8467 34.1457 30.1983C33.8003 28.3041 33.438 25.7918 33.2342 23.9317C33.1266 22.9109 33.1096 22.8372 33.0134 22.8712C32.9511 22.8939 32.9228 22.8088 32.8945 22.4969C32.5095 18.2266 30.7318 13.8599 27.8217 10.0376C26.6781 8.52907 25.1155 6.84476 23.8417 5.74457C18.8256 1.41187 13.1131 -0.31781 8.35176 1.04892C7.19115 1.38351 6.03053 1.95062 5.09072 2.64816C4.47361 3.10752 3.44322 4.13399 3.02426 4.70676C0.363347 8.33058 0.046302 13.4743 2.15805 18.8675C2.75251 20.3986 3.60174 22.0036 4.64346 23.5631C5.70217 25.1453 6.59669 26.2455 7.95545 27.6349C10.9334 30.686 14.2794 32.8467 17.7895 33.9865C18.2198 34.1283 18.718 34.2758 18.8992 34.3155C19.137 34.3665 19.2219 34.4119 19.2219 34.4799C19.2219 34.5536 19.3521 34.616 19.7767 34.7351C21.3506 35.1775 24.6003 36.2436 26.2309 36.8561C28.5747 37.7295 29.7806 38.3476 31.6489 39.6293C32.4925 40.202 33.772 41.1718 33.772 41.2342C33.772 41.2625 32.4416 42.8731 30.811 44.8183C29.1862 46.7578 26.848 49.5423 25.6251 51.0111C24.3965 52.4799 23.3548 53.7219 23.3039 53.7729C23.2472 53.8353 23.0038 53.9034 22.6245 53.9657C21.9621 54.0792 22.0583 54.0111 21.328 54.8901L20.9373 55.3665L21.6507 55.9676C24.9287 58.7295 25.8629 59.4951 25.9025 59.4554C25.9251 59.427 26.1912 59.1094 26.4913 58.7521C26.8819 58.2871 27.0291 58.0659 27.0121 57.9865C26.9952 57.9242 26.9725 57.6066 26.9499 57.2777L26.9159 56.6822L31.7961 50.8693C34.4797 47.6709 36.6934 45.0565 36.716 45.0565C36.7386 45.0565 37.2369 45.6293 37.8257 46.3325C38.7315 47.41 44.0533 53.7559 46.4651 56.6368L47.1898 57.5045V58.1226V58.7465L47.705 59.3589C47.9881 59.6935 48.2259 59.9771 48.2372 59.9828C48.2542 60.0111 53.1005 55.9279 53.1231 55.8712C53.1288 55.8429 52.8853 55.5196 52.5739 55.1453L52.0078 54.4705L51.3114 54.4138L50.6207 54.3571L45.112 47.7843C42.0831 44.1718 39.6034 41.1945 39.6034 41.1718C39.6034 41.1151 41.2339 39.8618 42.0945 39.255C43.5155 38.2569 44.8799 37.4799 46.1934 36.9185C47.9088 36.1926 51.6115 34.9336 54.4762 34.1C54.7536 34.0206 54.8272 33.9752 54.8046 33.9071C54.7763 33.8334 54.8555 33.7937 55.1839 33.7143C55.4104 33.6576 55.9539 33.4932 56.3898 33.3457C60.6133 31.9336 64.7122 28.945 67.928 24.9412C72.5591 19.1623 74.3199 12.3741 72.5478 7.11697C72.3157 6.43644 71.7778 5.31924 71.4042 4.74646C70.9513 4.06026 70.6342 3.66329 70.0171 3.04514C68.4941 1.50261 66.5806 0.544193 64.2027 0.135876C63.6026 0.0337982 61.7399 -0.0115738 61.0889 0.0564804ZM61.4059 2.03001C61.1059 2.41565 61.0945 2.41565 60.8001 2.17746C60.6586 2.05837 60.5624 1.95629 60.585 1.94495C60.6303 1.93361 61.304 1.84287 61.5022 1.82019C61.5475 1.82019 61.5078 1.91092 61.4059 2.03001ZM63.4271 1.8769C64.1801 1.95629 64.7122 2.06971 65.4143 2.30223C65.737 2.40998 66.0144 2.50639 66.0257 2.51773C66.054 2.54609 64.1291 4.84287 64.0612 4.86555C64.0046 4.88824 61.7116 2.96007 61.7116 2.89202C61.7116 2.86366 61.9041 2.60847 62.1363 2.32491C62.6175 1.75213 62.5382 1.77482 63.4271 1.8769ZM60.0981 2.5631C60.3642 2.78427 60.5737 2.98843 60.568 3.01111C60.5567 3.03947 60.1038 3.59523 59.5546 4.24741L58.5582 5.43266L57.3749 4.44022C56.7238 3.89013 56.1917 3.41943 56.1917 3.39674C56.1917 3.36839 56.2539 3.30601 56.3275 3.26064C56.7465 2.98843 59.0847 2.17746 59.5036 2.16045C59.5659 2.16045 59.832 2.33625 60.0981 2.5631ZM12.898 2.47236C13.198 2.48937 13.4471 2.5234 13.4415 2.54041C13.4415 2.5631 13.2546 2.72756 13.0338 2.90903L12.6262 3.23796L12.3828 2.96574C12.2469 2.81829 12.0884 2.62548 12.0261 2.54041L11.9185 2.39296L12.128 2.41565C12.2469 2.42699 12.5922 2.44968 12.898 2.47236ZM11.409 2.96007C11.6411 3.23796 11.8789 3.53285 11.9355 3.6009L12.0374 3.73701L10.8655 4.71811C10.2257 5.25686 9.67656 5.6992 9.65391 5.6992C9.60296 5.6992 7.61576 3.34571 7.61576 3.28333C7.61576 3.18124 8.98019 2.72756 9.73883 2.58578C10.3729 2.46102 10.4409 2.45535 10.7296 2.44968C10.9844 2.444 10.9844 2.44968 11.409 2.96007ZM14.9191 2.83531C15.1513 2.89769 15.6948 3.07349 16.125 3.21527L16.9063 3.48181L17.2234 3.86745L17.5348 4.25308L17.3706 4.38918C15.6778 5.81263 15.1682 6.23228 15.1343 6.22094C15.1173 6.21527 14.653 5.67652 14.1039 5.01867C13.3056 4.06593 13.1188 3.81641 13.1754 3.75969C13.3962 3.54987 14.3926 2.72756 14.4379 2.72756C14.4719 2.72189 14.687 2.77293 14.9191 2.83531ZM67.3222 3.2096C67.5996 3.3854 67.9393 3.61792 68.0809 3.73134C68.4205 4.00355 69.1565 4.74646 69.1565 4.81451C69.1565 4.89958 67.0561 7.37784 67.0052 7.36083C66.9769 7.34949 66.4503 6.92416 65.8389 6.40809C65.2274 5.89202 64.7009 5.45535 64.667 5.43834C64.616 5.40431 66.6881 2.89202 66.773 2.89202C66.7957 2.89202 67.0448 3.0338 67.3222 3.2096ZM63.5403 5.50639C63.5063 5.59145 61.5644 7.88257 61.5191 7.88257C61.4682 7.88257 59.164 5.94873 59.164 5.90336C59.164 5.88635 59.6169 5.33058 60.1717 4.66707L61.1795 3.4648L62.3684 4.46291C63.0195 5.013 63.546 5.4837 63.5403 5.50639ZM8.17059 5.13777L9.07644 6.22094L7.93847 7.17936C7.3157 7.70676 6.77219 8.15478 6.73256 8.18314C6.68727 8.21149 6.3306 7.82586 5.65121 7.02057C5.09638 6.36272 4.62648 5.78994 4.60383 5.75591C4.55288 5.67085 5.26057 4.87123 5.74746 4.46291C5.95127 4.29277 6.29096 4.03191 6.5061 3.89013L6.90241 3.63493L7.07792 3.84476C7.17982 3.95818 7.66672 4.5423 8.17059 5.13777ZM56.8541 4.96763C57.4712 5.4837 57.9977 5.93172 58.026 5.96007C58.0769 6.00544 56.1407 8.39296 56.0671 8.37595C55.9935 8.35894 53.7062 6.44212 53.7062 6.39675C53.7006 6.34003 55.6425 4.02623 55.6934 4.02623C55.7104 4.02623 56.2369 4.45156 56.8541 4.96763ZM53.8931 4.9733C52.9986 6.04514 53.1231 5.9544 52.857 5.71054L52.6306 5.50639L52.9193 5.29089C53.3722 4.95629 54.4026 4.25875 54.4536 4.25875C54.4819 4.25308 54.2271 4.57633 53.8931 4.9733ZM13.5547 5.5234L14.5738 6.74268L13.3849 7.74079C12.7338 8.29089 12.179 8.72756 12.1506 8.71054C12.0601 8.65384 10.1634 6.36272 10.1691 6.31168C10.1691 6.27765 12.479 4.30979 12.5186 4.30979C12.53 4.30979 12.9886 4.85421 13.5547 5.5234ZM20.241 5.3079C20.7222 5.63115 21.1751 5.93739 21.2487 5.9941L21.3789 6.10185L20.9883 6.41943L20.6033 6.73701L19.6692 5.63115C19.1596 5.01867 18.7067 4.46858 18.6614 4.40053C18.5368 4.23606 19.1766 4.59901 20.241 5.3079ZM19.0237 6.01678C19.8616 7.01489 20.0145 7.22472 19.9522 7.28711C19.9069 7.3268 19.3691 7.78049 18.7576 8.30223L17.6367 9.24363L16.6629 8.07539C16.125 7.43455 15.6778 6.89013 15.6665 6.86177C15.6551 6.82775 17.9424 4.84287 18.0103 4.82019C18.016 4.82019 18.4689 5.35894 19.0237 6.01678ZM69.9661 5.88068C70.3285 6.48748 70.6965 7.29845 70.906 7.95629C71.0022 8.25686 71.0815 8.52907 71.0815 8.5631C71.0815 8.61981 70.0794 9.82775 70.0058 9.8561C69.9492 9.87879 67.6562 7.95062 67.6562 7.8769C67.6562 7.81451 69.6151 5.44968 69.6717 5.444C69.6887 5.444 69.8189 5.64249 69.9661 5.88068ZM65.2501 6.88446C65.7313 7.28711 66.2182 7.7011 66.3371 7.80317L66.5409 7.98465L65.5219 9.20393L64.5028 10.4232L63.3195 9.43077C62.6684 8.88068 62.1419 8.40998 62.1476 8.38729C62.1589 8.35894 62.6118 7.80317 63.1553 7.151C64.1178 5.99977 64.1461 5.97142 64.2593 6.06215C64.3216 6.11319 64.7689 6.48181 65.2501 6.88446ZM52.3531 6.25497L52.6192 6.49315L51.7134 7.57066C51.2152 8.16045 50.7623 8.6992 50.7 8.75591C50.5981 8.86367 50.5867 8.85799 50.1904 8.53474C49.9696 8.35327 49.7771 8.18314 49.7602 8.15478C49.6922 8.04703 51.8549 6.00544 52.0304 6.01111C52.0587 6.01678 52.2059 6.12453 52.3531 6.25497ZM5.11337 7.53663C5.64555 8.17179 6.07017 8.71622 6.05318 8.7389C5.9626 8.88635 3.69799 10.7238 3.65836 10.6841C3.63571 10.6557 3.42623 10.4119 3.19977 10.134L2.79214 9.6406L2.91103 9.14722C2.97897 8.87501 3.12617 8.40998 3.2394 8.10941C3.44888 7.53663 4.049 6.34003 4.11128 6.36272C4.12826 6.37406 4.58118 6.90147 5.11337 7.53663ZM59.849 7.49126C60.4831 8.02435 61.004 8.4837 61.004 8.50639C61.004 8.54609 59.3225 10.5933 59.079 10.8485C59.0564 10.8769 58.4959 10.4459 57.8392 9.8958L56.6446 8.89202L56.7748 8.73323C57.2957 8.07539 58.6091 6.52718 58.6488 6.52718C58.6771 6.52151 59.2149 6.95818 59.849 7.49126ZM22.4943 6.98654C22.7603 7.21338 23.2812 7.68975 23.6492 8.04703L24.3173 8.68786L23.7738 9.15289C23.4737 9.40242 23.1963 9.62926 23.1567 9.65194C23.1057 9.68597 22.766 9.31735 22.081 8.50639L21.0845 7.31546L21.26 7.16234C21.7073 6.78805 21.9677 6.57822 21.9904 6.57822C22.0017 6.57822 22.2282 6.76537 22.4943 6.98654ZM10.5824 8.01867C11.1316 8.67652 11.5788 9.22094 11.5788 9.23796C11.5732 9.28899 9.26893 11.2001 9.21231 11.2001C9.17834 11.2001 8.70844 10.6671 8.15927 10.0092C7.49121 9.20393 7.18549 8.80128 7.22512 8.76159C7.42327 8.55743 9.51803 6.81641 9.552 6.82207C9.57465 6.82775 10.0389 7.3665 10.5824 8.01867ZM54.3573 7.94495C54.9914 8.47803 55.5236 8.93172 55.5406 8.96007C55.5689 9.00544 53.6779 11.2966 53.5874 11.3306C53.5251 11.3533 51.2038 9.40242 51.2208 9.34571C51.2435 9.28899 53.1514 6.98087 53.1854 6.9752C53.1967 6.9752 53.7232 7.41187 54.3573 7.94495ZM16.0684 8.52907L17.0648 9.71432L16.6516 10.0603C15.6381 10.9223 14.704 11.6992 14.6757 11.7049C14.6134 11.7162 12.6545 9.33437 12.6942 9.29467C12.8527 9.14722 15.055 7.32113 15.0663 7.33247C15.072 7.33815 15.5249 7.8769 16.0684 8.52907ZM21.5375 9.01111C22.0696 9.65194 22.5056 10.185 22.4999 10.202C22.4943 10.2531 20.1843 12.1642 20.1334 12.1642C20.0711 12.1642 18.1405 9.8561 18.1575 9.79939C18.1858 9.72567 20.4787 7.82019 20.524 7.8372C20.5467 7.84854 20.9996 8.37595 21.5375 9.01111ZM69.4849 10.4969C69.451 10.5877 67.509 12.8731 67.4638 12.8731C67.4354 12.8731 65.2954 11.1094 65.0916 10.9166C65.0803 10.9053 65.5332 10.3495 66.0993 9.67463L67.1241 8.45535L68.313 9.45913C68.9641 10.0092 69.4906 10.4743 69.4849 10.4969ZM49.7488 9.14155L50.1225 9.45913L49.1374 10.6444C48.5939 11.2909 48.1296 11.824 48.1127 11.824C48.0447 11.824 47.2521 11.1434 47.2521 11.0867C47.2521 11.013 48.1353 9.87879 48.7241 9.19826C49.1261 8.7389 49.194 8.68219 49.2733 8.74457C49.3299 8.78427 49.5394 8.96007 49.7488 9.14155ZM62.8213 9.98654C63.4554 10.5139 63.9763 10.9733 63.9763 11.0017C63.9763 11.03 63.5347 11.5744 62.9968 12.2209L62.0174 13.3892L61.8532 13.2588C61.2587 12.7881 59.6508 11.4213 59.6508 11.3816C59.6452 11.3249 61.5758 9.01678 61.6267 9.01678C61.6494 9.01678 62.1872 9.45346 62.8213 9.98654ZM25.6138 10.1794C26.044 10.7011 26.7517 11.6255 26.7517 11.6765C26.7517 11.7276 25.6421 12.6463 25.5798 12.6406C25.5175 12.6406 23.6322 10.3665 23.6322 10.2928C23.6266 10.2588 23.8926 10.0149 24.2154 9.74268L24.7985 9.2493L25.0419 9.51584C25.1722 9.66329 25.4326 9.95818 25.6138 10.1794ZM7.63275 10.5423L8.62918 11.7276L7.44592 12.7257C6.79484 13.2758 6.25133 13.7238 6.24001 13.7238C6.19472 13.7238 4.21885 11.3476 4.22451 11.3022C4.22451 11.2342 6.55706 9.30601 6.60235 9.32869C6.61933 9.34571 7.08358 9.89013 7.63275 10.5423ZM57.4202 10.5139L58.5582 11.4724L57.5674 12.6519C57.0239 13.3041 56.5597 13.8372 56.537 13.8372C56.5087 13.8372 55.4387 12.9468 54.329 12.0111L54.1478 11.858L55.1499 10.6614C55.801 9.88446 56.169 9.48748 56.2143 9.51584C56.2539 9.53852 56.7974 9.98654 57.4202 10.5139ZM71.3079 9.65194C71.3079 9.69164 71.3362 10.0092 71.3702 10.3665C71.4042 10.7181 71.4212 11.0243 71.4042 11.0414C71.3815 11.0584 71.1947 10.9223 70.9852 10.7408C70.7757 10.5593 70.5889 10.4062 70.5776 10.3949C70.5493 10.3778 71.2173 9.58956 71.2683 9.58956C71.2909 9.58389 71.3079 9.61225 71.3079 9.65194ZM13.1074 11.0357C14.0586 12.1699 14.0812 12.2039 13.9793 12.3003C13.9227 12.357 13.3849 12.8164 12.7847 13.3155L11.6977 14.2285L10.7183 13.0659C10.1804 12.4251 9.73317 11.875 9.72185 11.8523C9.6992 11.7956 12.0431 9.81073 12.094 9.84476C12.1167 9.8561 12.5696 10.3892 13.1074 11.0357ZM51.9172 10.9563C52.557 11.495 53.0722 11.9487 53.0665 11.9714C53.0552 11.9941 52.6079 12.5385 52.0644 13.185L51.085 14.3533L50.9604 14.2455C50.8981 14.1888 50.3659 13.7408 49.7828 13.2474C49.194 12.7597 48.7184 12.3457 48.7184 12.3287C48.7184 12.272 50.6603 9.98087 50.7113 9.98087C50.7339 9.98087 51.2775 10.4175 51.9172 10.9563ZM18.418 11.3249C18.8822 11.8807 19.3295 12.4138 19.4087 12.5102L19.5559 12.686L18.3896 13.6727C17.7442 14.2172 17.2007 14.6652 17.1781 14.6765C17.1611 14.6822 16.6912 14.1548 16.142 13.4969L15.1399 12.3003L15.2701 12.1926C15.3437 12.1359 15.8703 11.6935 16.4477 11.2058C17.0252 10.7238 17.5121 10.3211 17.5348 10.3211C17.5517 10.3211 17.9537 10.7748 18.418 11.3249ZM2.8714 11.4383C2.56002 11.7105 2.5487 11.6935 2.60531 11.064L2.64494 10.6387L2.89405 10.9223L3.1375 11.2001L2.8714 11.4383ZM24.0342 11.9941C24.5947 12.6633 24.991 13.185 24.9627 13.2134C24.7306 13.4289 22.6584 15.1416 22.6245 15.1416C22.5679 15.1416 20.6373 12.8334 20.6429 12.7767C20.6486 12.7087 22.9755 10.7805 23.0208 10.8088C23.0434 10.8202 23.4963 11.3533 24.0342 11.9941ZM70.855 11.5971C71.1494 11.841 71.3985 12.0451 71.4042 12.0508C71.4381 12.0678 71.2966 13.3608 71.189 13.9733L71.0758 14.6425L70.7588 15.0281L70.4417 15.4194L69.2585 14.4213C68.6074 13.8712 68.0865 13.4005 68.0922 13.3722C68.1035 13.3381 68.5564 12.7824 69.0999 12.1359C70.0681 10.979 70.0907 10.9563 70.2039 11.0527C70.2662 11.1094 70.5606 11.3533 70.855 11.5971ZM65.7936 12.4818C66.4277 13.0149 66.9486 13.4743 66.9486 13.4969C66.9486 13.531 65.2671 15.5839 65.0236 15.8448C64.9953 15.8674 64.4405 15.4421 63.7838 14.8864L62.5892 13.8826L62.6854 13.7521C63.0138 13.3211 64.5481 11.5177 64.5934 11.5121C64.616 11.5121 65.1595 11.9487 65.7936 12.4818ZM47.2408 12.0962L47.6427 12.4251L46.6463 13.616C46.0972 14.2682 45.6329 14.8013 45.6159 14.8013C45.5933 14.7956 45.4914 14.7219 45.3838 14.6312L45.1913 14.4667L45.2989 14.2228C45.3555 14.0924 45.6386 13.599 45.916 13.1283C46.652 11.9034 46.7595 11.7389 46.8048 11.7559C46.8275 11.7616 47.0256 11.9147 47.2408 12.0962ZM4.64346 13.0092C5.18697 13.6671 5.62857 14.2172 5.6229 14.2398C5.60592 14.2682 3.69799 15.8845 3.35263 16.1567C3.26771 16.2247 3.24506 16.2247 3.17146 16.1283C3.13183 16.0716 3.08088 15.9582 3.0639 15.8788C3.04691 15.7994 2.98463 15.4932 2.92236 15.1926C2.7978 14.6198 2.66193 13.6671 2.61097 13.0319L2.58267 12.6576L3.07522 12.2323C3.34697 11.9941 3.58476 11.807 3.6074 11.8126C3.63005 11.8183 4.09429 12.357 4.64346 13.0092ZM60.3019 12.9355C60.936 13.4686 61.4682 13.9279 61.4852 13.9506C61.5078 13.9903 59.6169 16.2871 59.5263 16.3211C59.4584 16.3495 57.1485 14.393 57.1711 14.3249C57.1937 14.2625 59.096 11.9714 59.13 11.9657C59.1413 11.9657 59.6678 12.4024 60.3019 12.9355ZM10.1578 13.548L11.1259 14.7105L10.9164 14.8807C10.7975 14.9771 10.2597 15.4308 9.71619 15.8901L8.72542 16.7238L8.54991 16.514C8.45933 16.4005 8.00641 15.8618 7.54782 15.3117C7.08924 14.7673 6.73256 14.3022 6.75521 14.2852C7.18549 13.8826 9.12173 12.3174 9.15004 12.3457C9.17268 12.3741 9.6256 12.9128 10.1578 13.548ZM27.8444 13.3211C28.1048 13.7465 28.4275 14.3022 28.5691 14.5631L28.8182 15.0338L28.5917 15.2323C28.4672 15.34 28.2973 15.4761 28.2181 15.5385L28.0709 15.6463L27.0688 14.4497L26.061 13.2588L26.2761 13.0773C26.395 12.9809 26.6498 12.771 26.8366 12.6066C27.2443 12.255 27.1593 12.1983 27.8444 13.3211ZM55.1499 13.6727L56.0671 14.444L55.0707 15.6293C54.5272 16.2814 54.0573 16.8088 54.029 16.8032C54.0063 16.7918 53.4628 16.3495 52.823 15.8107C51.6681 14.841 51.6681 14.841 51.7643 14.7105C51.8153 14.6425 52.2682 14.0981 52.7664 13.5083L53.6666 12.4308L53.9497 12.6633C54.1082 12.7937 54.6461 13.2474 55.1499 13.6727ZM15.5929 13.996C16.125 14.6312 16.561 15.1642 16.5553 15.1869C16.5553 15.2266 14.2624 17.1491 14.1945 17.1661C14.1435 17.1831 12.2299 14.8864 12.2299 14.807C12.2299 14.7389 14.5228 12.8051 14.5794 12.8277C14.6077 12.8391 15.0607 13.3608 15.5929 13.996ZM49.4261 13.9223C50.0602 14.4553 50.5754 14.909 50.5698 14.9317C50.5471 15.0054 48.6392 17.2909 48.5939 17.2966C48.5316 17.2966 46.2557 15.3627 46.2557 15.3003C46.2557 15.2209 48.1693 12.9298 48.2259 12.9468C48.2485 12.9525 48.7864 13.3949 49.4261 13.9223ZM21.0562 14.478L22.047 15.6633L20.8751 16.6501C20.2296 17.1888 19.6805 17.6312 19.6465 17.6312C19.5956 17.6312 17.7046 15.3911 17.6763 15.2947C17.665 15.2493 19.9692 13.2758 20.0258 13.2871C20.0485 13.2928 20.5127 13.8315 21.0562 14.478ZM26.5253 14.9601C27.0518 15.5952 27.4764 16.134 27.4594 16.1623C27.4481 16.185 26.9102 16.6444 26.2705 17.1831L25.1099 18.1586L24.974 17.9941C24.9004 17.909 24.4588 17.376 23.9832 16.8145C23.5133 16.2531 23.134 15.771 23.1453 15.7484C23.1736 15.6576 25.4213 13.7862 25.4892 13.7975C25.5288 13.8032 25.9931 14.3306 26.5253 14.9601ZM68.7659 14.9771C69.4 15.5102 69.9322 15.9582 69.9435 15.9639C69.9492 15.9752 69.5076 16.5253 68.9584 17.1831C68.0809 18.2266 67.945 18.3684 67.8657 18.306C67.4411 17.9714 65.6124 16.4175 65.6011 16.3835C65.5785 16.3325 67.509 14.0073 67.5713 14.0073C67.5883 14.0073 68.1262 14.444 68.7659 14.9771ZM63.3931 15.5329L64.5028 16.4629L63.512 17.6482C62.9628 18.2947 62.5043 18.8278 62.4816 18.8278C62.4533 18.8278 60.4265 17.1548 60.1038 16.8656C60.0981 16.8599 60.5397 16.3155 61.0889 15.6576C61.9777 14.5971 62.1023 14.4724 62.1872 14.5347C62.2438 14.5688 62.7873 15.0225 63.3931 15.5329ZM7.1685 16.0262L8.14795 17.2002L7.97244 17.3476C7.87619 17.427 7.33835 17.8807 6.77786 18.3571L5.75878 19.2191L4.75669 18.0225C3.86217 16.962 3.76592 16.8202 3.83952 16.7465C4.09429 16.4913 6.12112 14.8183 6.15509 14.8353C6.17207 14.8523 6.63066 15.3854 7.1685 16.0262ZM57.7882 15.8845C58.3883 16.3892 58.9148 16.8315 58.9601 16.8712C59.0224 16.9336 58.8696 17.1434 58.0317 18.1416C57.0239 19.3382 57.0239 19.3438 56.905 19.2361C56.8371 19.1794 56.3219 18.7427 55.7557 18.2663C55.1839 17.7899 54.7083 17.376 54.6857 17.3476C54.6517 17.2909 56.5597 14.9714 56.6446 14.9714C56.6729 14.9714 57.1881 15.3854 57.7882 15.8845ZM45.0894 15.3854C45.1064 15.4364 44.3477 16.3949 44.3138 16.3665C44.3081 16.3552 44.4157 16.0773 44.5629 15.7427L44.8233 15.1416L44.9479 15.2436C45.0158 15.2947 45.0837 15.3627 45.0894 15.3854ZM12.5186 16.3722C13.0055 16.962 13.4585 17.4894 13.5151 17.5574C13.6226 17.6765 13.6226 17.6765 12.4224 18.6803C11.4373 19.5083 11.2108 19.6727 11.1542 19.6104C11.1146 19.5707 10.656 19.0319 10.1408 18.4194L9.20099 17.2966L10.3786 16.3041C11.024 15.7597 11.5675 15.3117 11.5902 15.3117C11.6128 15.3117 12.0261 15.7881 12.5186 16.3722ZM52.4098 16.4346L53.5817 17.4157L52.5853 18.6066C52.0361 19.2588 51.5662 19.7862 51.5435 19.7805C51.4473 19.7465 49.177 17.8353 49.1883 17.7956C49.211 17.7162 51.1699 15.4194 51.2038 15.4364C51.2265 15.4478 51.77 15.8958 52.4098 16.4346ZM18.0613 16.9336C18.5935 17.5688 19.0237 18.1189 19.0237 18.1472C19.0237 18.2039 16.7535 20.1321 16.6855 20.1321C16.6629 20.1321 16.2043 19.6047 15.6608 18.9639L14.6813 17.7956L14.8116 17.6595C15.0097 17.4667 17.0365 15.771 17.0705 15.771C17.0875 15.771 17.5348 16.2928 18.0613 16.9336ZM29.4296 16.3098C29.6957 16.9166 30.0977 17.9884 30.075 18.0111C30.0694 18.0225 29.724 17.6255 29.3107 17.1378L28.5634 16.2474L28.8352 16.0092C28.9824 15.8731 29.1239 15.7767 29.1579 15.7824C29.1862 15.7937 29.3107 16.0319 29.4296 16.3098ZM48.0051 17.807C48.107 17.9034 48.073 17.9487 47.1049 19.1056L46.0972 20.2966L45.9216 20.1491C45.8254 20.0697 45.2932 19.6217 44.7384 19.1567C44.1836 18.6916 43.7363 18.2833 43.7476 18.2606C43.7589 18.2323 44.2062 17.6879 44.744 17.047L45.7178 15.8788L46.8105 16.7918C47.405 17.2966 47.9428 17.7502 48.0051 17.807ZM23.2642 17.1094C23.6492 17.5744 24.0965 18.1019 24.2493 18.2947L24.5381 18.6406L23.4001 19.599C22.7717 20.1264 22.2282 20.5744 22.1942 20.5971C22.1546 20.6198 21.7469 20.1831 21.1298 19.4459L20.1277 18.255L20.3146 18.0962C20.8977 17.5858 22.4829 16.2758 22.5169 16.2758C22.5395 16.2758 22.8736 16.6501 23.2642 17.1094ZM70.487 16.7238C70.2889 17.2966 69.8076 18.4591 69.5642 18.9639L69.2981 19.5253L68.9131 19.1964C68.5338 18.8731 68.5338 18.8731 68.6357 18.737C68.8961 18.3911 70.4927 16.5083 70.5266 16.5026C70.5493 16.5026 70.5323 16.6047 70.487 16.7238ZM28.988 17.8977C29.5202 18.5329 29.9505 19.0773 29.9505 19.1056C29.9505 19.1737 27.6519 21.1019 27.5953 21.0848C27.533 21.0622 25.6194 18.771 25.6194 18.7257C25.6251 18.6803 27.952 16.7295 27.9973 16.7351C28.0142 16.7351 28.4615 17.2569 28.988 17.8977ZM66.2748 17.9544L67.4638 18.9468L67.3335 19.1113C66.8636 19.7068 65.4992 21.3174 65.4596 21.3174C65.369 21.3287 63.0931 19.3722 63.1214 19.3041C63.144 19.2361 65.035 16.962 65.0689 16.9563C65.0746 16.9563 65.6181 17.4043 66.2748 17.9544ZM60.9643 18.5555C61.5135 19.0206 61.9664 19.4175 61.9664 19.4402C61.9664 19.4969 60.0358 21.8051 59.9905 21.8051C59.9736 21.8051 59.43 21.3627 58.7846 20.8183C57.7542 19.9563 57.6184 19.8202 57.6806 19.7351C57.7203 19.6841 58.1675 19.1397 58.6771 18.5272L59.6112 17.4157L59.7811 17.5631C59.8773 17.6482 60.4095 18.0905 60.9643 18.5555ZM9.65391 18.9865C10.1804 19.6217 10.6164 20.1548 10.6107 20.1775C10.6107 20.2228 8.32345 22.1397 8.25551 22.1567C8.20456 22.168 6.2853 19.8712 6.2853 19.7975C6.2853 19.7295 8.58388 17.8013 8.6405 17.8183C8.66314 17.8296 9.12173 18.3514 9.65391 18.9865ZM55.3651 18.9128C56.0048 19.4402 56.52 19.8939 56.5144 19.9223C56.4974 19.9903 54.5838 22.2814 54.5385 22.2814C54.4592 22.2928 52.2003 20.3476 52.2059 20.2795C52.2173 20.1831 54.1082 17.9147 54.1648 17.9374C54.1875 17.9431 54.731 18.3797 55.3651 18.9128ZM4.52457 18.9071L5.18697 19.6898L4.97183 19.8826C4.85294 19.9846 4.73971 20.0697 4.72272 20.0754C4.68875 20.0754 4.19054 19.0376 3.93577 18.4308C3.83952 18.1983 3.78291 18.0281 3.81122 18.0622C3.84519 18.0905 4.16223 18.4705 4.52457 18.9071ZM15.1682 19.5253L16.1081 20.6538L14.9305 21.6406C14.285 22.1794 13.7415 22.6274 13.7189 22.6274C13.6962 22.6274 13.2773 22.151 12.7904 21.5612C12.2978 20.9771 11.8506 20.4497 11.794 20.3816C11.6921 20.2682 11.7034 20.2569 12.8923 19.2588C13.8604 18.4421 14.1039 18.2663 14.1605 18.3287C14.1945 18.3684 14.653 18.9071 15.1682 19.5253ZM49.9357 19.4289C50.5301 19.9223 51.0227 20.3533 51.034 20.376C51.0453 20.4043 50.6037 20.9601 50.0602 21.6066L49.0695 22.7918L47.8919 21.7994C47.2408 21.255 46.7143 20.7843 46.7199 20.7559C46.7312 20.7276 47.1728 20.1831 47.7107 19.5423C48.5599 18.5272 48.6958 18.3854 48.7694 18.4535C48.8203 18.4932 49.3469 18.9355 49.9357 19.4289ZM20.5693 19.9336C21.1072 20.5744 21.5318 21.1245 21.5148 21.1529C21.4242 21.3003 19.1483 23.1491 19.12 23.0981C19.0973 23.0697 18.6614 22.5366 18.1462 21.9242C17.631 21.3117 17.212 20.7843 17.212 20.7559C17.212 20.6879 19.454 18.7824 19.5389 18.7767C19.5672 18.771 20.0371 19.2928 20.5693 19.9336ZM44.5232 19.945C45.1007 20.4327 45.5763 20.8523 45.5763 20.875C45.5763 20.9431 43.6853 23.1945 43.6344 23.1945C43.6117 23.1945 43.4193 23.0527 43.2098 22.8769C42.8588 22.5877 42.8305 22.5423 42.8531 22.3835C42.8701 22.2814 42.8984 22.0092 42.9154 21.7767C42.9833 20.9828 43.3513 19.0546 43.4362 19.0546C43.4532 19.0546 43.9401 19.4516 44.5232 19.945ZM26.0327 20.4157L27.0348 21.6066L25.8685 22.582C25.2288 23.1208 24.6853 23.5688 24.657 23.5801C24.606 23.5971 22.6811 21.3287 22.6754 21.238C22.6698 21.1869 24.9287 19.2361 25.0023 19.2304C25.0193 19.2247 25.4835 19.7578 26.0327 20.4157ZM68.5791 19.8769C68.7659 20.03 68.9244 20.1718 68.9244 20.1888C68.9358 20.2739 67.6279 22.3552 67.2543 22.8429C67.2316 22.8712 66.071 21.8788 66.071 21.8278C66.071 21.8051 66.5126 21.2606 67.0505 20.6198C67.928 19.5707 68.0412 19.4572 68.1318 19.5196C68.1884 19.5593 68.3866 19.7181 68.5791 19.8769ZM30.794 20.5291C30.9356 21.1926 31.0828 22.2134 31.1281 22.8145L31.1507 23.1434L30.6242 23.5971C30.3411 23.841 30.092 24.0451 30.075 24.0451C30.058 24.0451 29.6051 23.5177 29.0673 22.8769C28.235 21.8788 28.1048 21.703 28.1728 21.6349C28.2181 21.5896 28.7502 21.1359 29.356 20.6255C30.6582 19.5196 30.5789 19.5253 30.794 20.5291ZM63.7611 20.9034C64.3782 21.4194 64.9047 21.8675 64.9274 21.8901C64.9557 21.9128 64.5254 22.4743 63.9706 23.1264L62.9685 24.323L62.81 24.1983C61.8532 23.4327 60.6133 22.3552 60.6246 22.3041C60.6416 22.2077 62.5269 19.962 62.5892 19.962C62.6175 19.962 63.144 20.3873 63.7611 20.9034ZM6.56838 21.3344C7.03829 21.8958 7.47422 22.4289 7.54782 22.514L7.67238 22.6727L7.21379 23.0584C6.96469 23.2682 6.73823 23.4157 6.72124 23.3873C6.37589 22.8996 5.68518 21.8448 5.40777 21.3797L5.05675 20.7899L5.32851 20.5461C5.48137 20.4157 5.63423 20.3079 5.66254 20.3079C5.6965 20.3079 6.10413 20.7673 6.56838 21.3344ZM58.2694 21.3571C58.8865 21.8731 59.4131 22.3268 59.4414 22.3665C59.4753 22.4175 59.2092 22.7805 58.5129 23.6141C57.9694 24.255 57.5165 24.7824 57.4995 24.7824C57.4712 24.7824 56.8654 24.2833 55.2688 22.9336L55.1046 22.7975L55.5179 22.2985C56.4068 21.238 57.1032 20.4157 57.1258 20.4157C57.1371 20.4157 57.6523 20.841 58.2694 21.3571ZM12.1167 21.9185C12.6432 22.5593 13.0848 23.0981 13.0961 23.1264C13.1131 23.1831 10.7919 25.134 10.7296 25.1113C10.707 25.1 10.2484 24.5726 9.71053 23.9374C8.77071 22.8202 8.74241 22.7748 8.84431 22.6784C9.01416 22.5083 11.0976 20.7616 11.1259 20.7616C11.1429 20.7616 11.5845 21.2833 12.1167 21.9185ZM52.7778 21.8107C53.3949 22.3268 53.9327 22.7862 53.9723 22.8259C54.0346 22.8826 53.8761 23.1094 53.0438 24.0962C52.0474 25.2814 52.0361 25.2928 51.9229 25.1907C51.8549 25.134 51.3227 24.6803 50.7396 24.1926C50.1565 23.6992 49.6809 23.2739 49.6922 23.2455C49.7092 23.2002 51.6171 20.8807 51.6455 20.875C51.6568 20.8693 52.1663 21.2947 52.7778 21.8107ZM17.6706 22.514C18.0726 22.996 18.4463 23.444 18.4972 23.5121C18.5935 23.6312 18.5765 23.6482 17.4385 24.6009C16.8044 25.1397 16.2609 25.582 16.2269 25.5877C16.1986 25.599 15.7287 25.0716 15.1796 24.4194L14.1888 23.2398L15.0493 22.514C15.5249 22.117 16.0628 21.6633 16.2439 21.5102L16.578 21.2323L16.7591 21.4308C16.8554 21.5442 17.2687 22.0319 17.6706 22.514ZM47.388 22.3495C48.0277 22.8882 48.5486 23.3476 48.5486 23.3703C48.5486 23.427 46.6916 25.6501 46.618 25.6784C46.5671 25.7011 44.2458 23.7729 44.2458 23.7049C44.2458 23.6879 44.4044 23.478 44.6025 23.2455C44.795 23.013 45.2309 22.5026 45.565 22.1C45.9047 21.703 46.1877 21.3797 46.2047 21.3797C46.2217 21.3797 46.7539 21.8164 47.388 22.3495ZM23.0434 22.8826C23.5756 23.5177 24.0059 24.0622 24.0059 24.0905C24.0059 24.1642 21.713 26.0981 21.6563 26.0754C21.5941 26.0527 19.6748 23.7616 19.6805 23.7162C19.6805 23.6709 22.0074 21.72 22.0527 21.7257C22.0696 21.7257 22.5169 22.2474 23.0434 22.8826ZM28.5011 23.3589C29.0333 23.9998 29.4692 24.5329 29.4636 24.5499C29.4636 24.6009 27.1593 26.5121 27.1027 26.5121C27.0518 26.5121 25.0986 24.2096 25.1269 24.1812C25.2571 24.0565 27.516 22.185 27.5217 22.1907C27.5273 22.1964 27.9689 22.7238 28.5011 23.3589ZM66.7334 23.5007C66.4447 23.8864 65.5785 24.9128 65.1935 25.3041L64.7122 25.8088L64.1461 25.3211C63.8347 25.0546 63.5856 24.8107 63.5969 24.7824C63.6026 24.7484 64.0442 24.1983 64.5764 23.5631L65.5502 22.4119L66.1616 22.9223C66.5522 23.2512 66.7617 23.461 66.7334 23.5007ZM61.2644 23.875C61.8758 24.3911 62.408 24.8278 62.4363 24.8504C62.4873 24.8788 60.6473 27.1529 60.4944 27.2493C60.4435 27.2833 58.1166 25.3608 58.1166 25.2814C58.1166 25.2077 60.0641 22.9109 60.1094 22.9279C60.1321 22.9336 60.6529 23.3589 61.2644 23.875ZM9.16702 24.4421L10.1691 25.633L9.98228 25.7918C9.88037 25.8769 9.68788 26.0414 9.552 26.1605C9.41613 26.2795 9.28025 26.3703 9.2576 26.3589C9.12173 26.3079 7.3157 24.2266 7.26475 24.0622C7.25342 24.0168 8.09133 23.2512 8.15361 23.2512C8.15927 23.2512 8.61785 23.7899 9.16702 24.4421ZM56.152 24.6463C56.6106 25.0376 56.9843 25.3722 56.9843 25.3949C56.9843 25.4175 56.537 25.962 55.9992 26.6085L55.0141 27.7881L53.8874 26.8467C53.2703 26.3306 52.7325 25.8712 52.6928 25.8315C52.6306 25.7748 52.7891 25.5536 53.6213 24.5669L54.6234 23.3703L54.9688 23.6538C55.1613 23.8126 55.6878 24.2606 56.152 24.6463ZM43.0286 23.7049C43.1249 23.807 43.1249 23.824 43.0343 23.9601C42.8984 24.1699 42.8305 24.1359 42.8305 23.8467C42.8305 23.5688 42.8757 23.5347 43.0286 23.7049ZM14.6304 24.9242C15.1626 25.565 15.5872 26.1151 15.5702 26.1491C15.5419 26.1945 13.8038 27.669 13.3509 28.0319C13.2263 28.1283 13.2263 28.1283 12.2469 26.9601C11.709 26.3192 11.2674 25.7691 11.2674 25.7408C11.2674 25.6784 13.5094 23.7729 13.5943 23.7673C13.6226 23.7616 14.0925 24.2833 14.6304 24.9242ZM50.3603 24.8448C51 25.3778 51.5322 25.8259 51.5435 25.8372C51.5718 25.8656 49.6243 28.185 49.5733 28.185C49.545 28.185 47.4672 26.4724 47.2012 26.2285C47.1728 26.2058 49.1261 23.875 49.1657 23.875C49.1827 23.875 49.7205 24.3117 50.3603 24.8448ZM31.1451 24.4194C31.1281 24.5669 31.1111 24.8107 31.1111 24.9582C31.1111 25.1113 31.0941 25.2361 31.0715 25.2304C31.0432 25.2304 30.9186 25.1 30.7884 24.9355L30.5506 24.6406L30.8167 24.4024C30.9639 24.272 31.1054 24.1642 31.1337 24.1586C31.162 24.1586 31.1677 24.2777 31.1451 24.4194ZM20.0994 25.4119C20.6486 26.0697 21.0789 26.6255 21.0506 26.6482C21.0166 26.6652 20.4901 27.1019 19.8786 27.6179C19.2672 28.134 18.7407 28.5593 18.718 28.5707C18.6897 28.5763 18.2198 28.0546 17.6763 27.4024L16.6799 26.2115L17.8518 25.2191C18.4972 24.669 19.0407 24.2209 19.0577 24.2209C19.0804 24.2153 19.5446 24.754 20.0994 25.4119ZM44.9026 25.2701C45.5253 25.7862 46.0519 26.2342 46.0802 26.2569C46.1255 26.3022 44.2628 28.582 44.1779 28.582C44.093 28.582 43.6117 27.5385 43.3966 26.8864C43.1871 26.2625 43.0003 25.4743 43.0003 25.2531C43.0003 25.151 43.657 24.3287 43.7363 24.3287C43.7646 24.3287 44.2855 24.754 44.9026 25.2701ZM25.3816 25.6727C25.8459 26.2285 26.2931 26.7616 26.3724 26.858L26.5253 27.0395L25.3363 28.0376C24.6853 28.5877 24.1418 29.0357 24.1304 29.0357C24.1134 29.0357 23.6662 28.5083 23.1283 27.8675C22.3754 26.9714 22.1659 26.6879 22.2168 26.6368C22.2791 26.5744 24.5041 24.6803 24.5267 24.6746C24.5324 24.669 24.9174 25.1226 25.3816 25.6727ZM30.4544 25.6954C30.8733 26.1888 30.9356 26.2852 30.9073 26.4157C30.7714 26.9657 30.528 27.7313 30.3468 28.1623C30.16 28.6047 29.6561 29.5461 29.6108 29.5461C29.6051 29.5461 29.1465 29.0073 28.5917 28.3495C27.6123 27.1812 27.5896 27.1472 27.6915 27.0451C27.7934 26.9487 29.9392 25.1283 29.9618 25.1226C29.9675 25.1226 30.1883 25.3778 30.4544 25.6954ZM63.6366 25.8656C63.931 26.1151 64.1631 26.3476 64.1461 26.376C64.0782 26.478 62.9175 27.5045 62.3571 27.9525L61.7852 28.4119L61.4286 28.1113C61.2304 27.9525 61.0719 27.7994 61.0776 27.7767C61.0945 27.7087 63.0081 25.4119 63.0534 25.4119C63.0761 25.4062 63.3365 25.6104 63.6366 25.8656ZM58.8412 26.9034C59.8603 27.7597 59.9792 27.8788 59.9169 27.9639C59.8773 28.0206 59.4244 28.5593 58.9148 29.1718L57.9864 30.2777L57.5844 29.9431C57.3636 29.7616 56.8257 29.3079 56.3841 28.9393L55.5859 28.2644L56.5823 27.0678C57.1371 26.3986 57.607 25.8882 57.641 25.9109C57.675 25.9279 58.2128 26.376 58.8412 26.9034ZM11.6128 27.3627C12.1054 27.9582 12.547 28.4799 12.5866 28.531C12.6489 28.616 12.6262 28.6501 12.4281 28.8088L12.2016 28.9903L11.5902 28.4969C10.8258 27.8788 9.82942 26.9828 9.8464 26.9204C9.86339 26.8353 10.6447 26.2115 10.6786 26.2455C10.6956 26.2682 11.1202 26.7729 11.6128 27.3627ZM53.3382 27.3457C54.012 27.9185 54.4819 28.3552 54.4706 28.3949C54.4536 28.4346 54.0176 28.9733 53.4968 29.5971L52.5456 30.7257L51.368 29.7276C50.717 29.1831 50.1961 28.7068 50.2074 28.6784C50.2357 28.582 52.0814 26.376 52.1323 26.376C52.155 26.3703 52.6985 26.807 53.3382 27.3457ZM17.1215 27.9015C17.6536 28.5366 18.0839 29.0811 18.0783 29.1037C18.05 29.1775 15.757 31.083 15.7117 31.0659C15.6551 31.0433 13.7302 28.7351 13.7359 28.6954C13.7415 28.6444 16.0797 26.7105 16.1137 26.7276C16.1364 26.7332 16.5893 27.2606 17.1215 27.9015ZM49.0355 28.8429C48.9675 29.0243 46.9464 31.3552 46.8841 31.3211C46.1028 30.8618 45.1743 30.0565 44.7893 29.5007L44.6252 29.2625L44.8743 28.962C45.0101 28.7975 45.48 28.2361 45.9103 27.72L46.6973 26.7786L47.8805 27.7767C48.5712 28.3552 49.0525 28.7975 49.0355 28.8429ZM22.5565 28.3495C23.0944 28.9847 23.5246 29.5234 23.5133 29.5461C23.4907 29.6028 21.1864 31.531 21.1468 31.531C21.1015 31.5253 19.1936 29.2115 19.2049 29.1775C19.2219 29.1378 21.5658 27.1642 21.5771 27.1812C21.5827 27.1869 22.0243 27.7143 22.5565 28.3495ZM28.1048 28.9223C28.6653 29.5915 29.1296 30.1529 29.1296 30.1699C29.1296 30.2606 28.3426 31.0489 27.9803 31.3211C27.5443 31.6501 26.763 32.1151 26.6894 32.0867C26.5989 32.0527 24.606 29.6312 24.6456 29.5971C25.0816 29.1831 27.0121 27.6293 27.0405 27.6576C27.0631 27.686 27.5443 28.2531 28.1048 28.9223ZM42.253 28.8769C43.4872 31.4346 45.7178 33.2209 48.5486 33.9185L48.8034 33.9809L47.756 34.3665C44.8403 35.4383 43.742 35.9714 41.7548 37.2871C40.8433 37.8939 39.5354 38.8467 38.8221 39.4251C38.4767 39.7087 38.3975 39.754 38.3239 39.6916C38.1144 39.5158 38.1257 39.4421 38.4541 38.841C38.89 38.0357 39.7506 36.2493 40.1129 35.3873C40.5885 34.2644 40.9508 33.1699 41.2169 32.0697C41.4604 31.083 41.9246 28.6727 41.9246 28.4232C41.9246 28.3552 41.9359 28.2985 41.9473 28.2985C41.9642 28.2985 42.1001 28.5593 42.253 28.8769ZM61.1172 28.8656C61.1172 28.8882 60.9077 29.047 60.6529 29.2172C59.9169 29.7106 59.0111 30.2323 59.0904 30.1245C59.13 30.0678 59.481 29.6482 59.866 29.1888L60.5624 28.3552L60.8398 28.5877C60.9926 28.7124 61.1172 28.8372 61.1172 28.8656ZM32.1811 29.5744C32.8662 33.4478 33.3983 35.0981 35.0232 38.3419L35.4761 39.2493L35.2383 39.5329C35.0968 39.703 34.9836 39.7937 34.9439 39.7654C34.9043 39.7427 34.508 39.4478 34.0551 39.1075C31.4848 37.1794 29.6617 36.1812 26.6951 35.0867C26.0553 34.8485 25.4722 34.633 25.393 34.6047L25.2514 34.548L25.4213 34.5083C25.9138 34.4005 26.9046 34.0489 27.4141 33.8051C29.356 32.8693 30.828 31.3722 31.8018 29.3476C31.9264 29.0811 32.0396 28.8712 32.0452 28.8769C32.0566 28.8882 32.1188 29.2002 32.1811 29.5744ZM56.1407 29.7049C56.6842 30.1642 57.2164 30.6123 57.324 30.6973C57.4995 30.8504 57.5051 30.8561 57.4089 30.9639C57.239 31.151 55.2179 31.8882 54.3913 32.0697C54.1988 32.1094 54.2498 32.1434 53.2646 31.3268L53.1174 31.202L54.0969 30.0338C54.6347 29.393 55.0933 28.8656 55.1103 28.8656C55.1273 28.8656 55.5915 29.2455 56.1407 29.7049ZM13.7415 29.8977C13.8661 30.0508 13.951 30.1699 13.934 30.1699C13.9114 30.1699 13.6566 30.0054 13.3565 29.807L12.8187 29.444L12.9772 29.3192L13.1357 29.1945L13.3226 29.4157C13.4301 29.5347 13.617 29.7502 13.7415 29.8977ZM50.8755 30.289C51.5096 30.8221 52.0304 31.2758 52.0304 31.2985C52.0304 31.3211 51.8266 31.5877 51.5775 31.8882L51.1246 32.444L50.6434 32.41C49.6752 32.3419 48.6052 32.1037 47.8409 31.7805L47.6371 31.7011L48.6392 30.5102C49.1883 29.8523 49.6526 29.3192 49.6752 29.3192C49.6979 29.3192 50.2357 29.7559 50.8755 30.289ZM19.6692 30.9355L20.575 32.013L20.2523 32.3079C20.0768 32.4724 19.873 32.6198 19.8107 32.6425C19.5672 32.7049 17.7442 32.1264 16.7931 31.6841L16.4025 31.5026L17.4838 30.5896C18.4972 29.7389 18.5765 29.6822 18.6671 29.7673C18.718 29.8183 19.1709 30.34 19.6692 30.9355ZM24.9853 31.2361C25.4892 31.8485 25.9138 32.376 25.9195 32.4043C25.9421 32.5121 24.9117 32.8013 24.0625 32.9204C23.7511 32.9657 23.2416 33.0054 22.9302 32.9998H22.364L22.0017 32.5744C21.6903 32.2002 21.6563 32.1321 21.7243 32.064C21.8771 31.9053 24.0059 30.1189 24.0342 30.1189C24.0512 30.1189 24.4758 30.6236 24.9853 31.2361ZM53.191 32.2739C53.191 32.3192 52.2399 32.41 52.1946 32.3703C52.1833 32.3533 52.2739 32.2115 52.4041 32.0527L52.6419 31.7635L52.9136 31.996C53.0665 32.1264 53.191 32.2512 53.191 32.2739ZM21.2997 32.9261C21.2883 32.9374 21.1581 32.9317 21.0053 32.909L20.7335 32.875L20.8977 32.7389L21.0619 32.6085L21.1921 32.7559C21.2657 32.8353 21.311 32.9147 21.2997 32.9261Z" fill="#C9CDD1"/>
</svg>
