<svg version="1.0" xmlns="http://www.w3.org/2000/svg" width="366.000000pt" height="365.000000pt" viewBox="0 0 366.000000 365.000000" preserveAspectRatio="xMidYMid meet">
	<g transform="translate(0.000000,365.000000) scale(0.100000,-0.100000)" stroke="none">
		<path d="M1648 3640 c-743 -78 -1368 -598 -1572 -1308 -125 -436 -85 -897 114 -1307 97 -200 208 -353 373 -512 234 -226 494 -373 805 -454 897 -232 1818 239 2163 1108 42 106 85 277 105 419 20 145 15 409 -11 554 -74 414 -296 801 -618 1075 -313 266 -712 417 -1132 430 -77 2 -179 0 -227 -5z m517 -130 c532 -113 961 -443 1202 -923 334 -668 192 -1485 -350 -2003 -295 -283 -654 -442 -1065 -473 -862 -66 -1644 532 -1812 1384 -28 140 -37 373 -21 515 58 507 336 964 761 1247 177 119 410 214 616 252 162 30 154 30 369 26 156 -3 222 -8 300 -25z" />
		<path d="M1840 2503 c-8 -3 -25 -15 -37 -26 -23 -20 -23 -23 -23 -304 l0 -283 -275 0 c-308 0 -334 -4 -353 -59 -8 -22 -8 -40 0 -61 19 -57 38 -60 348 -60 l280 0 0 -284 0 -284 31 -26 c17 -14 39 -26 50 -26 28 0 75 26 83 45 3 9 6 142 6 295 l0 279 294 3 c270 3 296 5 314 22 48 42 31 124 -29 145 -20 7 -131 11 -305 11 l-274 0 0 283 c0 281 0 284 -22 305 -25 23 -65 34 -88 25z" />
	</g>
</svg>