<svg xmlns="http://www.w3.org/2000/svg" width="1366" height="1016" viewBox="0 0 1366 1016" version="1.1"><path d="M 30.800 1.076 C 19.476 2.744, 9.527 10.157, 4.282 20.835 L 1.500 26.500 1.500 507.500 L 1.500 988.500 4.327 994.617 C 7.699 1001.913, 13.486 1007.837, 21 1011.684 L 26.500 1014.500 683.500 1014.500 L 1340.500 1014.500 1346.142 1011.730 C 1353.013 1008.355, 1359.282 1001.765, 1362.840 994.175 L 1365.500 988.500 1365.500 508.500 C 1365.500 44.446, 1365.439 28.324, 1363.654 23.204 C 1361.048 15.725, 1352.856 7.130, 1344.782 3.401 L 1338.500 0.500 687.500 0.369 C 329.450 0.296, 33.935 0.615, 30.800 1.076 M 71 193 L 71 316 368.500 316 L 666 316 666 193 L 666 70 368.500 70 L 71 70 71 193 M 736 192.500 L 736 315 858.500 315 L 981 315 981 192.500 L 981 70 858.500 70 L 736 70 736 192.500 M 1051 192.500 L 1051 315 1173.500 315 L 1296 315 1296 192.500 L 1296 70 1173.500 70 L 1051 70 1051 192.500 M 71 507.500 L 71 630 368.500 630 L 666 630 666 507.500 L 666 385 368.500 385 L 71 385 71 507.500 M 736 508 L 736 631 858.500 631 L 981 631 981 508 L 981 385 858.500 385 L 736 385 736 508 M 1051 508 L 1051 631 1173.500 631 L 1296 631 1296 508 L 1296 385 1173.500 385 L 1051 385 1051 508 M 71 822.500 L 71 945 368.500 945 L 666 945 666 822.500 L 666 700 368.500 700 L 71 700 71 822.500 M 736 823 L 736 946 858.500 946 L 981 946 981 823 L 981 700 858.500 700 L 736 700 736 823 M 1051 823 L 1051 946 1173.500 946 L 1296 946 1296 823 L 1296 700 1173.500 700 L 1051 700 1051 823" stroke="none" fill="#a7a7a7" fill-rule="evenodd"/><path d="M 219.831 70.750 C 301.963 70.891, 436.063 70.891, 517.831 70.750 C 599.599 70.609, 532.400 70.493, 368.500 70.493 C 204.600 70.493, 137.699 70.609, 219.831 70.750 M 736 192.500 L 736 315 858.500 315 L 981 315 981 192.500 L 981 70 858.500 70 L 736 70 736 192.500 M 1051 192.500 L 1051 315 1173.500 315 L 1296 315 1296 192.500 L 1296 70 1173.500 70 L 1051 70 1051 192.500 M 219.831 315.750 C 301.963 315.891, 436.063 315.891, 517.831 315.750 C 599.599 315.609, 532.400 315.493, 368.500 315.493 C 204.600 315.493, 137.699 315.609, 219.831 315.750 M 71 507.500 L 71 630 368.500 630 L 666 630 666 507.500 L 666 385 368.500 385 L 71 385 71 507.500 M 797.327 385.750 C 831.333 385.896, 886.683 385.896, 920.327 385.750 C 953.972 385.604, 926.150 385.484, 858.500 385.484 C 790.850 385.484, 763.322 385.604, 797.327 385.750 M 1112.327 385.750 C 1146.333 385.896, 1201.683 385.896, 1235.327 385.750 C 1268.972 385.604, 1241.150 385.484, 1173.500 385.484 C 1105.850 385.484, 1078.322 385.604, 1112.327 385.750 M 797.327 630.750 C 831.333 630.896, 886.683 630.896, 920.327 630.750 C 953.972 630.604, 926.150 630.484, 858.500 630.484 C 790.850 630.484, 763.322 630.604, 797.327 630.750 M 1112.327 630.750 C 1146.333 630.896, 1201.683 630.896, 1235.327 630.750 C 1268.972 630.604, 1241.150 630.484, 1173.500 630.484 C 1105.850 630.484, 1078.322 630.604, 1112.327 630.750 M 71 822.500 L 71 945 368.500 945 L 666 945 666 822.500 L 666 700 368.500 700 L 71 700 71 822.500 M 797.327 700.750 C 831.333 700.896, 886.683 700.896, 920.327 700.750 C 953.972 700.604, 926.150 700.484, 858.500 700.484 C 790.850 700.484, 763.322 700.604, 797.327 700.750 M 1112.327 700.750 C 1146.333 700.896, 1201.683 700.896, 1235.327 700.750 C 1268.972 700.604, 1241.150 700.484, 1173.500 700.484 C 1105.850 700.484, 1078.322 700.604, 1112.327 700.750 M 797.327 945.750 C 831.333 945.896, 886.683 945.896, 920.327 945.750 C 953.972 945.604, 926.150 945.484, 858.500 945.484 C 790.850 945.484, 763.322 945.604, 797.327 945.750 M 1112.327 945.750 C 1146.333 945.896, 1201.683 945.896, 1235.327 945.750 C 1268.972 945.604, 1241.150 945.484, 1173.500 945.484 C 1105.850 945.484, 1078.322 945.604, 1112.327 945.750 M 357.832 1015.750 C 537.315 1015.889, 830.715 1015.889, 1009.832 1015.750 C 1188.949 1015.611, 1042.100 1015.497, 683.500 1015.497 C 324.900 1015.497, 178.349 1015.611, 357.832 1015.750" stroke="none" fill="#e8e8e8" fill-rule="evenodd"/><path d="M 0 508 L 0 1016 16.250 1015.934 C 32.410 1015.869, 32.470 1015.860, 27.033 1014.399 C 16.820 1011.654, 9.470 1005.607, 4.195 995.607 L 1.500 990.500 1.500 508 L 1.500 25.500 3.939 20.543 C 8.478 11.320, 16.422 4.534, 26.286 1.451 C 30.191 0.230, 29.383 0.129, 15.250 0.067 L 0 0 0 508 M 1341.130 1.565 C 1351.274 4.688, 1361.473 14.500, 1364.450 24 C 1365.814 28.349, 1365.863 28.023, 1365.930 14.250 L 1366 0 1351.250 0.070 C 1336.933 0.137, 1336.636 0.181, 1341.130 1.565 M 71 193 L 71 315 368.500 315 L 666 315 666 193 L 666 71 368.500 71 L 71 71 71 193 M 736 508 L 736 630 858.500 630 L 981 630 981 508 L 981 386 858.500 386 L 736 386 736 508 M 1051 508 L 1051 630 1173.500 630 L 1296 630 1296 508 L 1296 386 1173.500 386 L 1051 386 1051 508 M 736 823 L 736 945 858.500 945 L 981 945 981 823 L 981 701 858.500 701 L 736 701 736 823 M 1051 823 L 1051 945 1173.500 945 L 1296 945 1296 823 L 1296 701 1173.500 701 L 1051 701 1051 823 M 1365 989.540 C 1365 991.704, 1361.268 998.822, 1357.864 1003.148 C 1354.075 1007.964, 1346.729 1012.582, 1339.967 1014.399 C 1334.511 1015.866, 1334.530 1015.869, 1350.250 1015.934 L 1366 1016 1366 1002 C 1366 994.300, 1365.775 988, 1365.500 988 C 1365.225 988, 1365 988.693, 1365 989.540" stroke="none" fill="#ffffff" fill-rule="evenodd"/></svg>