<svg width="24" height="19" fill="none" viewBox="0 0 24 19" xmlns="http://www.w3.org/2000/svg">
	<path fill-rule="evenodd" clip-rule="evenodd" d="M1.99036 0C0.885787 0 -0.00964355 0.895429 -0.00964355 2V16.2499C-0.00964355 17.3545 0.885786 18.2499 1.99036 18.2499H21.9904C23.0949 18.2499 23.9904 17.3545 23.9904 16.2499V2C23.9904 0.895431 23.0949 0 21.9904 0H1.99036ZM1.91046 2.84152C1.91046 2.31104 2.34027 1.881 2.87046 1.881H10.4309C10.9611 1.881 11.3909 2.31104 11.3909 2.84152V4.55339C11.3909 5.08387 10.9611 5.51391 10.4309 5.51391H2.87046C2.34027 5.51391 1.91046 5.08387 1.91046 4.55339V2.84152ZM1.91046 8.26697C1.91046 7.73649 2.34027 7.30645 2.87046 7.30645H10.4309C10.9611 7.30645 11.3909 7.73649 11.3909 8.26697V9.97884C11.3909 10.5093 10.9611 10.9394 10.4309 10.9394H2.87046C2.34027 10.9394 1.91046 10.5093 1.91046 9.97884V8.26697ZM2.87046 12.7319C2.34027 12.7319 1.91046 13.1619 1.91046 13.6924V15.4043C1.91046 15.9348 2.34027 16.3648 2.87046 16.3648H10.4309C10.9611 16.3648 11.3909 15.9348 11.3909 15.4043V13.6924C11.3909 13.1619 10.9611 12.7319 10.4309 12.7319H2.87046ZM13.1042 2.84152C13.1042 2.31104 13.534 1.881 14.0642 1.881H15.773C16.3032 1.881 16.733 2.31104 16.733 2.84152V4.55339C16.733 5.08387 16.3032 5.51391 15.773 5.51391H14.0642C13.534 5.51391 13.1042 5.08387 13.1042 4.55339V2.84152ZM14.0642 7.30645C13.534 7.30645 13.1042 7.73649 13.1042 8.26697V9.97884C13.1042 10.5093 13.534 10.9394 14.0642 10.9394H15.773C16.3032 10.9394 16.733 10.5093 16.733 9.97884V8.26697C16.733 7.73649 16.3032 7.30645 15.773 7.30645H14.0642ZM13.1042 13.6924C13.1042 13.1619 13.534 12.7319 14.0642 12.7319H15.773C16.3032 12.7319 16.733 13.1619 16.733 13.6924V15.4043C16.733 15.9348 16.3032 16.3648 15.773 16.3648H14.0642C13.534 16.3648 13.1042 15.9348 13.1042 15.4043V13.6924ZM19.4061 1.881C18.8759 1.881 18.4461 2.31104 18.4461 2.84152V4.55339C18.4461 5.08387 18.8759 5.51391 19.4061 5.51391H21.1149C21.6451 5.51391 22.0749 5.08387 22.0749 4.55339V2.84152C22.0749 2.31104 21.6451 1.881 21.1149 1.881H19.4061ZM18.4461 8.26697C18.4461 7.73649 18.8759 7.30645 19.4061 7.30645H21.1149C21.6451 7.30645 22.0749 7.73649 22.0749 8.26697V9.97884C22.0749 10.5093 21.6451 10.9394 21.1149 10.9394H19.4061C18.8759 10.9394 18.4461 10.5093 18.4461 9.97884V8.26697ZM19.4061 12.7319C18.8759 12.7319 18.4461 13.1619 18.4461 13.6924V15.4043C18.4461 15.9348 18.8759 16.3648 19.4061 16.3648H21.1149C21.6451 16.3648 22.0749 15.9348 22.0749 15.4043V13.6924C22.0749 13.1619 21.6451 12.7319 21.1149 12.7319H19.4061Z" />
</svg>