<svg version="1.0" xmlns="http://www.w3.org/2000/svg" width="147.000000pt" height="132.000000pt" viewBox="0 0 147.000000 132.000000" preserveAspectRatio="xMidYMid meet">
	<g transform="translate(0.000000,132.000000) scale(0.100000,-0.100000)" stroke="none">
		<path d="M39 1281 l-29 -29 0 -215 c0 -201 1 -216 21 -240 31 -40 78 -49 239 -45 197 4 220 21 220 159 l0 70 93 -3 92 -3 3 -317 2 -318 -95 0 -95 0 0 76 c0 73 -1 77 -34 110 l-34 34 -167 0 c-253 0 -244 9 -245 -277 l0 -213 29 -32 29 -33 165 -3 c136 -3 171 0 196 13 44 22 61 62 61 145 l0 70 103 0 c115 0 140 9 174 59 21 31 23 45 23 172 l0 139 95 0 95 0 0 -60 c0 -72 18 -120 53 -143 22 -14 53 -17 194 -17 245 0 243 -2 243 275 0 283 -5 288 -260 283 l-160 -3 -32 -33 c-31 -30 -33 -37 -36 -112 l-4 -80 -94 0 -94 0 0 141 c0 125 -2 146 -20 174 -31 50 -73 65 -184 65 l-96 0 0 76 c0 73 -1 77 -34 110 l-34 34 -177 0 -177 0 -29 -29z m341 -251 l0 -171 -132 3 -133 3 -3 168 -2 167 135 0 135 0 0 -170z m980 -370 l0 -170 -135 0 -135 0 0 170 0 170 135 0 135 0 0 -170z m-980 -380 l0 -170 -135 0 -135 0 0 170 0 170 135 0 135 0 0 -170z"/>
	</g>
</svg>