<svg width="25" height="26" viewBox="0 0 25 26" xmlns="http://www.w3.org/2000/svg">
<path d="M4.60812 0.967232C4.49756 1.01588 4.38921 1.12202 4.32509 1.24363L4.27644 1.33429V3.44601C4.27644 5.78549 4.26759 5.62186 4.42017 5.79875C4.55948 5.95575 4.63024 5.97786 5.00614 5.97786C5.38205 5.97786 5.45281 5.95575 5.59212 5.79875C5.74469 5.62186 5.73585 5.78106 5.73585 3.46813C5.73585 1.14634 5.74469 1.28123 5.58327 1.10654C5.43954 0.947331 5.36657 0.925218 5.00614 0.925218C4.75406 0.925218 4.68109 0.934063 4.60812 0.967232Z" />
<path d="M14.5007 0.983531C14.3681 1.05208 14.2531 1.18696 14.2155 1.31743C14.2022 1.3705 14.1934 2.11125 14.1934 3.46895V5.53865L14.2619 5.67354C14.3371 5.8239 14.4499 5.92119 14.6024 5.96321C14.7351 6.0008 15.1619 5.99416 15.2791 5.95436C15.4184 5.90571 15.5289 5.80842 15.5953 5.67354L15.6528 5.55855V1.35502L15.5997 1.24446C15.5732 1.18254 15.5135 1.10073 15.467 1.06092C15.3299 0.941518 15.2614 0.923828 14.9253 0.923828C14.6378 0.923828 14.6157 0.926039 14.5007 0.983531Z" />
<path d="M1.95441 2.85031C1.70897 2.88127 1.48563 2.95203 1.24682 3.06923C0.623255 3.37659 0.176588 3.95371 0.0394921 4.63256C-0.00252113 4.82936 -0.00252113 5.09471 0.00190131 13.4996L0.00853498 22.1631L0.0593931 22.34C0.271671 23.0742 0.778041 23.6292 1.46131 23.879C1.86596 24.0294 1.479 24.0184 6.57366 24.025C10.6777 24.0316 11.1907 24.0294 11.1796 23.9985C11.1708 23.9808 11.1067 23.879 11.0359 23.7729C10.8435 23.481 10.6976 23.2312 10.5539 22.9415L10.4234 22.6828H6.35474C3.78752 22.6828 2.2286 22.6739 2.13131 22.6607C1.8151 22.6142 1.52101 22.3953 1.40824 22.1145L1.35738 21.9862V4.87137L1.40824 4.74312C1.51438 4.47999 1.80184 4.25223 2.09593 4.19695C2.16005 4.18589 2.55144 4.17484 2.96273 4.17484H3.71233V2.82599L2.91187 2.8282C2.46963 2.83041 2.04065 2.84147 1.95441 2.85031Z" />
<path d="M6.2994 4.17523H13.6185V2.82639H6.2994V4.17523Z" />
<path d="M16.2279 4.17241L17.0417 4.17905C17.9416 4.18789 17.966 4.19231 18.1871 4.33825C18.333 4.43555 18.4635 4.59918 18.532 4.76502L18.5829 4.89327L18.5939 11.2041L18.6669 11.2152C18.7045 11.2218 18.8527 11.2417 18.992 11.2616C19.2065 11.2926 19.662 11.3832 19.8831 11.4385L19.9428 11.454L19.9362 8.09733C19.9295 4.7407 19.9295 4.73849 19.8831 4.56159C19.7637 4.11492 19.5536 3.76112 19.2264 3.45376C18.8571 3.10439 18.4502 2.91201 17.9438 2.84789C17.8466 2.83683 17.4198 2.82578 16.9974 2.82578H16.2279V4.17241Z" />
<path d="M4.25852 8.8213C4.01529 8.8611 3.761 9.05569 3.6637 9.27902C3.60621 9.40727 3.58852 9.64166 3.6239 9.78981C3.6637 9.95566 3.79859 10.1525 3.9379 10.2431C4.34697 10.5151 4.88209 10.3714 5.09658 9.93576C5.15407 9.81856 5.1607 9.77876 5.1607 9.60407C5.1607 9.4316 5.15186 9.38737 5.09658 9.26576C4.95064 8.94955 4.60347 8.76381 4.25852 8.8213Z" />
<path d="M6.46511 8.99141C6.3236 9.05996 6.21967 9.16168 6.14006 9.31204C6.09584 9.39164 6.08921 9.43808 6.08921 9.64815C6.08921 9.86927 6.09363 9.90244 6.14891 10.0042C6.22851 10.1545 6.32802 10.2518 6.47617 10.3204L6.59779 10.3778H16.3935L16.493 10.3292C16.6434 10.254 16.7407 10.1634 16.8136 10.0329C16.8689 9.92897 16.88 9.88475 16.8866 9.699C16.8932 9.5398 16.8866 9.45798 16.8601 9.37617C16.8136 9.24128 16.6788 9.08207 16.5417 9.00026L16.4377 8.94055L6.59779 8.9295L6.46511 8.99141Z" />
<path d="M4.10825 12.6951C3.88934 12.7879 3.7832 12.8852 3.67264 13.0953C3.62178 13.1948 3.61294 13.2324 3.61294 13.4181C3.61294 13.6105 3.61957 13.6415 3.68591 13.7763C3.76993 13.9466 3.88934 14.0638 4.06402 14.1456C4.16795 14.1943 4.21881 14.2031 4.38686 14.2031C4.55492 14.2031 4.60577 14.1943 4.7097 14.1456C4.88439 14.0638 5.00379 13.9466 5.08782 13.7763C5.15416 13.6437 5.16079 13.6105 5.16079 13.4292C5.16079 13.2611 5.15195 13.2125 5.1033 13.1063C5.0237 12.9361 4.91092 12.8189 4.74729 12.7326C4.62568 12.6685 4.58366 12.6575 4.42003 12.6508C4.26082 12.6442 4.21218 12.6508 4.10825 12.6951Z" />
<path d="M6.53607 12.6757C6.22208 12.7885 6.06287 13.0539 6.08277 13.4276C6.09825 13.7172 6.23534 13.9361 6.47416 14.0467L6.57587 14.0931L11.5533 14.1042L11.7546 13.8787C12.1017 13.4895 12.4975 13.1246 12.9154 12.8106L13.1344 12.6448H9.87723C7.19501 12.647 6.60462 12.6514 6.53607 12.6757Z" />
<path d="M17.0901 12.6771C15.8054 12.8209 14.6489 13.2985 13.6406 14.1012C11.1927 16.0537 10.4476 19.4988 11.8716 22.296C12.1989 22.9416 12.5637 23.4436 13.0878 23.9676C13.4858 24.3657 13.6914 24.5403 14.0828 24.8035C14.912 25.3607 15.8231 25.7145 16.8358 25.8715C17.2603 25.9378 18.2841 25.9423 18.6932 25.8826C19.9072 25.699 20.9221 25.2745 21.8663 24.5492C22.9653 23.7067 23.8034 22.4751 24.1881 21.1395C24.6414 19.5629 24.4999 17.8868 23.7923 16.4141C23.4363 15.6755 23.0272 15.1095 22.439 14.5323C21.3511 13.4732 20.0001 12.8363 18.4898 12.6771C18.1227 12.6373 17.4417 12.6373 17.0901 12.6771ZM18.5605 14.1564C19.1111 14.2449 19.5578 14.3864 20.0642 14.6341C21.6673 15.419 22.7132 16.8829 22.952 18.6806C22.9918 18.9835 22.9874 19.6513 22.941 19.9742C22.8592 20.5469 22.7088 21.04 22.4523 21.5662C22.2577 21.9687 22.0101 22.3468 21.727 22.6719C21.3865 23.0655 21.1057 23.3131 20.6524 23.6138C20.02 24.034 19.3256 24.3015 18.5473 24.4231C18.2355 24.4718 17.424 24.4784 17.1233 24.4342C16.5505 24.3524 16.0442 24.1954 15.5312 23.9455C14.6467 23.5121 13.9767 22.9195 13.4438 22.0969C13.0568 21.5021 12.818 20.8808 12.6765 20.1068C12.6168 19.7884 12.6168 18.7912 12.6743 18.4705C12.8777 17.3561 13.3332 16.4561 14.0806 15.6866C14.3681 15.3947 14.6821 15.1316 14.9784 14.9392C15.3919 14.6694 16.0442 14.3842 16.5373 14.2582C16.7053 14.2139 17.1697 14.1365 17.3554 14.1166C17.5633 14.0967 18.3461 14.1233 18.5605 14.1564Z" />
<path d="M17.0924 15.8632C16.9509 15.9339 16.8359 16.0799 16.8028 16.2369C16.7851 16.3143 16.7806 16.8892 16.7851 18.1164L16.7917 19.8854L16.8536 19.996C16.9111 20.1021 17.1344 20.3232 17.2362 20.3785C17.2627 20.3918 18.0145 20.6682 18.9056 20.9932C20.427 21.546 20.5375 21.5836 20.6835 21.5858C20.8758 21.588 21.024 21.5217 21.1279 21.3824C21.2208 21.263 21.3225 20.9578 21.3203 20.8075C21.3203 20.6527 21.2252 20.4669 21.1036 20.3807C21.0461 20.3387 20.5132 20.1353 19.5801 19.7969C18.7929 19.5117 18.1428 19.2773 18.1383 19.2773C18.1339 19.2773 18.1295 18.5918 18.1295 17.7538C18.1295 16.0644 18.1361 16.1529 17.9791 15.9782C17.8509 15.8366 17.7646 15.8057 17.4639 15.8057C17.2317 15.8057 17.1986 15.8101 17.0924 15.8632Z" />
<path d="M4.13921 16.3979C3.91808 16.4775 3.76109 16.6213 3.66158 16.838C3.62178 16.9242 3.61294 16.9839 3.61294 17.1542C3.61294 17.3465 3.61957 17.3753 3.68369 17.4969C3.7633 17.6539 3.91587 17.8021 4.06181 17.8684C4.20997 17.9369 4.56376 17.9392 4.70749 17.8706C4.8667 17.7954 5.00601 17.6561 5.08782 17.4903C5.15416 17.3576 5.16079 17.3244 5.16079 17.1431C5.16079 16.9729 5.15195 16.9264 5.10109 16.8181C5.02812 16.6633 4.87997 16.5129 4.71855 16.4355C4.55713 16.3559 4.30284 16.3382 4.13921 16.3979Z" />
<path d="M6.55353 16.3902C6.3501 16.4543 6.17099 16.6356 6.10908 16.839C6.09139 16.8965 6.07812 17.0137 6.07812 17.1022C6.07812 17.394 6.19974 17.613 6.43413 17.7412L6.55353 17.8075L8.18321 17.8142L9.81288 17.8186L9.82393 17.77C9.87479 17.5068 10.0141 16.9783 10.1025 16.713C10.1645 16.5317 10.2131 16.3791 10.2131 16.3725C10.2131 16.3658 9.41043 16.3592 8.42865 16.3614C7.06212 16.3614 6.62208 16.368 6.55353 16.3902Z" />
</svg>
