<svg width="23" height="23" viewBox="0 0 23 23" fill="none" xmlns="http://www.w3.org/2000/svg">
<path d="M13.4336 23H9.55964C9.30909 23 9.08744 22.9245 8.89471 22.7734C8.70197 22.6223 8.58633 22.4241 8.54779 22.1786L8.08522 19.3744C7.75757 19.2611 7.40101 19.0959 7.01554 18.8787C6.63007 18.6615 6.29279 18.4397 6.00369 18.2131L3.37286 19.4027C3.14158 19.516 2.90066 19.5349 2.6501 19.4594C2.39955 19.3838 2.21645 19.2328 2.10081 19.0062L0.134914 15.5788C-1.20623e-07 15.3711 -0.0337285 15.1492 0.0337286 14.9132C0.101186 14.6771 0.231282 14.4836 0.424016 14.3325L2.88138 12.5764C2.84284 12.4253 2.81875 12.2459 2.80911 12.0382C2.79947 11.8305 2.79465 11.6511 2.79465 11.5C2.79465 11.3489 2.79947 11.1695 2.80911 10.9618C2.81875 10.7541 2.84284 10.5747 2.88138 10.4236L0.424016 8.66749C0.231282 8.51642 0.101186 8.32287 0.0337286 8.08682C-0.0337285 7.85078 -1.20623e-07 7.6289 0.134914 7.42118L2.10081 3.99384C2.23572 3.76724 2.42364 3.61617 2.66456 3.54064C2.90548 3.46511 3.14158 3.48399 3.37286 3.59729L6.0326 4.78695C6.30243 4.56035 6.63007 4.34319 7.01554 4.13547C7.40101 3.92775 7.75757 3.76724 8.08522 3.65394L8.54779 0.793103C8.58633 0.566502 8.70197 0.377668 8.89471 0.226601C9.08744 0.0755336 9.30909 0 9.55964 0H13.4336C13.6842 0 13.9058 0.0755336 14.0985 0.226601C14.2913 0.377668 14.4069 0.566502 14.4455 0.793103L14.908 3.62562C15.2357 3.7578 15.5971 3.92303 15.9922 4.12131C16.3873 4.31958 16.7197 4.54146 16.9896 4.78695L19.6204 3.59729C19.8517 3.48399 20.0926 3.46511 20.3432 3.54064C20.5937 3.61617 20.7768 3.76724 20.8924 3.99384L22.8583 7.39286C22.9933 7.60058 23.0318 7.82718 22.974 8.07266C22.9162 8.31815 22.7812 8.51642 22.5692 8.66749L20.1119 10.367C20.1504 10.5369 20.1745 10.7258 20.1841 10.9335C20.1938 11.1412 20.1986 11.33 20.1986 11.5C20.1986 11.67 20.1938 11.8541 20.1841 12.0523C20.1745 12.2506 20.1504 12.4347 20.1119 12.6047L22.5692 14.3325C22.762 14.4836 22.8921 14.6771 22.9595 14.9132C23.027 15.1492 22.9933 15.3711 22.8583 15.5788L20.8924 19.0062C20.7575 19.2328 20.5696 19.3838 20.3287 19.4594C20.0878 19.5349 19.8517 19.516 19.6204 19.4027L16.9607 18.2131C16.6908 18.4397 16.368 18.6663 15.9922 18.8929C15.6163 19.1195 15.255 19.28 14.908 19.3744L14.4455 22.1786C14.4069 22.4241 14.2913 22.6223 14.0985 22.7734C13.9058 22.9245 13.6842 23 13.4336 23ZM11.4966 15.1823C12.5374 15.1823 13.424 14.8235 14.1564 14.1059C14.8888 13.3883 15.255 12.5197 15.255 11.5C15.255 10.4803 14.8888 9.61166 14.1564 8.89409C13.424 8.17652 12.5374 7.81773 11.4966 7.81773C10.4559 7.81773 9.56928 8.17652 8.83689 8.89409C8.1045 9.61166 7.7383 10.4803 7.7383 11.5C7.7383 12.5197 8.1045 13.3883 8.83689 14.1059C9.56928 14.8235 10.4559 15.1823 11.4966 15.1823ZM11.4966 13.4828C10.9184 13.4828 10.4366 13.2892 10.0511 12.9021C9.66565 12.515 9.47291 12.0476 9.47291 11.5C9.47291 10.9524 9.66565 10.485 10.0511 10.0979C10.4366 9.7108 10.9184 9.51724 11.4966 9.51724C12.0556 9.51724 12.5326 9.7108 12.9277 10.0979C13.3228 10.485 13.5203 10.9524 13.5203 11.5C13.5203 12.0476 13.3228 12.515 12.9277 12.9021C12.5326 13.2892 12.0556 13.4828 11.4966 13.4828ZM10.2824 21.0739H12.7109L13.1156 17.9015C13.7516 17.7504 14.3587 17.5144 14.9369 17.1933C15.5151 16.8723 16.0355 16.4758 16.4981 16.0037L19.5626 17.3067L20.6612 15.3522L17.9436 13.4261C18.0207 13.1051 18.0882 12.7841 18.146 12.4631C18.2038 12.142 18.2327 11.821 18.2327 11.5C18.2327 11.179 18.2086 10.858 18.1604 10.5369C18.1122 10.2159 18.04 9.89491 17.9436 9.57389L20.6612 7.64778L19.5626 5.69335L16.4981 6.99631C16.0548 6.48645 15.5489 6.06158 14.9803 5.72168C14.4117 5.38177 13.7902 5.17406 13.1156 5.09852L12.7109 1.92611H10.2824L9.87766 5.09852C9.22236 5.21182 8.60561 5.4337 8.0274 5.76416C7.4492 6.09462 6.92881 6.50534 6.46625 6.99631L3.43068 5.69335L2.33209 7.64778L5.02074 9.57389C4.94365 9.89491 4.88101 10.2159 4.83282 10.5369C4.78464 10.858 4.76055 11.179 4.76055 11.5C4.76055 11.821 4.78464 12.142 4.83282 12.4631C4.88101 12.7841 4.94365 13.1051 5.02074 13.4261L2.33209 15.3522L3.43068 17.3067L6.46625 16.0037C6.94809 16.4758 7.47811 16.8723 8.05631 17.1933C8.63452 17.5144 9.24163 17.7504 9.87766 17.9015L10.2824 21.0739Z" fill="#4694D9"/>
</svg>
