<svg xmlns="http://www.w3.org/2000/svg" width="279" height="218" viewBox="0 0 279 218" version="1.1"><path d="M 1.872 1.750 C 0.603 3.369, 0.650 3.390, 2.500 2.033 C 3.600 1.226, 4.688 0.439, 4.917 0.283 C 5.146 0.127, 4.863 -0, 4.289 -0 C 3.715 -0, 2.627 0.788, 1.872 1.750 M 0.473 73.500 C 0.474 112, 0.598 127.605, 0.750 108.177 C 0.902 88.749, 0.901 57.249, 0.749 38.177 C 0.598 19.105, 0.473 35, 0.473 73.500 M 32.250 10.749 C 44.213 10.908, 63.788 10.908, 75.750 10.749 C 87.713 10.589, 77.925 10.459, 54 10.459 C 30.075 10.459, 20.288 10.589, 32.250 10.749 M 107 14.948 L 107 19.895 101.750 20.263 C 98.862 20.465, 119.450 20.630, 147.500 20.630 C 175.550 20.630, 196.137 20.465, 193.250 20.263 L 188 19.895 188 14.948 L 188 10 170.500 10 L 153 10 153 15 L 153 20 147.500 20 L 142 20 142 15 L 142 10 124.500 10 L 107 10 107 14.948 M 82.250 30.750 C 108.512 30.898, 151.487 30.898, 177.750 30.750 C 204.012 30.601, 182.525 30.480, 130 30.480 C 77.475 30.480, 55.987 30.601, 82.250 30.750 M 228.222 49.667 C 228.060 61.492, 227.664 65.969, 226.750 66.338 C 225.771 66.733, 225.778 66.859, 226.781 66.921 C 228.865 67.049, 229.069 65.183, 228.749 48.958 L 228.444 33.500 228.222 49.667 M 137 58.500 L 137 76 155 76 L 173 76 173 58.500 L 173 41 155 41 L 137 41 137 58.500 M 183 57.674 L 183 74.349 185.360 72.131 C 189.774 67.984, 197.105 66, 208.011 66 L 218 66 218 53.500 L 218 41 200.500 41 L 183 41 183 57.674 M 11 73.500 L 11 91 16 91 L 21 91 21 73.500 L 21 56 16 56 L 11 56 11 73.500 M 41 104 L 41 122 84 122 L 127 122 127 104 L 127 86 84 86 L 41 86 41 104 M 137.211 96.750 L 137.422 107.500 137.746 97.281 L 138.069 87.061 150.285 86.747 L 162.500 86.432 149.750 86.216 L 137 86 137.211 96.750 M 167.762 86.707 C 169.006 86.946, 170.806 86.937, 171.762 86.687 C 172.718 86.437, 171.700 86.241, 169.500 86.252 C 167.300 86.263, 166.518 86.468, 167.762 86.707 M 175.638 87.500 C 175.322 88.325, 175.499 89, 176.031 89 C 176.564 89, 177 88.325, 177 87.500 C 177 86.675, 176.823 86, 176.607 86 C 176.391 86, 175.955 86.675, 175.638 87.500 M 230.079 93.583 C 230.127 94.748, 230.364 94.985, 230.683 94.188 C 230.972 93.466, 230.936 92.603, 230.604 92.271 C 230.272 91.939, 230.036 92.529, 230.079 93.583 M 195.079 95.583 C 195.127 96.748, 195.364 96.985, 195.683 96.188 C 195.972 95.466, 195.936 94.603, 195.604 94.271 C 195.272 93.939, 195.036 94.529, 195.079 95.583 M 209.250 97.728 C 211.313 97.944, 214.688 97.944, 216.750 97.728 C 218.813 97.513, 217.125 97.336, 213 97.336 C 208.875 97.336, 207.188 97.513, 209.250 97.728 M 231.079 99.583 C 231.127 100.748, 231.364 100.985, 231.683 100.188 C 231.972 99.466, 231.936 98.603, 231.604 98.271 C 231.272 97.939, 231.036 98.529, 231.079 99.583 M 220.158 101 C 220.158 102.375, 220.385 102.938, 220.662 102.250 C 220.940 101.563, 220.940 100.438, 220.662 99.750 C 220.385 99.063, 220.158 99.625, 220.158 101 M 194.079 101.583 C 194.127 102.748, 194.364 102.985, 194.683 102.188 C 194.972 101.466, 194.936 100.603, 194.604 100.271 C 194.272 99.939, 194.036 100.529, 194.079 101.583 M 11 119.500 L 11 137 16 137 L 21 137 21 119.500 L 21 102 16 102 L 11 102 11 119.500 M 205.158 104 C 205.158 105.375, 205.385 105.938, 205.662 105.250 C 205.940 104.563, 205.940 103.438, 205.662 102.750 C 205.385 102.063, 205.158 102.625, 205.158 104 M 232 105.441 C 232 106.234, 232.408 107.134, 232.907 107.442 C 233.405 107.751, 233.578 107.102, 233.290 106.001 C 232.679 103.666, 232 103.371, 232 105.441 M 163.269 106.693 C 164.242 106.947, 165.592 106.930, 166.269 106.656 C 166.946 106.382, 166.150 106.175, 164.500 106.195 C 162.850 106.215, 162.296 106.439, 163.269 106.693 M 221.158 108 C 221.158 109.375, 221.385 109.938, 221.662 109.250 C 221.940 108.563, 221.940 107.438, 221.662 106.750 C 221.385 106.063, 221.158 106.625, 221.158 108 M 260.750 106.662 C 261.438 106.940, 262.563 106.940, 263.250 106.662 C 263.938 106.385, 263.375 106.158, 262 106.158 C 260.625 106.158, 260.063 106.385, 260.750 106.662 M 204.158 112 C 204.158 113.375, 204.385 113.938, 204.662 113.250 C 204.940 112.563, 204.940 111.438, 204.662 110.750 C 204.385 110.063, 204.158 110.625, 204.158 112 M 222 115 C 222 115.550, 222.477 116, 223.059 116 C 223.641 116, 223.840 115.550, 223.500 115 C 223.160 114.450, 222.684 114, 222.441 114 C 222.198 114, 222 114.450, 222 115 M 257.813 119.683 C 258.534 119.972, 259.397 119.936, 259.729 119.604 C 260.061 119.272, 259.471 119.036, 258.417 119.079 C 257.252 119.127, 257.015 119.364, 257.813 119.683 M 185.924 124.750 L 183.500 127.500 186.250 125.076 C 188.820 122.810, 189.459 122, 188.674 122 C 188.495 122, 187.258 123.237, 185.924 124.750 M 127 129.500 L 127 132 84 132 L 41 132 41 149.500 L 41 167 84 167 L 127 167 127.082 152.750 C 127.127 144.912, 127.356 135.912, 127.591 132.750 C 127.827 129.588, 127.790 127, 127.509 127 C 127.229 127, 127 128.125, 127 129.500 M 147.079 131.583 C 147.127 132.748, 147.364 132.985, 147.683 132.188 C 147.972 131.466, 147.936 130.603, 147.604 130.271 C 147.272 129.939, 147.036 130.529, 147.079 131.583 M 148 134.378 C 148 134.585, 148.787 135.373, 149.750 136.128 C 151.336 137.371, 151.371 137.336, 150.128 135.750 C 148.821 134.084, 148 133.555, 148 134.378 M 197.405 137.250 L 195.500 139.500 197.750 137.595 C 198.988 136.547, 200 135.535, 200 135.345 C 200 134.545, 199.195 135.136, 197.405 137.250 M 228 137.500 C 229.292 138.875, 230.574 140, 230.849 140 C 231.124 140, 230.292 138.875, 229 137.500 C 227.708 136.125, 226.426 135, 226.151 135 C 225.876 135, 226.708 136.125, 228 137.500 M 220.500 144 C 221.495 145.100, 222.535 146, 222.810 146 C 223.085 146, 222.495 145.100, 221.500 144 C 220.505 142.900, 219.465 142, 219.190 142 C 218.915 142, 219.505 142.900, 220.500 144 M 203.872 144.750 C 202.629 146.336, 202.664 146.371, 204.250 145.128 C 205.213 144.373, 206 143.585, 206 143.378 C 206 142.555, 205.179 143.084, 203.872 144.750 M 163.336 152 C 163.336 156.125, 163.513 157.813, 163.728 155.750 C 163.944 153.688, 163.944 150.313, 163.728 148.250 C 163.513 146.188, 163.336 147.875, 163.336 152 M 251.300 152 C 251.300 155.025, 251.487 156.262, 251.716 154.750 C 251.945 153.238, 251.945 150.762, 251.716 149.250 C 251.487 147.738, 251.300 148.975, 251.300 152 M 234.286 152.500 C 234.294 155.250, 234.488 156.256, 234.718 154.736 C 234.947 153.216, 234.941 150.966, 234.704 149.736 C 234.467 148.506, 234.279 149.750, 234.286 152.500 M 191.232 152 C 191.232 153.925, 191.438 154.713, 191.689 153.750 C 191.941 152.787, 191.941 151.213, 191.689 150.250 C 191.438 149.287, 191.232 150.075, 191.232 152 M 224.232 152 C 224.232 153.925, 224.438 154.713, 224.689 153.750 C 224.941 152.787, 224.941 151.213, 224.689 150.250 C 224.438 149.287, 224.232 150.075, 224.232 152 M 201.079 152.583 C 201.127 153.748, 201.364 153.985, 201.683 153.188 C 201.972 152.466, 201.936 151.603, 201.604 151.271 C 201.272 150.939, 201.036 151.529, 201.079 152.583 M 175.079 159.583 C 175.127 160.748, 175.364 160.985, 175.683 160.188 C 175.972 159.466, 175.936 158.603, 175.604 158.271 C 175.272 157.939, 175.036 158.529, 175.079 159.583 M 204.500 160 C 205.495 161.100, 206.535 162, 206.810 162 C 207.085 162, 206.495 161.100, 205.500 160 C 204.505 158.900, 203.465 158, 203.190 158 C 202.915 158, 203.505 158.900, 204.500 160 M 212.813 163.683 C 213.534 163.972, 214.397 163.936, 214.729 163.604 C 215.061 163.272, 214.471 163.036, 213.417 163.079 C 212.252 163.127, 212.015 163.364, 212.813 163.683 M 197 166.500 C 198.292 167.875, 199.574 169, 199.849 169 C 200.124 169, 199.292 167.875, 198 166.500 C 196.708 165.125, 195.426 164, 195.151 164 C 194.876 164, 195.708 165.125, 197 166.500 M 148.872 168.750 C 147.629 170.336, 147.664 170.371, 149.250 169.128 C 150.916 167.821, 151.445 167, 150.622 167 C 150.415 167, 149.627 167.787, 148.872 168.750 M 127 172.490 L 127 176.980 80.750 177.250 L 34.500 177.520 81.250 177.760 L 128 178 128 173 C 128 170.250, 127.775 168, 127.500 168 C 127.225 168, 127 170.021, 127 172.490 M 147.158 173 C 147.158 174.375, 147.385 174.938, 147.662 174.250 C 147.940 173.563, 147.940 172.438, 147.662 171.750 C 147.385 171.063, 147.158 171.625, 147.158 173 M 186 179.378 C 186 179.585, 186.787 180.373, 187.750 181.128 C 189.336 182.371, 189.371 182.336, 188.128 180.750 C 186.821 179.084, 186 178.555, 186 179.378 M 204.079 192.583 C 204.127 193.748, 204.364 193.985, 204.683 193.188 C 204.972 192.466, 204.936 191.603, 204.604 191.271 C 204.272 190.939, 204.036 191.529, 204.079 192.583 M 221.158 195 C 221.158 196.375, 221.385 196.938, 221.662 196.250 C 221.940 195.563, 221.940 194.438, 221.662 193.750 C 221.385 193.063, 221.158 193.625, 221.158 195 M 264.872 196.750 C 263.629 198.336, 263.664 198.371, 265.250 197.128 C 266.212 196.373, 267 195.585, 267 195.378 C 267 194.555, 266.179 195.084, 264.872 196.750 M 191 196.393 C 191 196.609, 191.698 197.054, 192.552 197.382 C 193.442 197.723, 193.843 197.555, 193.493 196.989 C 192.906 196.038, 191 195.583, 191 196.393 M 232.079 198.583 C 232.127 199.748, 232.364 199.985, 232.683 199.188 C 232.972 198.466, 232.936 197.603, 232.604 197.271 C 232.272 196.939, 232.036 197.529, 232.079 198.583 M 205.158 200 C 205.158 201.375, 205.385 201.938, 205.662 201.250 C 205.940 200.563, 205.940 199.438, 205.662 198.750 C 205.385 198.063, 205.158 198.625, 205.158 200 M 194.079 202.583 C 194.127 203.748, 194.364 203.985, 194.683 203.188 C 194.972 202.466, 194.936 201.603, 194.604 201.271 C 194.272 200.939, 194.036 201.529, 194.079 202.583 M 220.158 203 C 220.158 204.375, 220.385 204.938, 220.662 204.250 C 220.940 203.563, 220.940 202.438, 220.662 201.750 C 220.385 201.063, 220.158 201.625, 220.158 203 M 231.079 204.583 C 231.127 205.748, 231.364 205.985, 231.683 205.188 C 231.972 204.466, 231.936 203.603, 231.604 203.271 C 231.272 202.939, 231.036 203.529, 231.079 204.583 M 195.079 208.583 C 195.127 209.748, 195.364 209.985, 195.683 209.188 C 195.972 208.466, 195.936 207.603, 195.604 207.271 C 195.272 206.939, 195.036 207.529, 195.079 208.583 M 230.079 211.583 C 230.127 212.748, 230.364 212.985, 230.683 212.188 C 230.972 211.466, 230.936 210.603, 230.604 210.271 C 230.272 209.939, 230.036 210.529, 230.079 211.583" stroke="none" fill="#e8e8e8" fill-rule="evenodd"/><path d="M 0 2.167 C 0 3.358, 0.127 4.146, 0.283 3.917 C 0.439 3.687, 1.169 2.712, 1.905 1.750 C 3.052 0.252, 3.011 0, 1.622 0 C 0.625 0, 0 0.835, 0 2.167 M 196.250 1.080 C 197.721 1.937, 198 3.604, 198 11.550 L 198 21 147.500 21 L 97 21 97 16 L 97 11 54 11 L 11 11 11 28.500 L 11 46 16 46 L 21 46 21 96.500 L 21 147 12.057 147 C 3.949 147, 2.968 146.792, 1.557 144.777 C 0.136 142.749, 0 145.851, 0 180.277 L 0 218 99.655 218 C 194.497 218, 199.234 217.915, 197.738 216.250 C 196.874 215.287, 195.605 210.811, 194.918 206.302 L 193.670 198.104 187.618 194.512 L 181.566 190.920 173.822 194.460 C 165.451 198.286, 163.218 198.681, 160.848 196.750 C 160.003 196.063, 156.502 190.629, 153.067 184.675 C 148.424 176.628, 146.974 173.239, 147.418 171.473 C 147.788 169.997, 150.856 167.112, 155.507 163.864 L 163 158.633 162.984 152.066 L 162.967 145.500 155.531 140.186 C 151.441 137.263, 147.811 133.981, 147.466 132.893 C 146.814 130.837, 156.238 112.763, 160.316 108.250 C 163.032 105.244, 164.383 105.383, 173.528 109.608 L 181.337 113.216 187.660 109.858 C 192.047 107.528, 193.986 105.913, 193.992 104.582 C 194.015 99.358, 196.438 89.562, 198.124 87.876 C 199.771 86.229, 201.628 86, 213.345 86 C 229.410 86, 229.387 85.985, 231.519 98.102 C 232.332 102.721, 232.998 106.606, 232.999 106.737 C 232.999 106.867, 234.463 107.630, 236.250 108.432 C 238.037 109.234, 240.655 110.644, 242.066 111.565 C 244.543 113.182, 244.920 113.113, 253.003 109.558 C 258.399 107.186, 262.196 106.083, 263.682 106.456 C 265.306 106.864, 267.799 110.138, 272.103 117.518 C 275.467 123.283, 278.394 128, 278.609 128 C 278.824 128, 279 99.200, 279 64 L 279 0 236.750 0.030 C 207.559 0.051, 195.041 0.376, 196.250 1.080 M 33.223 31.557 L 31 33.113 31 104 L 31 174.887 33.223 176.443 C 35.156 177.798, 41.456 178, 81.723 178 L 128 178 128.022 172.250 C 128.046 165.912, 130.140 160.337, 134.384 155.310 L 137.078 152.119 133.565 147.517 C 125.145 136.487, 125.781 126.529, 135.975 109.810 C 137.630 107.095, 137.993 104.764, 137.996 96.848 L 138 87.196 151.750 86.830 C 165.070 86.475, 171.615 86.933, 175.250 88.473 C 176.578 89.035, 177 88.735, 177 87.229 C 177 80.343, 184.637 71.028, 192.780 67.981 C 197.702 66.139, 200.281 65.903, 213.452 66.086 L 228.500 66.296 228.775 50.173 C 229.031 35.117, 228.915 33.915, 227.025 32.025 C 225.020 30.020, 224.051 30, 130.223 30 C 46.060 30, 35.196 30.174, 33.223 31.557 M 41 58.500 L 41 76 84 76 L 127 76 127 58.500 L 127 41 84 41 L 41 41 41 58.500 M 205.579 105.250 C 204.756 114.030, 204.226 116, 202.683 116.001 C 200.324 116.002, 189.443 121.799, 187.177 124.261 L 184.854 126.784 177.177 123.467 C 172.955 121.642, 168.942 120.003, 168.260 119.825 C 167.578 119.646, 165.669 121.841, 164.017 124.702 L 161.015 129.903 168.282 135.108 L 175.548 140.312 175.501 152.168 L 175.454 164.024 168.281 169.142 L 161.108 174.260 164.064 179.380 C 165.690 182.196, 167.578 184.374, 168.260 184.219 C 168.942 184.065, 172.785 182.532, 176.801 180.812 L 184.102 177.686 186.801 179.870 C 189.888 182.369, 200.901 187.998, 202.705 187.999 C 203.967 188, 204.598 190.558, 205.785 200.500 L 206.502 206.500 213.115 206.793 L 219.727 207.085 220.915 197.825 C 221.568 192.731, 222.192 188.521, 222.301 188.468 C 222.411 188.415, 224.466 187.748, 226.869 186.987 C 229.271 186.225, 233.731 183.855, 236.779 181.720 L 242.320 177.838 250.813 181.433 C 255.484 183.410, 259.386 184.909, 259.484 184.764 C 261.376 181.962, 264.873 174.603, 264.555 174.089 C 264.320 173.709, 261.062 171.230, 257.314 168.580 L 250.500 163.762 250.500 151.965 C 250.500 141.250, 250.683 140.055, 252.500 138.925 C 253.600 138.241, 256.877 135.928, 259.782 133.785 L 265.065 129.889 262.373 124.945 C 260.893 122.225, 259.121 120, 258.434 120 C 257.748 120, 254.178 121.350, 250.500 123 C 246.822 124.650, 243.415 126, 242.927 126 C 242.439 126, 239.684 124.217, 236.805 122.037 C 233.925 119.858, 229.470 117.536, 226.905 116.879 L 222.241 115.684 221.033 106.842 L 219.824 98 213.041 98 L 206.258 98 205.579 105.250 M 203.142 133.104 C 194.707 137.385, 189.846 147.437, 191.897 156.355 C 193.330 162.588, 196.173 166.520, 201.849 170.119 C 205.624 172.514, 207.463 173, 212.736 173 C 234.846 173, 243.169 146.405, 224.852 134.283 C 219.075 130.460, 209.388 129.934, 203.142 133.104 M 277.157 135.311 C 276.559 136.032, 273.129 138.616, 269.535 141.053 L 263 145.484 263 151.998 L 263 158.513 271 164.195 L 279 169.876 279 151.938 C 279 142.072, 278.830 134, 278.622 134 C 278.415 134, 277.755 134.590, 277.157 135.311 M 208.388 141.929 C 204.758 143.484, 202 147.933, 202 152.235 C 202 157.839, 207.119 163, 212.677 163 C 219.427 163, 223.920 158.729, 223.968 152.266 C 224.012 146.491, 220.123 142.049, 214.500 141.450 C 212.300 141.216, 209.550 141.431, 208.388 141.929 M 275.096 181.262 C 268.136 194.014, 265.170 198, 262.637 198 C 261.324 198, 256.804 196.430, 252.592 194.510 L 244.934 191.020 239.217 194.186 C 236.073 195.927, 233.376 197.434, 233.225 197.534 C 233.074 197.635, 232.487 200.593, 231.921 204.108 C 230.338 213.941, 230.109 214.748, 228.427 216.430 C 227.001 217.857, 229.238 218, 252.929 218 L 279 218 279 196.500 C 279 184.675, 278.887 175.005, 278.750 175.012 C 278.613 175.018, 276.968 177.831, 275.096 181.262" stroke="none" fill="#ffffff" fill-rule="evenodd"/><path d="M 3.223 1.557 L 1 3.113 1 73.485 C 1 136.126, 1.173 144.030, 2.571 145.429 C 3.751 146.609, 6.242 147, 12.571 147 L 21 147 21 142 L 21 137 16 137 L 11 137 11 119.500 L 11 102 16 102 L 21 102 21 96.500 L 21 91 16 91 L 11 91 11 73.500 L 11 56 16 56 L 21 56 21 51 L 21 46 16 46 L 11 46 11 28 L 11 10 54 10 L 97 10 97 15 L 97 20 102 20 L 107 20 107 15 L 107 10 124.500 10 L 142 10 142 15 L 142 20 147.500 20 L 153 20 153 15 L 153 10 170.500 10 L 188 10 188 15 L 188 20 193 20 L 198 20 198 11.557 C 198 3.965, 197.776 2.956, 195.777 1.557 C 193.804 0.175, 183.009 -0, 99.500 -0 C 15.991 -0, 5.196 0.175, 3.223 1.557 M 32.571 32.571 C 31.173 33.970, 31 41.827, 31 104 C 31 166.173, 31.173 174.030, 32.571 175.429 C 33.955 176.812, 39.684 177, 80.433 177 L 126.722 177 127.252 171.162 C 127.857 164.488, 129.888 159.908, 134.308 155.250 L 137.392 152 134.253 148.750 C 132.526 146.963, 130.198 143.475, 129.079 141 L 127.044 136.500 127.022 151.750 L 127 167 84 167 L 41 167 41 149.500 L 41 132 83.794 132 L 126.587 132 127.693 126.750 C 128.302 123.862, 130.645 118.305, 132.900 114.400 C 136.999 107.302, 137 107.297, 137 96.650 L 137 86 155 86 C 166.333 86, 173 86.370, 173 87 C 173 89.602, 175.980 87.577, 177.046 84.250 C 177.707 82.188, 179.317 79.068, 180.624 77.317 C 182.902 74.265, 183 73.448, 183 57.567 L 183 41 200.500 41 L 218 41 218 53.500 L 218 66 223 66 L 228 66 228 49.700 C 228 38.356, 227.635 33.035, 226.800 32.200 C 225.883 31.283, 202.994 31, 129.871 31 C 44.179 31, 33.978 31.165, 32.571 32.571 M 41 58.500 L 41 76 84 76 L 127 76 127 58.500 L 127 41 84 41 L 41 41 41 58.500 M 137 58.500 L 137 76 155 76 L 173 76 173 58.500 L 173 41 155 41 L 137 41 137 58.500 M 41 104 L 41 122 84 122 L 127 122 127 104 L 127 86 84 86 L 41 86 41 104 M 200.242 86.994 C 197.411 88.182, 196.394 90.632, 194.967 99.706 L 193.834 106.911 187.667 110.306 L 181.500 113.701 174.023 110.304 C 162.467 105.053, 161.781 105.338, 154.282 118.500 C 150.835 124.550, 148.011 130.472, 148.007 131.661 C 147.999 133.983, 150.587 136.469, 158.770 142 L 163.948 145.500 163.939 152 L 163.929 158.500 155.964 164.231 C 149.784 168.677, 148 170.503, 148 172.381 C 148 175.819, 159.765 195.936, 162.506 197.185 C 164.342 198.021, 166.302 197.486, 173.155 194.275 L 181.553 190.339 186.026 193.151 C 188.487 194.697, 191.036 195.971, 191.691 195.981 C 193.450 196.009, 193.715 196.754, 195.400 206.409 C 196.437 212.350, 197.523 215.678, 198.721 216.586 C 200.886 218.229, 224.096 218.554, 227.032 216.983 C 229.121 215.865, 230.510 211.503, 231.539 202.828 C 232.142 197.741, 232.520 197.027, 235.206 195.915 C 236.854 195.232, 239.648 193.692, 241.416 192.492 L 244.631 190.311 252.957 194.155 C 257.536 196.270, 261.816 198, 262.467 198 C 263.118 198, 264.567 196.988, 265.686 195.750 C 268.086 193.097, 279.007 174.028, 278.985 172.531 C 278.955 170.552, 277.350 168.995, 269.951 163.765 L 262.500 158.500 262.603 152 L 262.706 145.500 270.103 140.273 C 274.171 137.397, 277.886 134.018, 278.358 132.764 C 279.050 130.924, 278.099 128.549, 273.439 120.491 C 270.262 114.996, 266.993 109.712, 266.176 108.750 C 263.999 106.186, 260.413 106.618, 252.059 110.451 L 244.619 113.865 241.867 111.905 C 240.354 110.828, 237.591 109.309, 235.728 108.531 C 232.428 107.152, 232.306 106.891, 231.075 98.620 C 229.247 86.330, 229.528 86.544, 214.833 86.273 C 208.050 86.148, 201.484 86.472, 200.242 86.994 M 205.651 101.250 C 205.334 103.588, 204.777 107.673, 204.412 110.330 C 203.977 113.501, 203.191 115.332, 202.125 115.664 C 197.369 117.143, 192.053 119.855, 188.286 122.723 L 184.053 125.947 175.938 122.473 C 171.474 120.563, 167.525 119.001, 167.161 119.002 C 166.362 119.005, 160.561 129.920, 161.112 130.383 C 161.326 130.563, 164.786 133.078, 168.803 135.974 C 175.783 141.005, 176.076 141.377, 175.417 144.369 C 174.593 148.111, 174.642 158.296, 175.497 160.990 C 175.981 162.514, 174.556 164.054, 168.553 168.493 C 164.399 171.565, 161 174.286, 161 174.539 C 161 175.750, 166.605 184.973, 167.350 184.986 C 167.817 184.994, 171.781 183.448, 176.158 181.551 L 184.116 178.102 188.452 181.411 C 190.836 183.231, 195.269 185.749, 198.302 187.006 C 203.587 189.197, 203.841 189.474, 204.408 193.646 C 204.734 196.041, 205.276 200.025, 205.614 202.500 L 206.227 207 213.046 207 C 220.880 207, 220.531 207.439, 221.576 196.286 L 222.251 189.072 225.876 187.915 C 230.374 186.479, 235.695 183.419, 239.061 180.335 L 241.621 177.989 249.863 181.560 C 254.396 183.525, 258.543 184.986, 259.079 184.807 C 259.615 184.628, 261.369 182.179, 262.976 179.365 L 265.899 174.248 258.116 168.645 L 250.333 163.041 251.334 157.521 C 251.998 153.858, 252.001 150.159, 251.343 146.531 L 250.352 141.062 257.676 135.875 C 261.704 133.023, 265 130.257, 265 129.730 C 265 128.328, 259.799 119, 259.017 119 C 258.651 119, 254.648 120.605, 250.121 122.567 L 241.890 126.134 238.195 122.817 C 236.163 120.993, 232.475 118.667, 230 117.648 C 227.525 116.630, 224.825 115.456, 224 115.041 C 223.042 114.559, 222.228 111.975, 221.746 107.893 C 220.387 96.360, 220.895 97, 213.094 97 L 206.227 97 205.651 101.250 M 205.637 132.465 C 197.716 135.289, 192 143.433, 192 151.895 C 192 158.202, 193.304 161.634, 197.311 165.872 C 204.285 173.247, 213.760 174.917, 222.871 170.377 C 229.839 166.905, 233.241 161.813, 233.805 154.016 C 234.366 146.266, 232.771 141.965, 227.554 137.156 C 221.136 131.241, 213.598 129.627, 205.637 132.465 M 206.301 142.958 C 204.088 144.307, 202.774 146.126, 202.039 148.857 C 198.826 160.787, 212.539 168.388, 221.735 159.773 C 226.294 155.503, 225.546 147.148, 220.230 142.966 C 216.972 140.404, 210.496 140.400, 206.301 142.958" stroke="none" fill="#a7a7a7" fill-rule="evenodd"/></svg>