<svg xmlns="http://www.w3.org/2000/svg" width="1334" height="1286" viewBox="0 0 1334 1286" version="1.1"><path d="M 0 643.001 L 0 1286.001 667.250 1285.751 L 1334.500 1285.500 1334.751 642.750 L 1335.002 0 667.501 0 L 0 0 0 643.001 M 0.497 643.500 C 0.497 997.150, 0.611 1141.676, 0.750 964.668 C 0.889 787.660, 0.889 498.310, 0.750 321.668 C 0.611 145.026, 0.497 289.850, 0.497 643.500 M 66.715 35.040 C 53.801 37.211, 41.414 46.682, 35.693 58.759 L 32.500 65.500 32.500 291 L 32.500 516.500 35.118 522 C 40.654 533.631, 49.608 541.613, 60.987 545.059 C 67.398 547.001, 70.994 547.028, 290.521 546.766 L 513.542 546.500 520.488 543.080 C 533.335 536.756, 542.015 524.865, 544.048 510.806 C 544.549 507.338, 544.969 461.188, 544.980 408.250 L 545 312 581.500 312 L 618 312 618 628.500 L 618 945 581.500 945 L 545 945 544.992 866.750 C 544.988 818.513, 544.594 786.007, 543.965 782 C 541.737 767.805, 533.159 756.382, 520 750.088 L 512.500 746.500 291.500 746.194 C 124.951 745.963, 69.145 746.178, 65 747.064 C 50.384 750.187, 38.882 760.508, 34.058 774.827 L 31.983 780.989 32.241 1004.244 L 32.500 1227.500 35.685 1234.223 C 39.489 1242.253, 46.150 1249.675, 52.801 1253.295 C 63.953 1259.365, 48.904 1259, 288 1259 C 527.067 1259, 512.049 1259.364, 523.186 1253.302 C 529.550 1249.839, 537.516 1241.304, 540.502 1234.753 C 541.818 1231.864, 543.365 1226.575, 543.940 1223 C 544.621 1218.761, 544.988 1177.450, 544.992 1104.250 L 545 992 583.790 992 C 625.969 992, 629.895 991.594, 638.932 986.299 C 648.869 980.477, 656.714 969.054, 658.979 957.109 C 659.646 953.596, 660 898.818, 660 799.364 L 660 647 733 647 L 806 647 806 745.790 C 806 851.430, 805.942 850.086, 810.915 859.833 C 814.556 866.970, 821.683 873.734, 829.776 877.734 L 837.396 881.500 1044.448 881.766 C 1248.349 882.029, 1251.599 882.003, 1258.037 880.052 C 1270.580 876.252, 1281.301 865.648, 1285.741 852.649 C 1287.395 847.808, 1287.517 834.541, 1287.791 631 C 1287.984 487.537, 1287.737 411.878, 1287.059 406.727 C 1286.487 402.374, 1284.897 396.544, 1283.447 393.479 C 1280.108 386.422, 1272.509 378.139, 1266.243 374.729 C 1255.053 368.638, 1267.537 368.947, 1043.783 369.236 L 839.500 369.500 833.881 371.773 C 821.941 376.602, 813.568 384.897, 808.416 397 C 806.578 401.317, 806.489 405.516, 806.226 500.250 L 805.953 599 732.976 599 L 660 599 660 452.184 C 660 350.241, 659.666 303.554, 658.907 299.434 C 656.399 285.821, 648.522 275.345, 636.226 269.266 L 628.609 265.500 586.804 265.209 L 545 264.917 544.992 170.709 C 544.988 110.261, 544.612 74.202, 543.944 70.086 C 542.483 61.078, 538.554 53.420, 532.067 46.933 C 525.580 40.446, 517.922 36.517, 508.914 35.056 C 501.210 33.806, 74.146 33.790, 66.715 35.040 M 121.976 110.250 C 115.760 113.395, 111.309 119.608, 110.527 126.230 C 110.185 129.129, 110.039 205.075, 110.202 295 L 110.500 458.500 113 462.956 C 114.375 465.406, 117.451 468.781, 119.836 470.456 L 124.172 473.500 285.836 473.796 C 400.476 474.006, 448.596 473.775, 451.267 473.001 C 456.201 471.571, 461.859 466.518, 464.135 461.509 C 465.873 457.683, 465.957 449.893, 465.978 291.218 C 465.998 143.117, 465.830 124.529, 464.447 121.218 C 462.489 116.530, 458.563 112.363, 453.790 109.908 C 450.184 108.054, 445.528 108, 288.252 108 L 126.424 108 121.976 110.250 M 890.842 445.021 C 885.560 447.811, 881.237 453.546, 879.971 459.443 C 879.207 463, 878.976 513.301, 879.192 629 L 879.500 793.500 882.277 798.223 C 884.077 801.286, 886.714 803.923, 889.777 805.723 L 894.500 808.500 1043.045 808.763 L 1191.589 809.026 1197.039 806.263 C 1200.616 804.449, 1203.520 802.011, 1205.494 799.164 L 1208.500 794.828 1208.796 628.164 C 1209.008 508.680, 1208.779 460.421, 1207.987 457.688 C 1206.633 453.013, 1200.623 446.165, 1196.282 444.347 C 1193.631 443.237, 1166.765 443.008, 1043.782 443.044 C 898.212 443.087, 894.409 443.136, 890.842 445.021 M 125.764 819.990 C 120.585 821.561, 115.976 825.185, 113.241 829.837 L 110.500 834.500 110.238 1000.350 C 110.057 1115.350, 110.303 1167.413, 111.042 1170.157 C 112.323 1174.912, 118.275 1181.793, 122.718 1183.653 C 125.371 1184.764, 154.478 1185, 288.630 1185 L 451.324 1185 455.412 1182.598 C 460.007 1179.897, 463.094 1176.129, 464.828 1171.101 C 466.486 1166.293, 466.519 838.848, 464.862 833.899 C 463.141 828.759, 459.356 824.234, 454.692 821.741 L 450.500 819.500 289.500 819.330 C 200.950 819.236, 127.269 819.533, 125.764 819.990" stroke="none" fill="#ffffff" fill-rule="evenodd"/><path d="M 66.715 35.040 C 53.801 37.211, 41.414 46.682, 35.693 58.759 L 32.500 65.500 32.500 291 L 32.500 516.500 35.118 522 C 40.654 533.631, 49.608 541.613, 60.987 545.059 C 67.398 547.001, 70.994 547.028, 290.521 546.766 L 513.542 546.500 520.488 543.080 C 533.335 536.756, 542.015 524.865, 544.048 510.806 C 544.549 507.338, 544.969 461.188, 544.980 408.250 L 545 312 581.500 312 L 618 312 618 628.500 L 618 945 581.500 945 L 545 945 544.992 866.750 C 544.988 818.513, 544.594 786.007, 543.965 782 C 541.737 767.805, 533.159 756.382, 520 750.088 L 512.500 746.500 291.500 746.194 C 124.951 745.963, 69.145 746.178, 65 747.064 C 50.384 750.187, 38.882 760.508, 34.058 774.827 L 31.983 780.989 32.241 1004.244 L 32.500 1227.500 35.685 1234.223 C 39.489 1242.253, 46.150 1249.675, 52.801 1253.295 C 63.953 1259.365, 48.904 1259, 288 1259 C 527.067 1259, 512.049 1259.364, 523.186 1253.302 C 529.550 1249.839, 537.516 1241.304, 540.502 1234.753 C 541.818 1231.864, 543.365 1226.575, 543.940 1223 C 544.621 1218.761, 544.988 1177.450, 544.992 1104.250 L 545 992 583.790 992 C 625.969 992, 629.895 991.594, 638.932 986.299 C 648.869 980.477, 656.714 969.054, 658.979 957.109 C 659.646 953.596, 660 898.818, 660 799.364 L 660 647 733 647 L 806 647 806 745.790 C 806 851.430, 805.942 850.086, 810.915 859.833 C 814.556 866.970, 821.683 873.734, 829.776 877.734 L 837.396 881.500 1044.448 881.766 C 1248.349 882.029, 1251.599 882.003, 1258.037 880.052 C 1270.580 876.252, 1281.301 865.648, 1285.741 852.649 C 1287.395 847.808, 1287.517 834.541, 1287.791 631 C 1287.984 487.537, 1287.737 411.878, 1287.059 406.727 C 1286.487 402.374, 1284.897 396.544, 1283.447 393.479 C 1280.108 386.422, 1272.509 378.139, 1266.243 374.729 C 1255.053 368.638, 1267.537 368.947, 1043.783 369.236 L 839.500 369.500 833.881 371.773 C 821.941 376.602, 813.568 384.897, 808.416 397 C 806.578 401.317, 806.489 405.516, 806.226 500.250 L 805.953 599 732.976 599 L 660 599 660 452.184 C 660 350.241, 659.666 303.554, 658.907 299.434 C 656.399 285.821, 648.522 275.345, 636.226 269.266 L 628.609 265.500 586.804 265.209 L 545 264.917 544.992 170.709 C 544.988 110.261, 544.612 74.202, 543.944 70.086 C 542.483 61.078, 538.554 53.420, 532.067 46.933 C 525.580 40.446, 517.922 36.517, 508.914 35.056 C 501.210 33.806, 74.146 33.790, 66.715 35.040 M 121.976 110.250 C 115.760 113.395, 111.309 119.608, 110.527 126.230 C 110.185 129.129, 110.039 205.075, 110.202 295 L 110.500 458.500 113 462.956 C 114.375 465.406, 117.451 468.781, 119.836 470.456 L 124.172 473.500 285.836 473.796 C 400.476 474.006, 448.596 473.775, 451.267 473.001 C 456.201 471.571, 461.859 466.518, 464.135 461.509 C 465.873 457.683, 465.957 449.893, 465.978 291.218 C 465.998 143.117, 465.830 124.529, 464.447 121.218 C 462.489 116.530, 458.563 112.363, 453.790 109.908 C 450.184 108.054, 445.528 108, 288.252 108 L 126.424 108 121.976 110.250 M 890.842 445.021 C 885.560 447.811, 881.237 453.546, 879.971 459.443 C 879.207 463, 878.976 513.301, 879.192 629 L 879.500 793.500 882.277 798.223 C 884.077 801.286, 886.714 803.923, 889.777 805.723 L 894.500 808.500 1043.045 808.763 L 1191.589 809.026 1197.039 806.263 C 1200.616 804.449, 1203.520 802.011, 1205.494 799.164 L 1208.500 794.828 1208.796 628.164 C 1209.008 508.680, 1208.779 460.421, 1207.987 457.688 C 1206.633 453.013, 1200.623 446.165, 1196.282 444.347 C 1193.631 443.237, 1166.765 443.008, 1043.782 443.044 C 898.212 443.087, 894.409 443.136, 890.842 445.021 M 125.764 819.990 C 120.585 821.561, 115.976 825.185, 113.241 829.837 L 110.500 834.500 110.238 1000.350 C 110.057 1115.350, 110.303 1167.413, 111.042 1170.157 C 112.323 1174.912, 118.275 1181.793, 122.718 1183.653 C 125.371 1184.764, 154.478 1185, 288.630 1185 L 451.324 1185 455.412 1182.598 C 460.007 1179.897, 463.094 1176.129, 464.828 1171.101 C 466.486 1166.293, 466.519 838.848, 464.862 833.899 C 463.141 828.759, 459.356 824.234, 454.692 821.741 L 450.500 819.500 289.500 819.330 C 200.950 819.236, 127.269 819.533, 125.764 819.990" stroke="none" fill="#a7a7a7" fill-rule="evenodd"/></svg>