<svg xmlns="http://www.w3.org/2000/svg" width="279" height="218" viewBox="0 0 279 218" version="1.1"><path d="M 1.648 1.836 C 0.127 3.517, 0.009 9.625, 0.250 74.086 L 0.514 144.500 0.757 73.807 L 1 3.113 3.223 1.557 C 4.445 0.701, 4.965 0, 4.377 0 C 3.790 0, 2.562 0.826, 1.648 1.836 M 194 0.393 C 194 0.609, 194.698 1.054, 195.552 1.382 C 196.442 1.723, 196.843 1.555, 196.493 0.989 C 195.906 0.038, 194 -0.417, 194 0.393 M 53.250 10.750 L 96 11.021 96 16.011 L 96 21 147.250 20.815 C 175.438 20.713, 196.161 20.466, 193.303 20.265 L 188.105 19.899 187.803 15.200 L 187.500 10.500 170 10.500 L 152.500 10.500 152.195 15.250 L 151.890 20 146.945 20 L 142 20 142 15 L 142 10 124.500 10 L 107 10 107 15 L 107 20 102 20 L 97 20 97 15 L 97 10 53.750 10.239 L 10.500 10.478 53.250 10.750 M 81.174 30.750 C 107.395 30.898, 150.595 30.898, 177.174 30.750 C 203.753 30.602, 182.300 30.480, 129.500 30.480 C 76.700 30.480, 54.953 30.601, 81.174 30.750 M 228 50 L 228 66 223 66 L 218 66 218 53.500 L 218 41 200.546 41 L 183.091 41 182.796 57.950 L 182.500 74.900 185 72.564 C 190.990 66.967, 193.150 66.489, 211.750 66.639 L 229 66.779 229 50.389 C 229 41.375, 228.775 34, 228.500 34 C 228.225 34, 228 41.200, 228 50 M 30.473 104 C 30.473 141.675, 30.597 157.087, 30.750 138.250 C 30.902 119.412, 30.902 88.587, 30.750 69.750 C 30.597 50.912, 30.473 66.325, 30.473 104 M 137 58.500 L 137 76 155 76 L 173 76 173 58.500 L 173 41 155 41 L 137 41 137 58.500 M 13.264 45.718 C 14.784 45.947, 17.034 45.941, 18.264 45.704 C 19.494 45.467, 18.250 45.279, 15.500 45.286 C 12.750 45.294, 11.744 45.488, 13.264 45.718 M 11 73.403 L 11 90.807 16.001 91.153 L 21.001 91.500 21.001 73.750 L 21 56 16 56 L 11 56 11 73.403 M 41 104 L 41 122 84 122 L 127 122 127 104 L 127 86 84 86 L 41 86 41 104 M 137.211 96.750 L 137.422 107.500 137.746 97.206 L 138.071 86.911 155.537 87.206 C 165.143 87.368, 173.002 87.162, 173.001 86.750 C 173.001 86.338, 164.900 86, 155 86 L 137 86 137.211 96.750 M 176.079 87.583 C 176.127 88.748, 176.364 88.985, 176.683 88.188 C 176.972 87.466, 176.936 86.603, 176.604 86.271 C 176.272 85.939, 176.036 86.529, 176.079 87.583 M 198.507 86.989 C 198.157 87.555, 198.558 87.723, 199.448 87.382 C 201.180 86.717, 201.497 86, 200.059 86 C 199.541 86, 198.843 86.445, 198.507 86.989 M 230.079 93.583 C 230.127 94.748, 230.364 94.985, 230.683 94.188 C 230.972 93.466, 230.936 92.603, 230.604 92.271 C 230.272 91.939, 230.036 92.529, 230.079 93.583 M 195.079 94.583 C 195.127 95.748, 195.364 95.985, 195.683 95.188 C 195.972 94.466, 195.936 93.603, 195.604 93.271 C 195.272 92.939, 195.036 93.529, 195.079 94.583 M 209.250 97.728 C 211.313 97.944, 214.688 97.944, 216.750 97.728 C 218.813 97.513, 217.125 97.336, 213 97.336 C 208.875 97.336, 207.188 97.513, 209.250 97.728 M 231.158 100 C 231.158 101.375, 231.385 101.938, 231.662 101.250 C 231.940 100.563, 231.940 99.438, 231.662 98.750 C 231.385 98.063, 231.158 98.625, 231.158 100 M 194.158 101 C 194.158 102.375, 194.385 102.938, 194.662 102.250 C 194.940 101.563, 194.940 100.438, 194.662 99.750 C 194.385 99.063, 194.158 99.625, 194.158 101 M 220.158 102 C 220.158 103.375, 220.385 103.938, 220.662 103.250 C 220.940 102.563, 220.940 101.438, 220.662 100.750 C 220.385 100.063, 220.158 100.625, 220.158 102 M 11 119 L 11 137 16 137 L 21 137 21 119 L 21 101 16 101 L 11 101 11 119 M 205.158 103 C 205.158 104.375, 205.385 104.938, 205.662 104.250 C 205.940 103.563, 205.940 102.438, 205.662 101.750 C 205.385 101.063, 205.158 101.625, 205.158 103 M 232 105.902 C 232 106.940, 233.902 108.443, 234.466 107.850 C 234.649 107.658, 234.169 106.920, 233.399 106.211 C 232.630 105.501, 232 105.362, 232 105.902 M 263.083 106.283 C 263.313 106.439, 264.400 107.226, 265.500 108.033 C 267.350 109.390, 267.397 109.369, 266.128 107.750 C 265.373 106.787, 264.285 106, 263.711 106 C 263.137 106, 262.854 106.127, 263.083 106.283 M 221.158 110 C 221.158 111.375, 221.385 111.938, 221.662 111.250 C 221.940 110.563, 221.940 109.438, 221.662 108.750 C 221.385 108.063, 221.158 108.625, 221.158 110 M 204.158 111 C 204.158 112.375, 204.385 112.938, 204.662 112.250 C 204.940 111.563, 204.940 110.438, 204.662 109.750 C 204.385 109.063, 204.158 109.625, 204.158 111 M 165.584 120.641 C 165.036 122.070, 165.184 122.107, 166.727 120.924 C 167.702 120.177, 168.688 119.439, 168.917 119.283 C 169.146 119.127, 168.631 119, 167.774 119 C 166.916 119, 165.931 119.739, 165.584 120.641 M 257.813 119.683 C 258.534 119.972, 259.397 119.936, 259.729 119.604 C 260.061 119.272, 259.471 119.036, 258.417 119.079 C 257.252 119.127, 257.015 119.364, 257.813 119.683 M 236 121.313 C 236 121.485, 237.463 122.948, 239.250 124.563 L 242.500 127.500 239.563 124.250 C 236.825 121.221, 236 120.540, 236 121.313 M 185.924 124.750 L 183.500 127.500 186.250 125.076 C 188.820 122.810, 189.459 122, 188.674 122 C 188.495 122, 187.258 123.237, 185.924 124.750 M 127 129 L 127 132 84 132 L 41 132 41 149.500 L 41 167 84 167 L 127 167 127.084 152.750 C 127.131 144.912, 127.369 135.688, 127.614 132.250 C 127.858 128.813, 127.820 126, 127.529 126 C 127.238 126, 127 127.350, 127 129 M 163 131.378 C 163 131.585, 163.787 132.373, 164.750 133.128 C 166.336 134.371, 166.371 134.336, 165.128 132.750 C 163.821 131.084, 163 130.555, 163 131.378 M 147 132.659 C 147 133.205, 148.238 134.742, 149.750 136.076 L 152.500 138.500 150 135.500 C 148.625 133.850, 147.387 132.313, 147.250 132.083 C 147.113 131.854, 147 132.113, 147 132.659 M 196.946 137.750 L 193.500 141.500 197.250 138.054 C 200.740 134.846, 201.460 134, 200.696 134 C 200.529 134, 198.842 135.688, 196.946 137.750 M 225 134.313 C 225 134.485, 226.463 135.948, 228.250 137.563 L 231.500 140.500 228.563 137.250 C 225.825 134.221, 225 133.540, 225 134.313 M 153 138.378 C 153 138.585, 153.787 139.373, 154.750 140.128 C 156.336 141.371, 156.371 141.336, 155.128 139.750 C 153.821 138.084, 153 137.555, 153 138.378 M 161.606 145.152 C 162.648 146.611, 163.700 147.611, 163.944 147.374 C 164.189 147.138, 163.337 145.944, 162.050 144.722 L 159.712 142.500 161.606 145.152 M 175.079 144.583 C 175.127 145.748, 175.364 145.985, 175.683 145.188 C 175.972 144.466, 175.936 143.603, 175.604 143.271 C 175.272 142.939, 175.036 143.529, 175.079 144.583 M 203.872 144.750 C 202.629 146.336, 202.664 146.371, 204.250 145.128 C 205.213 144.373, 206 143.585, 206 143.378 C 206 142.555, 205.179 143.084, 203.872 144.750 M 220 143.378 C 220 143.585, 220.787 144.373, 221.750 145.128 C 223.336 146.371, 223.371 146.336, 222.128 144.750 C 220.821 143.084, 220 142.555, 220 143.378 M 191.272 152 C 191.272 154.475, 191.467 155.488, 191.706 154.250 C 191.944 153.012, 191.944 150.988, 191.706 149.750 C 191.467 148.512, 191.272 149.525, 191.272 152 M 234.272 152 C 234.272 154.475, 234.467 155.488, 234.706 154.250 C 234.944 153.012, 234.944 150.988, 234.706 149.750 C 234.467 148.512, 234.272 149.525, 234.272 152 M 251.232 152 C 251.232 153.925, 251.438 154.713, 251.689 153.750 C 251.941 152.787, 251.941 151.213, 251.689 150.250 C 251.438 149.287, 251.232 150.075, 251.232 152 M 174.158 152 C 174.158 153.375, 174.385 153.938, 174.662 153.250 C 174.940 152.563, 174.940 151.438, 174.662 150.750 C 174.385 150.063, 174.158 150.625, 174.158 152 M 201.158 152 C 201.158 153.375, 201.385 153.938, 201.662 153.250 C 201.940 152.563, 201.940 151.438, 201.662 150.750 C 201.385 150.063, 201.158 150.625, 201.158 152 M 224.158 152 C 224.158 153.375, 224.385 153.938, 224.662 153.250 C 224.940 152.563, 224.940 151.438, 224.662 150.750 C 224.385 150.063, 224.158 150.625, 224.158 152 M 131.872 157.750 C 130.629 159.336, 130.664 159.371, 132.250 158.128 C 133.916 156.821, 134.445 156, 133.622 156 C 133.415 156, 132.627 156.787, 131.872 157.750 M 175.079 159.583 C 175.127 160.748, 175.364 160.985, 175.683 160.188 C 175.972 159.466, 175.936 158.603, 175.604 158.271 C 175.272 157.939, 175.036 158.529, 175.079 159.583 M 204.500 160 C 205.495 161.100, 206.535 162, 206.810 162 C 207.085 162, 206.495 161.100, 205.500 160 C 204.505 158.900, 203.465 158, 203.190 158 C 202.915 158, 203.505 158.900, 204.500 160 M 220.405 160.250 L 218.500 162.500 220.750 160.595 C 221.988 159.547, 223 158.535, 223 158.345 C 223 157.545, 222.195 158.136, 220.405 160.250 M 267 161.378 C 267 161.585, 267.788 162.373, 268.750 163.128 C 270.336 164.371, 270.371 164.336, 269.128 162.750 C 267.821 161.084, 267 160.555, 267 161.378 M 229.872 164.750 C 228.629 166.336, 228.664 166.371, 230.250 165.128 C 231.916 163.821, 232.445 163, 231.622 163 C 231.415 163, 230.627 163.787, 229.872 164.750 M 276.086 168.618 C 277.414 170.333, 278.701 171.557, 278.947 171.338 C 279.193 171.119, 278.106 169.716, 276.533 168.220 L 273.672 165.500 276.086 168.618 M 148.494 169.006 C 147.496 170.110, 146.864 171.190, 147.089 171.408 C 147.315 171.626, 148.309 170.723, 149.297 169.402 C 151.479 166.484, 150.994 166.245, 148.494 169.006 M 127 172.490 L 127 176.980 80.250 177.250 L 33.500 177.520 80.750 177.760 L 128 178 128 173 C 128 170.250, 127.775 168, 127.500 168 C 127.225 168, 127 170.021, 127 172.490 M 166.872 169.750 C 165.629 171.336, 165.664 171.371, 167.250 170.128 C 168.916 168.821, 169.445 168, 168.622 168 C 168.415 168, 167.627 168.787, 166.872 169.750 M 199 168.378 C 199 168.585, 199.787 169.373, 200.750 170.128 C 202.336 171.371, 202.371 171.336, 201.128 169.750 C 199.821 168.084, 199 167.555, 199 168.378 M 257 168.378 C 257 168.585, 257.788 169.373, 258.750 170.128 C 260.336 171.371, 260.371 171.336, 259.128 169.750 C 257.821 168.084, 257 167.555, 257 168.378 M 211.750 173.662 C 212.438 173.940, 213.563 173.940, 214.250 173.662 C 214.938 173.385, 214.375 173.158, 213 173.158 C 211.625 173.158, 211.063 173.385, 211.750 173.662 M 277.564 175.707 C 277.022 177.132, 277.136 177.247, 278.124 176.267 C 278.808 175.588, 279.115 174.781, 278.807 174.474 C 278.499 174.166, 277.940 174.721, 277.564 175.707 M 186.500 180 C 187.495 181.100, 188.535 182, 188.810 182 C 189.085 182, 188.495 181.100, 187.500 180 C 186.505 178.900, 185.465 178, 185.190 178 C 184.915 178, 185.505 178.900, 186.500 180 M 238.405 180.250 L 236.500 182.500 238.750 180.595 C 239.988 179.547, 241 178.535, 241 178.345 C 241 177.545, 240.195 178.136, 238.405 180.250 M 270 189 C 269.411 190.100, 269.155 191, 269.430 191 C 269.705 191, 270.411 190.100, 271 189 C 271.589 187.900, 271.845 187, 271.570 187 C 271.295 187, 270.589 187.900, 270 189 M 204.158 193 C 204.158 194.375, 204.385 194.938, 204.662 194.250 C 204.940 193.563, 204.940 192.438, 204.662 191.750 C 204.385 191.063, 204.158 191.625, 204.158 193 M 221.158 194 C 221.158 195.375, 221.385 195.938, 221.662 195.250 C 221.940 194.563, 221.940 193.438, 221.662 192.750 C 221.385 192.063, 221.158 192.625, 221.158 194 M 265.405 196.250 L 263.500 198.500 265.750 196.595 C 267.864 194.805, 268.455 194, 267.655 194 C 267.465 194, 266.453 195.012, 265.405 196.250 M 159 195.378 C 159 195.585, 159.787 196.373, 160.750 197.128 C 162.336 198.371, 162.371 198.336, 161.128 196.750 C 159.821 195.084, 159 194.555, 159 195.378 M 205.158 201 C 205.158 202.375, 205.385 202.938, 205.662 202.250 C 205.940 201.563, 205.940 200.438, 205.662 199.750 C 205.385 199.063, 205.158 199.625, 205.158 201 M 220.158 202 C 220.158 203.375, 220.385 203.938, 220.662 203.250 C 220.940 202.563, 220.940 201.438, 220.662 200.750 C 220.385 200.063, 220.158 200.625, 220.158 202 M 194.079 203.583 C 194.127 204.748, 194.364 204.985, 194.683 204.188 C 194.972 203.466, 194.936 202.603, 194.604 202.271 C 194.272 201.939, 194.036 202.529, 194.079 203.583 M 231.079 204.583 C 231.127 205.748, 231.364 205.985, 231.683 205.188 C 231.972 204.466, 231.936 203.603, 231.604 203.271 C 231.272 202.939, 231.036 203.529, 231.079 204.583 M 209.250 206.728 C 211.313 206.944, 214.688 206.944, 216.750 206.728 C 218.813 206.513, 217.125 206.336, 213 206.336 C 208.875 206.336, 207.188 206.513, 209.250 206.728 M 195.079 209.583 C 195.127 210.748, 195.364 210.985, 195.683 210.188 C 195.972 209.466, 195.936 208.603, 195.604 208.271 C 195.272 207.939, 195.036 208.529, 195.079 209.583 M 230.079 210.583 C 230.127 211.748, 230.364 211.985, 230.683 211.188 C 230.972 210.466, 230.936 209.603, 230.604 209.271 C 230.272 208.939, 230.036 209.529, 230.079 210.583 M 228.564 215.707 C 228.022 217.132, 228.136 217.247, 229.124 216.267 C 229.808 215.588, 230.115 214.781, 229.807 214.474 C 229.499 214.166, 228.940 214.721, 228.564 215.707" stroke="none" fill="#e8e8e8" fill-rule="evenodd"/><path d="M 0 1.622 C 0 2.951, 0.271 3.020, 1.500 2 C 3.389 0.432, 3.389 0, 1.500 0 C 0.675 0, 0 0.730, 0 1.622 M 196.965 1.934 C 197.534 2.998, 198 7.723, 198 12.434 L 198 21 147 21 L 96 21 96 16 L 96 11 53.500 11 L 11 11 11 27.945 L 11 44.890 15.750 45.195 L 20.500 45.500 20.759 96.250 L 21.018 147 11.559 147 C 3.605 147, 1.937 146.721, 1.080 145.250 C 0.374 144.038, 0.051 154.955, 0.030 180.750 L 0 218 99.571 218 C 187.397 218, 198.969 217.826, 197.666 216.523 C 196.853 215.710, 195.663 211.773, 195.020 207.773 C 193.363 197.458, 193.577 197.819, 187.030 194.297 L 181.076 191.095 173.604 194.547 C 164.453 198.775, 161.763 198.907, 159.236 195.250 C 154.777 188.799, 147 174.092, 147 172.112 C 147 170.570, 149.257 168.337, 154.964 164.231 L 162.929 158.500 162.964 152.321 L 163 146.142 155.250 140.320 C 149.630 136.098, 147.431 133.811, 147.247 131.999 C 147.087 130.413, 149.325 125.479, 153.372 118.500 C 161.454 104.561, 161.960 104.329, 173.269 109.368 L 181.624 113.091 187.521 109.776 L 193.418 106.460 194.725 98.042 C 196.602 85.940, 196.517 85.997, 212.905 86.015 C 220.382 86.024, 227.034 86.370, 227.687 86.786 C 229.452 87.907, 230.797 92.080, 231.555 98.784 C 231.927 102.068, 232.516 105.171, 232.865 105.679 C 233.214 106.187, 236.074 108.038, 239.220 109.793 L 244.941 112.984 252.882 109.492 C 261.390 105.751, 264.154 105.271, 265.785 107.250 C 266.351 107.938, 269.556 113.223, 272.907 118.995 L 279 129.490 279 64.745 L 279 0 237.465 0 C 196.710 0, 195.949 0.036, 196.965 1.934 M 32.441 31.419 C 30.558 32.796, 30.491 34.858, 30.204 100.669 C 30.042 137.976, 30.172 169.948, 30.494 171.718 C 31.689 178.292, 29.337 178, 81.071 178 L 128 178 128.022 172.250 C 128.048 165.536, 130.345 159.809, 134.799 155.355 L 137.900 152.254 135.428 149.932 C 130.882 145.661, 127.629 137.462, 127.815 130.739 C 127.957 125.582, 128.701 123.379, 132.990 115.423 L 138 106.130 138 96.520 L 138 86.911 155.250 87.259 C 164.738 87.450, 173.512 87.973, 174.750 88.420 C 176.639 89.103, 177 88.887, 177 87.077 C 177 81.724, 183.992 72.121, 190.376 68.706 C 194.206 66.657, 195.728 66.510, 211.750 66.639 L 229 66.779 229 50.389 C 229 35.333, 228.837 33.837, 227 32 C 225.028 30.028, 223.667 30, 129.691 30 C 48.968 30, 34.085 30.217, 32.441 31.419 M 41 58.500 L 41 76 84 76 L 127 76 127 58.500 L 127 41 84 41 L 41 41 41 58.500 M 205.541 104.750 C 204.630 113.631, 204.020 115.998, 202.642 116.010 C 200.353 116.029, 191.280 120.816, 187.890 123.792 L 184.411 126.846 176.486 123.400 C 172.127 121.505, 168.044 120.153, 167.412 120.395 C 166.780 120.638, 165.128 122.867, 163.741 125.348 L 161.220 129.859 168.384 134.983 L 175.549 140.107 175.501 152.055 L 175.454 164.002 168.477 169.110 C 164.640 171.920, 161.638 174.694, 161.806 175.276 C 161.974 175.858, 163.237 178.255, 164.614 180.604 L 167.116 184.874 175.147 181.437 C 179.564 179.547, 183.583 178, 184.080 178 C 184.576 178, 187.031 179.563, 189.534 181.474 C 192.037 183.385, 196.291 185.732, 198.988 186.689 C 204.397 188.610, 204.462 188.736, 205.541 199.250 L 206.233 206 213.001 206 L 219.770 206 220.438 200.250 C 221.563 190.569, 222.176 188, 223.361 187.999 C 225.542 187.998, 236.513 182.267, 238.405 180.141 C 240.920 177.314, 241.826 177.405, 251.059 181.406 L 258.920 184.813 261.404 180.573 C 262.771 178.241, 264.026 175.858, 264.194 175.276 C 264.362 174.694, 261.375 171.930, 257.555 169.134 L 250.610 164.049 250.555 152.163 L 250.500 140.277 257.770 135.071 L 265.039 129.865 262.270 124.933 C 260.746 122.221, 258.977 120.002, 258.339 120.001 C 257.700 120, 253.585 121.537, 249.196 123.416 L 241.214 126.833 238.413 123.909 C 235.394 120.758, 226.672 116, 223.915 116 C 222.131 116, 221.674 114.389, 220.438 103.750 L 219.770 98 213.001 98 L 206.233 98 205.541 104.750 M 203.491 132.865 C 196.285 136.139, 191.011 144.225, 191.011 152 C 191.011 161.337, 198.703 170.940, 207.715 172.856 C 216.270 174.674, 224.065 172.107, 229.790 165.586 C 236.594 157.837, 236.549 146.761, 229.679 138.427 C 223.851 131.356, 212.240 128.890, 203.491 132.865 M 277.968 134.750 C 277.950 135.162, 274.584 137.750, 270.488 140.500 L 263.041 145.500 263.020 152.143 C 263.007 156.541, 263.423 158.955, 264.250 159.286 C 264.938 159.561, 268.538 162.068, 272.250 164.859 L 279 169.932 279 151.966 C 279 142.085, 278.775 134, 278.500 134 C 278.225 134, 277.985 134.338, 277.968 134.750 M 208.388 141.980 C 204.791 143.434, 202 147.913, 202 152.235 C 202 155.411, 202.677 156.877, 205.400 159.600 C 208.187 162.387, 209.557 163, 213 163 C 216.443 163, 217.813 162.387, 220.600 159.600 C 223.298 156.902, 224 155.399, 224 152.323 C 224 144.272, 215.936 138.930, 208.388 141.980 M 272.998 185.250 C 270.123 190.338, 267.077 195.287, 266.230 196.250 C 263.978 198.809, 260.418 198.384, 252.090 194.563 L 244.680 191.163 239.090 194.257 C 236.016 195.959, 233.328 197.482, 233.117 197.642 C 232.906 197.802, 232.108 201.886, 231.342 206.716 C 230.429 212.486, 229.379 215.929, 228.284 216.750 C 226.937 217.761, 231.634 218, 252.809 218 L 279 218 279 197 C 279 185.450, 278.826 176, 278.613 176 C 278.400 176, 275.873 180.162, 272.998 185.250" stroke="none" fill="#ffffff" fill-rule="evenodd"/><path d="M 3.223 1.557 L 1 3.113 1 73.857 C 1 127.546, 1.289 144.889, 2.200 145.800 C 2.952 146.552, 6.689 147, 12.200 147 L 21 147 21 142 L 21 137 16 137 L 11 137 11 119 L 11 101 16.055 101 L 21.110 101 20.805 96.250 L 20.500 91.500 15.750 91.195 L 11 90.890 11 73.445 L 11 56 16 56 L 21 56 21 51 L 21 46 16 46 L 11 46 11 28 L 11 10 54 10 L 97 10 97 15 L 97 20 102 20 L 107 20 107 15 L 107 10 124.500 10 L 142 10 142 15 L 142 20 146.945 20 L 151.890 20 152.195 15.250 L 152.500 10.500 170 10.500 L 187.500 10.500 187.805 15.250 L 188.110 20 193.055 20 L 198 20 198 12 C 198 -1.408, 209.528 -0, 99.723 0 C 16.012 0, 5.196 0.174, 3.223 1.557 M 32.200 32.200 C 30.613 33.787, 30.454 172.111, 32.035 175.066 C 33.036 176.936, 34.624 177, 79.896 177 L 126.722 177 127.252 171.162 C 127.857 164.488, 129.888 159.908, 134.308 155.250 L 137.392 152 134.253 148.750 C 132.526 146.963, 130.198 143.475, 129.079 141 L 127.044 136.500 127.022 151.750 L 127 167 84 167 L 41 167 41 149.500 L 41 132 84 132 L 127 132 127 129.009 C 127 127.364, 129.250 121.691, 132 116.403 L 137 106.787 137 96.394 L 137 86 154.571 86 C 169.148 86, 172.408 86.266, 173.701 87.558 C 175.112 88.969, 175.465 88.608, 177.442 83.745 C 178.643 80.791, 180.384 77.289, 181.312 75.964 C 182.728 73.943, 183 70.932, 183 57.277 L 183 41 200.500 41 L 218 41 218 53.500 L 218 66 223 66 L 228 66 228 49.700 C 228 38.356, 227.635 33.035, 226.800 32.200 C 225.060 30.460, 33.940 30.460, 32.200 32.200 M 41 58.500 L 41 76 84 76 L 127 76 127 58.500 L 127 41 84 41 L 41 41 41 58.500 M 137 58.500 L 137 76 155 76 L 173 76 173 58.500 L 173 41 155 41 L 137 41 137 58.500 M 41 104 L 41 122 84 122 L 127 122 127 104 L 127 86 84 86 L 41 86 41 104 M 199.228 87.190 C 196.763 88.422, 196.538 89.067, 194.953 99.471 C 194.369 103.305, 193.691 106.642, 193.447 106.886 C 193.203 107.130, 190.440 108.750, 187.306 110.485 L 181.609 113.639 172.836 109.768 C 165.778 106.653, 163.672 106.105, 162.066 106.965 C 160.192 107.968, 155.566 115.179, 149.626 126.357 C 146.388 132.449, 146.820 133.365, 156.209 140.320 L 163.319 145.587 163.410 151.972 L 163.500 158.356 156.273 163.700 C 145.881 171.385, 145.897 171.313, 152.097 182.286 C 158.534 193.680, 161.679 198, 163.533 198 C 164.320 198, 168.730 196.260, 173.333 194.133 C 181.574 190.326, 181.739 190.295, 184.101 192.086 C 185.421 193.087, 188.148 194.653, 190.163 195.566 C 193.783 197.206, 193.842 197.328, 195.102 205.802 C 196.909 217.946, 196.988 218, 213 218 C 229.043 218, 229.215 217.884, 231.009 205.827 L 232.261 197.410 238.571 194.039 L 244.881 190.667 252.902 194.334 C 257.313 196.350, 261.536 198, 262.287 198 C 264.221 198, 267.023 194.574, 271.692 186.500 C 279.217 173.486, 279.336 173.162, 277.591 170.499 C 276.744 169.207, 273.003 166.017, 269.276 163.411 L 262.500 158.672 262.649 152.086 L 262.799 145.500 270.149 140.198 C 274.192 137.281, 277.901 134.031, 278.391 132.974 C 279.082 131.484, 277.849 128.549, 272.891 119.886 C 264.274 104.830, 264.315 104.851, 253.306 109.810 L 244.500 113.776 241.808 111.861 C 240.327 110.808, 237.563 109.298, 235.666 108.505 C 232.284 107.092, 232.192 106.895, 231.013 98.594 C 229.267 86.293, 229.605 86.542, 214.333 86.277 C 206.311 86.138, 200.648 86.480, 199.228 87.190 M 205.664 100.250 C 205.357 102.037, 204.801 106.123, 204.428 109.329 C 203.951 113.425, 203.266 115.309, 202.125 115.664 C 197.350 117.149, 192.044 119.861, 188.226 122.769 L 183.934 126.037 175.433 122.386 C 170.758 120.377, 166.792 118.906, 166.620 119.117 C 165.440 120.560, 160.757 130.078, 161.088 130.360 C 161.315 130.552, 164.778 133.072, 168.784 135.960 C 174.956 140.408, 175.964 141.538, 175.387 143.355 C 174.498 146.157, 174.510 157.881, 175.405 160.701 C 175.998 162.569, 175.152 163.598, 169.802 167.516 C 166.336 170.054, 162.825 172.529, 162 173.015 C 160.722 173.770, 160.938 174.720, 163.465 179.450 C 165.096 182.503, 166.828 185, 167.314 185 C 167.801 185, 171.781 183.448, 176.158 181.551 L 184.116 178.102 188.318 181.301 C 192.057 184.148, 197.379 186.860, 202.125 188.336 C 203.266 188.691, 203.951 190.575, 204.428 194.671 C 204.801 197.877, 205.357 201.963, 205.664 203.750 L 206.223 207 213.003 207 C 220.740 207, 220.333 207.530, 221.525 195.892 L 222.203 189.284 227.708 187.002 C 230.736 185.747, 235.178 183.220, 237.580 181.387 L 241.947 178.053 250.062 181.527 C 254.526 183.437, 258.491 185, 258.874 185 C 259.257 185, 260.904 182.503, 262.535 179.450 C 265.062 174.720, 265.278 173.770, 264 173.015 C 263.175 172.529, 259.681 170.067, 256.236 167.544 C 250.520 163.358, 250.035 162.719, 250.690 160.229 C 251.609 156.729, 251.614 147.290, 250.698 143.806 C 250.045 141.320, 250.569 140.709, 257.495 135.873 C 261.623 132.991, 265 130.233, 265 129.745 C 265 129.041, 260.624 120.801, 259.356 119.117 C 259.197 118.906, 255.211 120.390, 250.499 122.415 L 241.930 126.096 237.814 122.573 C 234.381 119.635, 229.159 117.065, 223.375 115.469 C 222.756 115.298, 221.935 112.085, 221.549 108.329 C 220.329 96.438, 220.753 97, 213.003 97 L 206.223 97 205.664 100.250 M 205.625 132.469 C 200.920 134.146, 195.255 139.351, 193.381 143.718 C 192.621 145.488, 192 149.354, 192 152.311 C 192 167.965, 208.012 177.632, 222.334 170.625 C 229.831 166.957, 233.290 161.805, 233.818 153.523 C 234.298 145.972, 232.540 141.624, 226.968 136.590 C 221.014 131.211, 213.321 129.726, 205.625 132.469 M 205.233 143.782 C 201.434 147.331, 200.432 151.704, 202.360 156.319 C 204.237 160.812, 208.002 163.273, 213 163.273 C 220.949 163.273, 226.290 156.249, 224.043 148.750 C 221.755 141.111, 211.104 138.298, 205.233 143.782" stroke="none" fill="#4795da" fill-rule="evenodd"/></svg>