<svg width="36" height="28" viewBox="0 0 36 28" xmlns="http://www.w3.org/2000/svg">
<path d="M0 2.92383C0 1.81926 0.895431 0.923828 2 0.923828H23C24.1046 0.923828 25 1.81926 25 2.92383V4.25977H23.6998V3.22383C23.6998 2.67154 23.2521 2.22383 22.6998 2.22383H19.1003V4.25977H17.8003V2.22383H13.2146V4.25977H11.9146V2.22383H2.2998C1.74752 2.22383 1.2998 2.67154 1.2998 3.22383V6.83008H3.10205V8.13008H1.2998V12.7266H3.10205V14.0266H1.2998V17.6238C1.2998 18.1761 1.74752 18.6238 2.2998 18.6238H3.10205V19.9238H2C0.89543 19.9238 0 19.0284 0 17.9238V2.92383Z" />
<path fill-rule="evenodd" clip-rule="evenodd" d="M5.76562 4.92383C4.66106 4.92383 3.76562 5.81926 3.76562 6.92383V21.9238C3.76562 23.0284 4.66106 23.9238 5.76562 23.9238H18.7855L18.2438 22.9636C18.18 22.8545 18.1276 22.7408 18.0871 22.6238H16.9802V18.0266H18.606C18.3399 17.7737 18.1506 17.4569 18.0527 17.0977C18.0189 16.974 17.9982 16.8499 17.9899 16.7266H16.9802V12.1301H21.5659L21.5723 12.1296H22.5605L22.8659 12.1301H24.0504L24.1912 11.2323L24.194 11.2168C24.2184 11.083 24.2558 10.9536 24.3058 10.8301H22.8659V6.22383H26.4654C27.0177 6.22383 27.4654 6.67154 27.4654 7.22383V9.625H28.7656V6.92383C28.7656 5.81926 27.8702 4.92383 26.7656 4.92383H5.76562ZM21.5659 10.8301V6.22383H16.9802V10.8301H21.5659ZM15.6802 10.8301V6.22383H6.06543C5.51314 6.22383 5.06543 6.67154 5.06543 7.22383V10.8301H15.6802ZM5.06543 12.1301H15.6802V16.7266H5.06543V12.1301ZM15.6802 22.6238V18.0266H5.06543V21.6238C5.06543 22.1761 5.51314 22.6238 6.06543 22.6238H15.6802Z" />
<path fill-rule="evenodd" clip-rule="evenodd" d="M27.4868 22.0418C28.2418 22.0418 28.885 21.7761 29.4164 21.2448C29.9477 20.7134 30.2134 20.0702 30.2134 19.3152C30.2134 18.5602 29.9477 17.917 29.4164 17.3856C28.885 16.8543 28.2418 16.5886 27.4868 16.5886C26.7317 16.5886 26.0886 16.8543 25.5572 17.3856C25.0259 17.917 24.7602 18.5602 24.7602 19.3152C24.7602 20.0702 25.0259 20.7134 25.5572 21.2448C26.0886 21.7761 26.7317 22.0418 27.4868 22.0418ZM28.9893 19.3145C28.9893 20.1429 28.3177 20.8145 27.4893 20.8145C26.6608 20.8145 25.9893 20.1429 25.9893 19.3145C25.9893 18.486 26.6608 17.8145 27.4893 17.8145C28.3177 17.8145 28.9893 18.486 28.9893 19.3145Z" />
<path fill-rule="evenodd" clip-rule="evenodd" d="M26.1025 27.7046C25.9487 27.7046 25.8124 27.6557 25.6936 27.5578C25.5747 27.4599 25.5013 27.3341 25.4733 27.1803L25.1378 25.062C24.8721 24.9641 24.5924 24.8312 24.2988 24.6635C24.0052 24.4957 23.7465 24.3209 23.5228 24.1391L21.5723 25.041C21.4184 25.1109 21.2646 25.1214 21.1108 25.0724C20.957 25.0235 20.8382 24.9221 20.7543 24.7683L19.37 22.3144C19.2861 22.1746 19.2652 22.0278 19.3071 21.874C19.3491 21.7202 19.4329 21.5943 19.5588 21.4964L21.3625 20.1751C21.3345 20.0493 21.3171 19.906 21.3101 19.7452C21.3031 19.5844 21.2996 19.441 21.2996 19.3152C21.2996 19.1894 21.3031 19.046 21.3101 18.8852C21.3171 18.7244 21.3345 18.5811 21.3625 18.4553L19.5588 17.134C19.4329 17.0361 19.3491 16.9102 19.3071 16.7564C19.2652 16.6026 19.2861 16.4558 19.37 16.316L20.7543 13.8621C20.8382 13.7083 20.957 13.6069 21.1108 13.558C21.2646 13.509 21.4184 13.5195 21.5723 13.5894L23.5228 14.4913C23.7465 14.3095 24.0052 14.1347 24.2988 13.9669C24.5924 13.7992 24.8721 13.6733 25.1378 13.5894L25.4733 11.4501C25.5013 11.2963 25.5747 11.1705 25.6936 11.0726C25.8124 10.9747 25.9487 10.9258 26.1025 10.9258H28.871C29.0248 10.9258 29.1612 10.9747 29.28 11.0726C29.3989 11.1705 29.4723 11.2963 29.5003 11.4501L29.8358 13.5684C30.1015 13.6663 30.3846 13.7957 30.6853 13.9565C30.9859 14.1173 31.2411 14.2955 31.4508 14.4913L33.4013 13.5894C33.5551 13.5195 33.7089 13.509 33.8627 13.558C34.0166 13.6069 34.1354 13.7083 34.2193 13.8621L35.6036 16.295C35.6874 16.4348 35.7119 16.5851 35.677 16.7459C35.642 16.9067 35.5546 17.0361 35.4148 17.134L33.6111 18.4133C33.639 18.5532 33.6565 18.7035 33.6635 18.8643C33.6705 19.0251 33.674 19.1754 33.674 19.3152C33.674 19.455 33.6705 19.6018 33.6635 19.7556C33.6565 19.9095 33.639 20.0563 33.6111 20.1961L35.4148 21.4964C35.5406 21.5943 35.6245 21.7202 35.6665 21.874C35.7084 22.0278 35.6874 22.1746 35.6036 22.3144L34.2193 24.7683C34.1354 24.9221 34.0166 25.0235 33.8627 25.0724C33.7089 25.1214 33.5551 25.1109 33.4013 25.041L31.4508 24.1391C31.2271 24.3209 30.9719 24.4992 30.6853 24.6739C30.3986 24.8487 30.1155 24.9781 29.8358 25.062L29.5003 27.1803C29.4723 27.3341 29.3989 27.4599 29.28 27.5578C29.1612 27.6557 29.0248 27.7046 28.871 27.7046H26.1025ZM26.564 26.4462H28.4096L28.7033 24.0972C29.1647 23.9853 29.6016 23.8105 30.0141 23.5728C30.4266 23.3351 30.8006 23.0485 31.1362 22.7129L33.3594 23.6777L34.1983 22.1676L32.2268 20.7204C32.2827 20.4827 32.3282 20.2485 32.3631 20.0178C32.3981 19.7871 32.4156 19.5529 32.4156 19.3152C32.4156 19.0775 32.4016 18.8433 32.3736 18.6126C32.3457 18.3819 32.2967 18.1477 32.2268 17.91L34.1983 16.4628L33.3594 14.9527L31.1362 15.9175C30.8146 15.5539 30.451 15.2498 30.0456 15.0051C29.6401 14.7604 29.1926 14.6031 28.7033 14.5332L28.4096 12.1842H26.564L26.2703 14.5332C25.7949 14.6311 25.351 14.7989 24.9385 15.0366C24.526 15.2743 24.159 15.5679 23.8374 15.9175L21.6142 14.9527L20.7753 16.4628L22.7468 17.91C22.6908 18.1477 22.6454 18.3819 22.6104 18.6126C22.5755 18.8433 22.558 19.0775 22.558 19.3152C22.558 19.5529 22.5755 19.7871 22.6104 20.0178C22.6454 20.2485 22.6908 20.4827 22.7468 20.7204L20.7753 22.1676L21.6142 23.6777L23.8374 22.7129C24.173 23.0485 24.547 23.3351 24.9595 23.5728C25.372 23.8105 25.8089 23.9853 26.2703 24.0972L26.564 26.4462Z" />
</svg>
