<svg version="1.0" xmlns="http://www.w3.org/2000/svg" width="186.000000pt" height="149.000000pt" viewBox="0 0 186.000000 149.000000" preserveAspectRatio="xMidYMid meet">
	<g transform="translate(0.000000,149.000000) scale(0.100000,-0.100000)" stroke="none">
		<path d="M84 1480 c-11 -4 -33 -22 -47 -40 l-27 -32 0 -524 c0 -568 -1 -562 54 -598 14 -9 41 -16 61 -16 l35 0 0 465 c0 532 0 528 74 565 41 20 58 20 714 20 l672 0 0 30 c0 48 -26 98 -62 120 -32 20 -48 20 -743 19 -390 0 -719 -4 -731 -9z" />
		<path d="M325 1220 c-11 -4 -31 -20 -45 -35 l-25 -27 0 -540 0 -540 37 -34 38 -34 725 0 725 0 38 34 37 34 0 542 0 542 -37 34 -38 34 -717 -1 c-395 0 -727 -4 -738 -9z m672 -133 c14 -14 18 -35 18 -103 0 -130 15 -124 -321 -124 -331 0 -314 -7 -314 123 0 45 4 87 8 93 21 31 49 34 319 31 246 -2 274 -4 290 -20z m359 -2 c9 -13 14 -47 14 -106 0 -111 -8 -119 -122 -119 -108 0 -118 11 -118 124 0 80 1 86 28 106 24 19 37 21 105 18 64 -3 81 -7 93 -23z m337 14 c34 -18 37 -28 37 -116 0 -112 -10 -123 -120 -123 -110 0 -120 11 -120 123 0 83 9 109 40 120 28 10 141 7 163 -4z m-694 -385 c35 -45 27 -180 -13 -206 -6 -4 -137 -8 -290 -8 -336 0 -316 -7 -316 118 0 130 -21 122 316 122 l283 0 20 -26z m353 9 c15 -13 18 -31 18 -101 0 -116 -6 -122 -118 -122 -115 0 -122 7 -122 114 0 118 8 126 117 126 66 0 91 -4 105 -17z m360 0 c25 -23 27 -177 1 -205 -23 -25 -177 -27 -205 -1 -25 23 -27 177 -1 205 23 25 177 27 205 1z m-721 -362 c22 -18 24 -27 24 -106 0 -131 14 -125 -312 -125 -260 0 -295 4 -315 34 -4 6 -8 48 -8 94 0 129 -17 122 314 122 255 0 275 -1 297 -19z m357 3 c20 -14 22 -23 22 -105 0 -118 -10 -129 -114 -129 -59 0 -78 4 -100 21 -24 19 -26 26 -26 105 0 113 10 124 118 124 54 0 84 -5 100 -16z m362 -4 c17 -17 20 -33 20 -103 0 -109 -8 -120 -94 -125 -128 -8 -146 7 -146 124 0 114 10 124 120 124 67 0 83 -3 100 -20z" />
	</g>
</svg>