<svg xmlns="http://www.w3.org/2000/svg" xml:space="preserve" version="1.1" style="shape-rendering:geometricPrecision; text-rendering:geometricPrecision; image-rendering:optimizeQuality; fill-rule:evenodd; clip-rule:evenodd" viewBox="0 0 14416.1 3045.6" xmlns:xlink="http://www.w3.org/1999/xlink">
	<g id="Слой_x0020_1">
		<g id="_1510334293216">
			<path class="fil0" fill-rule="nonzero" d="M3845.79 1001.22l1522.73 0 0 447.38 -477.04 0 0 1552.37 -568.66 0 0 -1552.37 -477.03 0 0 -447.38zm2986.16 0l0 447.38 -733.06 0 0 1104.99 784.72 0 0 447.38 -1353.38 0 0 -1999.75 1301.72 0zm121.28 611.78l0 447.38 -749.24 0 0 -447.38 749.24 0zm161.26 -611.78l568.66 0 0 1999.75 -568.66 0 0 -1999.75zm1223.57 0l568.66 0 0 1999.75 -568.66 0 0 -986.4 -549.8 0 0 -450.08 549.8 0 0 -563.27zm730.82 0l1522.73 0 0 447.38 -477.04 0 0 1552.37 -568.66 0 0 -1552.37 -477.03 0 0 -447.38zm2795.26 0l584.38 0c-42.22,339.58 -130.26,659.84 -263.67,961.7 -133.85,301.39 -322.95,552.48 -567.31,752.82 -244.36,200.78 -540.82,310.84 -888.93,331.05l0 -485.57c79.06,-13.03 152.27,-31.44 219.65,-55.7 67.38,-24.25 132.05,-54.79 194.04,-91.63 62,-36.83 117.24,-78.16 166.65,-124.87 -92.08,-84.89 -176.98,-177.43 -254.24,-276.7 -77.25,-99.71 -147.78,-207.52 -211.56,-323.86 -64.23,-116.34 -116.78,-229.98 -157.66,-341.82 -40.42,-111.85 -71.87,-226.83 -93.88,-345.42l596.06 0c17.52,101.51 48.96,205.27 94.33,310.83 44.92,106 98.37,203.48 160.36,293.31 61.98,89.84 126.22,166.21 192.7,228.19 35.48,-62.89 69.17,-143.74 101.51,-241.66 32.34,-98.37 59.75,-199.88 82.2,-304.55 22.46,-104.66 37.73,-200.32 45.37,-286.12zm746.09 0l929.35 0c208.42,0 377.76,37.28 507.13,112.29 129.36,75.01 222.34,172.03 278.94,290.18 56.6,118.57 84.9,243.9 84.9,376.41 0,109.6 -17.52,210.66 -52.11,303.19 -34.58,92.53 -87.15,173.83 -157.21,244.36 -70.07,70.97 -155.43,125.32 -256.04,163.5 -100.17,38.19 -214.71,57.04 -342.73,57.04 -108.7,0 -214.7,-13.47 -318.47,-40.87l0 -447.38c60.65,27.39 128.92,40.87 205.29,40.87 65.58,0 123.97,-12.13 174.72,-35.93 50.76,-24.26 90.29,-60.64 119.04,-109.15 28.3,-48.96 42.67,-108.26 42.67,-178.32 0,-40.43 -7.18,-84.01 -21.56,-130.72 -14.37,-47.17 -50.76,-91.64 -109.16,-134.31 -58.39,-42.67 -145.08,-63.78 -259.62,-63.78l-256.48 0 0 1552.37 -568.66 0 0 -1999.75z"/>
			<path class="fil1" d="M-5.56 1.22l3000 0 0 424.51 -3000 572.29 0 -996.8zm3000 933.53l0 2066.47 -915.45 0 -348.22 -1825.42 1263.67 -241.05zm-1424.47 2066.47l-1575.53 0 0 -1494.2 1245.19 -237.53 330.34 1731.73z"/>
		</g>
	</g>
</svg>
