<svg version="1.0" xmlns="http://www.w3.org/2000/svg" width="526.000000pt" height="623.000000pt" viewBox="0 0 526.000000 623.000000" preserveAspectRatio="xMidYMid meet">
	<g transform="translate(0.000000,623.000000) scale(0.100000,-0.100000)" stroke="none">
		<path d="M3290 6201 c-353 -57 -640 -170 -943 -371 -556 -370 -961 -931 -1102 -1525 -45 -188 -56 -298 -65 -645 -16 -574 -46 -765 -155 -985 -88 -177 -155 -257 -577 -681 -448 -452 -443 -444 -443 -599 0 -77 4 -98 27 -147 33 -70 107 -147 179 -185 49 -26 63 -28 159 -28 98 0 109 2 155 29 31 18 193 170 430 406 447 443 559 533 772 620 186 75 559 119 1016 120 625 0 1220 253 1682 715 409 407 655 880 731 1400 21 145 24 443 5 560 -55 351 -202 643 -447 888 -213 215 -449 346 -739 413 -109 25 -141 28 -345 30 -181 3 -248 0 -340 -15z m570 -759 c317 -83 512 -287 576 -601 22 -113 15 -364 -15 -499 -130 -588 -572 -1093 -1141 -1305 -198 -73 -443 -110 -631 -95 -261 20 -479 147 -615 358 -87 135 -124 277 -124 479 0 507 262 1002 720 1358 212 165 484 277 770 319 132 19 361 12 460 -14z" />
		<path d="M3980 2283 c-178 -18 -360 -83 -510 -182 -80 -52 -241 -211 -300 -297 -235 -340 -266 -805 -78 -1179 132 -263 371 -471 643 -560 282 -92 640 -68 895 60 164 83 334 235 437 393 71 108 114 206 151 341 23 88 26 113 26 291 0 179 -3 203 -27 295 -32 119 -115 294 -185 385 -63 83 -200 214 -280 269 -212 144 -500 212 -772 184z" />
	</g>
</svg>
