<svg width="24" height="22" viewBox="0 0 24 22" fill="none" xmlns="http://www.w3.org/2000/svg">
<path d="M1.17908 21.5C0.965195 21.5 0.770751 21.4465 0.595751 21.3396C0.420751 21.2326 0.28464 21.0917 0.187417 20.9167C0.0901951 20.7417 0.0367229 20.5521 0.0270007 20.3479C0.0172785 20.1437 0.0707507 19.9444 0.187417 19.75L10.9791 1.08333C11.0958 0.888889 11.2464 0.743056 11.4312 0.645833C11.6159 0.548611 11.8055 0.5 11.9999 0.5C12.1944 0.5 12.3839 0.548611 12.5687 0.645833C12.7534 0.743056 12.9041 0.888889 13.0208 1.08333L23.8124 19.75C23.9291 19.9444 23.9826 20.1437 23.9728 20.3479C23.9631 20.5521 23.9096 20.7417 23.8124 20.9167C23.7152 21.0917 23.5791 21.2326 23.4041 21.3396C23.2291 21.4465 23.0346 21.5 22.8208 21.5H1.17908ZM3.19158 19.1667H20.8083L11.9999 4L3.19158 19.1667ZM11.9999 18C12.3305 18 12.6076 17.8882 12.8312 17.6646C13.0548 17.441 13.1666 17.1639 13.1666 16.8333C13.1666 16.5028 13.0548 16.2257 12.8312 16.0021C12.6076 15.7785 12.3305 15.6667 11.9999 15.6667C11.6694 15.6667 11.3923 15.7785 11.1687 16.0021C10.9451 16.2257 10.8333 16.5028 10.8333 16.8333C10.8333 17.1639 10.9451 17.441 11.1687 17.6646C11.3923 17.8882 11.6694 18 11.9999 18ZM11.9999 14.5C12.3305 14.5 12.6076 14.3882 12.8312 14.1646C13.0548 13.941 13.1666 13.6639 13.1666 13.3333V9.83333C13.1666 9.50278 13.0548 9.22569 12.8312 9.00208C12.6076 8.77847 12.3305 8.66667 11.9999 8.66667C11.6694 8.66667 11.3923 8.77847 11.1687 9.00208C10.9451 9.22569 10.8333 9.50278 10.8333 9.83333V13.3333C10.8333 13.6639 10.9451 13.941 11.1687 14.1646C11.3923 14.3882 11.6694 14.5 11.9999 14.5Z" fill="white"/>
</svg>
